<?xml version="1.0" encoding="utf-8" standalone="no"?>
<!DOCTYPE svg PUBLIC "-//W3C//DTD SVG 1.1//EN" "http://www.w3.org/Graphics/SVG/1.1/DTD/svg11.dtd">
<svg xmlns:xlink="http://www.w3.org/1999/xlink" version="1.1" xmlns="http://www.w3.org/2000/svg">
  <metadata>Created by Aspose.Font at 10/12/2025 11:59:25 AM</metadata>
  <defs>
    <font id="Gandom" horiz-adv-x="1094">
      <font-face font-family="Gandom" font-weight="400" units-per-em="2048" font-style="normal" ascent="2350" descent="-1200" font-stretch="Normal" panose-1="2 11 6 3 3 8 4 2 2 4" cap-height="1462" x-height="1098" bbox="-1061 -1042 2563 2370" underline-thickness="100" underline-position="-550" unicode-range="U+0000-007F,U+0080-00FF,U+0100-017F,U+0180-024F,U+0600-06FF,U+0750-077F,U+2000-206F,U+2E00-2E7F,U+FB50-FDFF,U+FE70-FEFF" />
      <missing-glyph horiz-adv-x="748" d="M68 0L68 1365L612 1365L612 0zM136 68L544 68L544 1297L136 1297z" />
      <glyph unicode="
" horiz-adv-x="1044" />
      <glyph unicode=" " horiz-adv-x="570" />
      <glyph unicode="!" horiz-adv-x="676" d="M346 1435L358 1435C445 1387 440 1294 418 1432L392 535C389 527 386 525 391 531C378 520 370 518 383 522C353 516 341 516 362 516C322 516 314 517 331 516C300 519 296 521 306 518C287 525 285 527 291 523C282 532 282 536 283 529L225 1294C224 1309 224 1317 225 1301C254 1435 317 1435 223 1395zM205 154C205 164 206 169 205 159C207 179 208 184 206 174C210 193 212 198 209 188C216 207 218 211 214 202C222 220 225 224 220 215C230 232 233 236 227 228C240 244 244 248 236 240C378 299 432 249 296 300C470 189 470 153 457 221C457 86 431 60 470 117C373 21 337 21 405 34C270 34 244 60 301 21C205 117 205 154 218 86zM432 249C432 248 432 248 432 249L432 249z" />
      <glyph unicode="&#34;" horiz-adv-x="836" d="M502 1462L719 1462L657 981L563 981zM117 1462L334 1462L272 981L178 981z" />
      <glyph unicode="#" horiz-adv-x="1145" d="M387 537L672 537L748 938L463 938zM1028 537L1028 416L770 416L692 0L569 0L647 416L362 416L285 0L162 0L240 416L51 416L51 537L262 537L340 938L117 938L117 1059L362 1059L436 1462L561 1462L485 1059L770 1059L846 1462L969 1462L893 1059L1094 1059L1094 938L870 938L795 537z" />
      <glyph unicode="$" horiz-adv-x="1145" d="M621 1401C734 1392 777 1380 682 1399C855 1351 883 1331 820 1368C930 1287 942 1260 910 1311C961 1203 961 1171 954 1232C897 1038 799 1038 961 1083C796 1098 791 1128 799 1068C777 1186 764 1211 786 1158C733 1257 710 1275 751 1236C657 1303 621 1307 686 1292L621 829C736 775 784 749 682 802C871 693 903 662 831 722C959 597 976 559 935 631C1001 478 1001 430 992 521C863 111 621 86 1001 224L621 -162L518 -162L518 82C449 83 415 86 484 82C346 94 313 101 380 89C248 117 218 128 280 108C160 151 135 166 188 138L135 481L221 481C228 406 242 370 221 443C277 302 303 274 256 334C361 222 397 204 329 246C474 175 518 172 433 186L518 678C399 735 355 763 454 706C275 820 248 851 311 791C200 916 188 952 220 882C170 1028 170 1073 176 988C178 1160 194 1198 170 1119C234 1267 264 1295 210 1235C330 1345 373 1362 294 1323C464 1391 518 1397 416 1379L518 1556L621 1556zM813 399C809 450 803 472 813 426C785 514 770 533 796 494C734 569 710 585 754 551C656 617 621 633 686 601L621 178C813 281 813 399 743 199zM354 1090C357 1036 364 1014 354 1061C382 973 396 957 371 992C427 925 447 912 410 940C491 886 518 874 467 898L518 1303C467 1287 447 1274 491 1297C409 1245 395 1227 426 1261C371 1188 364 1165 381 1209C354 1116 354 1090 357 1141z" />
      <glyph unicode="%" horiz-adv-x="1835" d="M764 1030C757 899 743 843 764 961C708 739 680 699 729 787C617 628 575 606 652 659C484 573 428 573 533 584C318 584 276 606 369 573C199 659 172 699 234 628C124 787 111 843 144 739C92 961 92 1030 98 899C98 1160 111 1216 92 1098C144 1319 172 1359 124 1272C234 1429 277 1451 199 1399C370 1483 430 1483 319 1472C534 1472 576 1451 486 1483C652 1399 680 1359 618 1429C729 1272 743 1216 708 1319C764 1098 764 1030 757 1160zM276 1030C278 918 284 872 276 971C298 787 310 755 289 826C337 698 357 682 322 723C400 657 428 657 376 665C479 665 499 682 456 657C533 723 545 755 518 698C565 826 570 872 557 787C578 971 578 1030 575 918C575 1139 570 1185 578 1088C557 1268 545 1300 565 1230C518 1356 500 1372 533 1332C458 1397 430 1397 481 1388C378 1388 358 1372 402 1397C322 1332 310 1300 338 1356C289 1230 284 1185 298 1268C276 1088 276 1030 278 1139zM1743 436C1736 305 1722 249 1743 367C1687 145 1659 105 1708 193C1596 34 1554 12 1631 65C1463 -20 1407 -20 1512 -9C1297 -9 1255 12 1348 -20C1177 65 1150 105 1212 34C1103 193 1090 249 1123 145C1071 367 1071 436 1077 305C1077 566 1090 622 1071 504C1123 725 1151 765 1103 678C1213 835 1256 857 1178 805C1349 889 1409 889 1298 878C1513 878 1555 857 1465 889C1631 805 1659 765 1597 835C1708 678 1722 622 1687 725C1743 504 1743 436 1736 566zM1255 436C1257 324 1263 278 1255 377C1277 193 1289 161 1268 232C1316 104 1336 88 1301 129C1379 63 1407 63 1355 71C1458 71 1478 88 1435 63C1512 129 1524 161 1497 104C1543 232 1548 278 1535 193C1556 377 1556 436 1553 324C1553 545 1548 591 1556 494C1535 674 1524 706 1543 636C1497 762 1479 778 1512 738C1437 803 1409 803 1460 794C1357 794 1337 778 1381 803C1301 738 1289 706 1317 762C1268 636 1263 591 1277 674C1255 494 1255 436 1257 545zM616 0L481 0L1212 1462L1346 1462z" />
      <glyph unicode="&#38;" horiz-adv-x="1520" d="M1174 0L1004 180C952 125 922 101 979 152C860 56 824 38 892 77C748 5 704 -4 788 20C613 -20 561 -20 660 -14C407 -9 346 11 479 -20C234 60 194 98 285 31C124 181 104 234 154 136C74 345 74 410 84 286C81 518 97 561 74 468C135 642 163 675 113 604C226 736 266 761 191 707C351 808 401 829 306 785C352 889 332 917 375 859C296 974 283 1002 312 945C260 1058 254 1088 270 1030C244 1148 244 1182 247 1117C251 1268 266 1305 244 1227C303 1373 335 1400 280 1341C406 1447 455 1461 366 1426C563 1483 631 1483 504 1475C752 1475 798 1460 696 1483C881 1423 910 1397 844 1444C960 1339 973 1304 939 1370C993 1231 993 1192 986 1268C986 1109 974 1075 993 1148C941 1009 913 981 961 1041C850 925 806 899 885 952C709 847 647 821 762 873L1020 426C1037 487 1043 519 1029 456C1053 582 1057 612 1049 551C1063 672 1065 701 1061 642C1067 757 1067 782 1066 730L1067 862L1436 862L1436 776L1417 776C1372 774 1350 772 1394 776C1307 763 1288 753 1328 769C1252 729 1237 711 1269 743C1210 668 1202 637 1222 693C1148 442 1102 340 1178 549L1292 137C1312 118 1323 112 1302 127C1346 100 1360 96 1333 105C1391 89 1411 88 1374 92C1455 86 1483 86 1431 86L1501 86L1501 0zM580 94C657 98 691 106 620 94C757 126 786 141 725 114C841 173 865 193 814 155C910 236 930 260 889 213L477 745C417 708 392 687 445 727C346 642 328 614 367 666C297 555 288 521 310 586C274 447 274 403 278 486C281 308 296 270 274 353C331 199 358 173 310 232C417 127 455 114 385 147C534 94 580 94 492 100zM813 1190C809 1242 803 1266 813 1217C785 1309 770 1326 796 1289C735 1357 711 1367 755 1343C657 1382 623 1382 687 1377C434 1305 434 1188 501 1382C436 1137 442 1115 434 1162C455 1069 467 1047 447 1092C494 1002 512 978 479 1025C552 927 578 899 530 954C652 934 682 954 618 916C736 994 756 1017 712 973C789 1066 799 1094 775 1040C813 1154 813 1190 808 1122z" />
      <glyph unicode="&#39;" horiz-adv-x="451" d="M117 1462L334 1462L272 981L178 981z" />
      <glyph unicode="(" horiz-adv-x="709" d="M330 649C333 487 339 408 330 567C359 253 381 182 345 328C433 46 475 -14 402 111C573 -125 643 -168 517 -74L643 -262C468 -179 402 -126 549 -224C280 -9 238 64 335 -72C165 223 146 319 196 138C117 525 117 649 126 415C126 881 146 977 117 772C196 1157 238 1231 165 1073C335 1367 402 1420 280 1304C549 1518 643 1556 468 1473L643 1464C517 1370 475 1310 573 1421C402 1185 381 1115 433 1250C345 969 339 890 359 1044C330 730 330 649 333 810z" />
      <glyph unicode=")" horiz-adv-x="709" d="M379 649C375 810 369 890 379 730C349 1044 327 1115 363 969C274 1250 233 1310 305 1185C136 1421 66 1464 191 1370L66 1556C240 1473 307 1420 160 1518C428 1304 470 1231 373 1367C542 1073 562 977 512 1157C592 772 592 649 582 881C582 415 562 319 592 525C512 138 470 64 542 223C373 -72 307 -126 428 -9C160 -224 66 -262 240 -179L66 -168C191 -74 233 -14 136 -125C305 111 327 182 274 46C363 328 369 408 349 253C379 567 379 649 375 487z" />
      <glyph unicode="*" horiz-adv-x="1024" d="M84 1268L156 1430L471 1231L418 1556L596 1556L539 1233L856 1425L928 1266L582 1165L928 1065L856 907L539 1098L596 774L418 774L469 1098L156 903L84 1063L428 1165z" />
      <glyph unicode="+" horiz-adv-x="1145" d="M633 672L633 293L510 293L510 672L133 672L133 793L510 793L510 1171L633 1171L633 793L1012 793L1012 672z" />
      <glyph unicode="," horiz-adv-x="512" d="M397 86C391 0 379 -40 397 42C347 -118 320 -153 367 -80C258 -218 216 -246 293 -187C122 -297 61 -315 174 -274L61 -229C256 -125 256 -45 195 -186C252 -20 245 -11 256 -31C228 5 217 12 237 -2C193 26 181 33 205 19C156 47 145 57 168 39C124 77 117 91 133 66C106 122 106 143 109 105C164 264 240 264 106 221C281 260 300 252 261 264C335 233 350 218 318 244C376 184 384 162 364 203C397 114 397 86 392 140z" />
      <glyph unicode="-" horiz-adv-x="635" d="M51 481L51 635L584 635L584 481z" />
      <glyph unicode="." horiz-adv-x="676" d="M205 154C205 164 206 169 205 159C207 179 208 184 206 174C210 193 212 198 209 188C216 207 218 211 214 202C222 220 225 224 220 215C230 232 233 236 227 228C240 244 244 248 236 240C378 299 432 249 296 300C470 189 470 153 457 221C457 86 431 60 470 117C373 21 337 21 405 34C270 34 244 60 301 21C205 117 205 154 218 86zM432 249C432 248 432 248 432 249L432 249z" />
      <glyph unicode="/" horiz-adv-x="590" d="M121 -248L0 -248L471 1556L590 1556z" />
      <glyph unicode="0" horiz-adv-x="1145" d="M1053 733C1043 517 1023 425 1053 620C974 253 934 187 1003 332C844 70 784 34 894 121C653 -20 573 -20 724 -2C416 -2 356 34 489 -20C245 121 206 187 295 70C138 332 120 425 167 253C92 621 92 735 101 518C101 951 120 1043 92 848C167 1213 206 1279 138 1135C295 1394 356 1430 245 1344C490 1483 575 1483 417 1465C724 1465 784 1430 655 1483C894 1344 934 1279 844 1394C1003 1134 1023 1042 974 1213C1053 847 1053 733 1043 950zM305 733C309 541 319 461 305 631C343 314 364 259 328 381C413 162 447 133 385 204C523 90 573 90 481 104C665 104 699 133 623 90C760 204 781 259 733 162C817 381 826 461 802 314C840 631 840 733 835 541C835 924 826 1004 840 834C802 1150 781 1205 817 1083C733 1301 699 1329 760 1259C624 1372 575 1372 665 1357C482 1357 448 1329 525 1372C386 1259 365 1205 414 1301C328 1083 319 1004 343 1150C305 834 305 733 309 924z" />
      <glyph unicode="1" horiz-adv-x="1145" d="M197 0L197 86L334 86C379 87 399 91 357 86C437 101 452 111 419 94C479 136 488 156 467 121C502 201 502 233 497 175L502 1309C451 1248 428 1222 476 1277C382 1173 361 1155 404 1196C318 1121 298 1111 339 1136C258 1096 238 1096 278 1101C135 1140 135 1206 178 1096C176 1217 197 1225 155 1211C240 1243 264 1255 218 1233C313 1282 341 1300 288 1267C400 1339 434 1364 369 1318L578 1470L709 1470L709 233C713 175 722 156 709 201C742 121 758 111 730 136C791 94 811 91 773 101C853 86 877 86 831 87L977 86L977 0z" />
      <glyph unicode="2" horiz-adv-x="1145" d="M944 1141C936 1046 921 1001 944 1093C883 909 854 861 905 955C788 764 746 713 824 813C656 606 602 547 704 661L256 164L729 164C785 168 805 177 759 164C841 197 854 211 825 185C876 241 883 259 866 225C896 297 901 317 890 277L909 354L995 354L985 0L104 0L104 150L446 545C546 665 583 715 500 608C650 812 673 856 620 765C712 944 722 986 695 900C737 1073 737 1120 732 1028C732 1194 724 1226 737 1159C703 1285 686 1308 716 1258C647 1349 621 1361 669 1331C564 1380 528 1380 595 1373C443 1371 414 1355 481 1380C362 1316 346 1288 385 1338C318 1227 312 1191 329 1260C303 1115 303 1075 306 1154C255 1077 234 1081 278 1075C194 1092 178 1102 212 1085C149 1126 140 1143 162 1112C127 1182 127 1208 131 1160C135 1283 152 1317 127 1247C194 1380 228 1405 169 1351C304 1448 354 1462 262 1429C462 1483 528 1483 404 1476C650 1474 702 1458 592 1483C797 1419 833 1389 753 1442C896 1324 915 1282 869 1359C944 1193 944 1141 934 1240z" />
      <glyph unicode="3" horiz-adv-x="1145" d="M508 90C587 95 624 107 548 90C693 137 721 163 660 118C771 223 788 265 749 189C813 358 813 420 804 307C804 502 787 537 813 463C746 602 714 627 770 572C643 670 597 684 682 651C499 705 442 705 551 698L377 705L377 809L442 809C529 816 568 831 487 809C641 867 670 895 607 846C722 955 739 994 699 922C764 1077 764 1126 755 1033C760 1201 752 1233 764 1166C731 1291 713 1313 744 1264C673 1351 645 1363 695 1335C584 1380 545 1380 617 1374C460 1371 431 1355 498 1380C378 1316 362 1288 401 1338C334 1227 328 1191 345 1260C319 1115 319 1075 322 1154C271 1077 250 1081 294 1075C210 1092 194 1102 228 1085C165 1126 156 1143 178 1112C143 1182 143 1208 147 1160C151 1283 168 1317 143 1247C211 1380 245 1405 185 1351C321 1448 371 1462 279 1429C479 1483 545 1483 421 1476C668 1475 721 1461 609 1483C818 1425 856 1397 773 1446C923 1335 944 1295 894 1369C975 1209 975 1157 964 1255C966 1067 950 1027 975 1111C911 949 882 916 934 986C818 855 778 832 852 883C694 791 647 780 738 808C699 772 728 766 672 777C785 751 813 739 756 760C867 712 893 694 841 727C941 654 961 628 919 676C996 571 1008 537 981 602C1026 463 1026 418 1020 503C1018 314 1004 271 1026 363C969 189 943 157 989 227C888 97 854 75 917 125C783 34 745 20 820 52C666 -4 626 -10 706 6C545 -20 506 -20 585 -16C380 -13 332 -1 438 -20C243 27 211 48 283 10C156 92 141 120 179 68C119 177 119 207 126 148C169 338 248 338 119 289C253 268 265 238 248 302C294 182 316 160 277 208C365 120 397 108 338 138C466 90 508 90 429 96z" />
      <glyph unicode="4" horiz-adv-x="1145" d="M862 401L862 233C866 175 875 156 862 201C896 121 911 111 884 136C944 94 965 91 926 101C1007 86 1030 86 985 87L1057 86L1057 0L440 0L440 86L498 86C543 87 563 91 521 86C601 101 616 111 583 94C643 136 652 156 631 121C666 201 666 233 661 175L666 401L35 401L35 485L668 1462L862 1462L862 516L1116 516L1116 401zM666 895C666 958 667 994 666 925C668 1066 669 1104 667 1030C671 1178 673 1215 670 1141C677 1287 680 1319 675 1252C668 1297 660 1281 675 1309C641 1248 630 1229 651 1265C607 1189 595 1168 619 1209C570 1125 558 1105 583 1146C534 1066 524 1048 546 1085C504 1016 496 1004 513 1030L182 516L666 516z" />
      <glyph unicode="5" horiz-adv-x="1145" d="M489 100C569 105 605 117 531 100C672 148 698 175 641 129C745 238 760 282 724 202C782 381 782 446 774 326C774 547 760 587 782 500C724 660 697 687 745 627C637 733 599 746 669 713C518 766 471 766 561 759C405 764 379 762 435 766C331 755 311 751 353 759C274 742 260 737 291 747C231 726 219 721 245 731L170 735L236 1460L920 1460L930 1151L844 1151L836 1212C831 1239 827 1249 834 1226C818 1268 810 1275 823 1259C791 1287 777 1291 802 1282C746 1296 725 1296 763 1294L328 1296L289 846C406 879 528 879 330 860C655 870 712 852 594 879C819 807 861 771 769 834C935 689 959 635 903 735C995 518 995 446 983 581C983 313 961 256 995 376C906 149 864 108 939 198C770 35 709 13 822 67C578 -20 500 -20 647 -8C361 -13 311 0 424 -20C222 29 193 49 261 12C143 91 131 115 163 69C113 163 113 186 119 139C154 307 242 307 113 262C247 250 257 225 242 277C283 177 303 159 267 199C349 126 380 116 323 141C447 100 489 100 411 105z" />
      <glyph unicode="6" horiz-adv-x="1145" d="M659 1384C350 1180 336 782 453 1384C371 809 391 822 352 796C434 846 458 856 411 835C508 874 536 880 482 866C595 889 629 889 564 886C748 879 799 860 691 889C892 813 928 777 849 840C991 697 1011 645 964 741C1040 534 1040 469 1030 593C1030 331 1010 271 1040 397C962 159 924 116 990 211C840 40 786 16 886 73C670 -20 600 -20 732 -8C469 -5 411 22 532 -20C302 95 260 156 353 50C185 295 161 391 218 217C125 602 125 737 137 487C129 865 139 927 125 801C163 1047 183 1103 149 989C226 1209 256 1256 202 1158C319 1342 359 1376 285 1302C444 1436 494 1455 399 1410C599 1483 659 1483 544 1473C766 1477 808 1465 716 1483C886 1437 914 1417 850 1453C962 1374 976 1348 942 1397C997 1295 997 1268 990 1322C942 1145 840 1145 997 1189C836 1209 830 1238 840 1178C813 1292 799 1314 824 1267C765 1353 743 1365 784 1336C692 1384 659 1384 720 1377zM588 784C535 780 511 773 561 784C463 757 441 746 486 766C400 722 382 708 419 735C348 680 334 666 364 694C342 475 355 403 335 563C386 271 410 225 368 330C461 145 495 124 433 179C565 92 606 92 528 102C831 201 831 449 752 92C745 784 588 784 831 682z" />
      <glyph unicode="7" horiz-adv-x="1145" d="M389 0L872 1296L334 1296C221 1261 215 1192 260 1296L207 1090L121 1090L131 1460L1047 1460L1047 1401L543 0z" />
      <glyph unicode="8" horiz-adv-x="1145" d="M94 367C101 459 117 496 94 416C155 566 183 595 133 533C244 650 282 674 211 624C361 719 406 741 320 697C331 786 299 812 367 763C238 866 215 897 266 838C173 961 160 997 191 927C141 1073 141 1116 147 1033C149 1209 166 1253 141 1163C208 1336 244 1370 182 1297C325 1431 381 1452 279 1404C505 1483 584 1483 437 1472C705 1474 755 1456 648 1483C847 1414 881 1383 805 1438C942 1314 960 1271 915 1351C987 1181 987 1130 978 1228C980 1046 967 1012 987 1085C935 947 911 920 953 978C858 869 824 847 887 893C752 804 711 784 790 825C807 734 849 707 761 760C927 650 957 618 891 679C1010 551 1026 514 987 586C1051 435 1051 391 1042 476C1039 268 1016 217 1051 326C959 123 917 88 992 166C822 25 762 7 874 52C633 -20 559 -20 701 -10C415 -10 357 10 482 -20C250 57 211 92 299 30C143 168 123 215 172 127C94 313 94 367 103 262zM569 74C654 80 690 94 613 74C757 127 783 151 726 108C829 203 843 237 809 175C864 306 864 346 857 270C857 412 845 442 864 380C811 500 783 528 832 472C717 583 671 609 754 556C570 663 504 692 625 635C293 512 293 358 374 622C298 276 310 242 293 315C339 177 362 152 322 207C414 108 449 94 385 127C523 74 569 74 483 80zM805 1135C800 1197 792 1227 805 1166C770 1283 752 1307 784 1257C710 1350 680 1364 734 1331C614 1386 571 1386 650 1378C499 1379 469 1367 533 1386C415 1338 395 1316 439 1355C359 1269 349 1239 375 1294C334 1176 334 1141 339 1209C339 1071 351 1042 334 1104C380 986 403 962 363 1012C455 915 490 894 426 938C564 852 610 831 524 873C680 870 705 890 648 850C750 933 765 957 730 910C790 1008 796 1037 779 981C805 1099 805 1135 802 1066z" />
      <glyph unicode="9" horiz-adv-x="1145" d="M467 90C795 291 809 702 693 90C777 666 757 650 794 684C715 618 690 605 737 633C637 582 607 574 665 592C544 563 508 563 577 566C394 571 344 589 448 563C252 632 216 667 294 606C153 745 133 797 180 701C104 909 104 979 113 849C114 1120 134 1182 104 1053C182 1297 220 1341 154 1244C304 1420 358 1445 258 1385C474 1483 543 1483 412 1470C676 1469 734 1443 612 1483C842 1375 885 1319 792 1416C960 1191 984 1105 927 1263C1020 915 1020 795 1008 1018C1015 653 1006 585 1020 723C983 452 964 392 997 517C921 275 891 225 945 331C826 130 785 93 861 174C697 27 644 7 744 56C531 -23 465 -23 590 -12C358 -17 320 -7 407 -23C251 16 229 33 282 2C191 68 182 90 207 49C168 132 168 154 172 111C198 241 229 252 168 204C249 210 263 190 238 230C293 153 313 138 277 170C355 111 381 103 333 123C435 90 467 90 406 94zM553 684C616 689 644 698 586 684C696 719 718 734 672 707C757 767 773 787 739 749C801 828 811 850 789 807L811 854C802 1021 789 1086 809 944C757 1205 734 1247 775 1151C682 1320 650 1340 710 1289C582 1370 543 1370 618 1360C315 1240 315 999 397 1370C320 895 330 855 315 943C355 782 375 757 340 815C419 713 449 701 395 731C513 684 553 684 479 689z" />
      <glyph unicode=":" horiz-adv-x="676" d="M205 154C205 164 206 169 205 159C207 179 208 184 206 174C210 193 212 198 209 188C216 207 218 211 214 202C222 220 225 224 220 215C230 232 233 236 227 228C240 244 244 248 236 240C378 299 432 249 296 300C470 189 470 153 457 221C457 86 431 60 470 117C373 21 337 21 405 34C270 34 244 60 301 21C205 117 205 154 218 86zM244 780C205 837 205 873 218 806C218 941 244 967 205 909C301 1007 337 1007 270 993C405 994 432 969 373 1007C470 910 470 874 457 941C457 806 431 780 470 836C374 741 338 741 405 754C313 742 303 745 325 741C282 752 272 758 292 748C252 771 244 780 262 764zM432 249C432 248 432 248 432 249L432 249zM432 969C432 968 432 968 432 969L432 969z" />
      <glyph unicode=";" horiz-adv-x="586" d="M434 86C428 0 416 -40 434 42C384 -118 357 -153 404 -80C295 -218 253 -246 330 -187C159 -297 98 -315 211 -274L98 -229C293 -125 293 -45 232 -186C289 -20 282 -11 293 -31C265 5 254 12 274 -2C230 26 218 33 242 19C193 47 182 57 205 39C161 77 154 91 170 66C143 122 143 143 146 105C201 264 277 264 143 221C318 260 337 252 298 264C372 233 387 218 355 244C413 184 421 162 401 203C434 114 434 86 429 140zM166 969C169 1017 176 1035 166 995C191 1067 203 1078 182 1053C228 1096 244 1101 215 1088C277 1108 295 1108 260 1105C328 1105 344 1101 312 1108C373 1088 385 1078 360 1096C406 1053 413 1035 397 1067C424 995 424 969 420 1017C420 921 413 903 424 943C397 870 385 859 406 885C360 840 344 836 373 848C312 829 295 829 328 831C260 831 244 836 277 829C215 848 203 859 228 840C182 885 176 903 191 870C166 943 166 969 169 921z" />
      <glyph unicode="&#60;" horiz-adv-x="1145" d="M133 696L133 768L1012 1241L1012 1104L324 731L1012 362L1012 225z" />
      <glyph unicode="=" horiz-adv-x="1145" d="M1012 590L1012 469L133 469L133 590zM1012 993L1012 872L133 872L133 993z" />
      <glyph unicode="&#62;" horiz-adv-x="1145" d="M133 225L133 362L821 731L133 1104L133 1241L1012 768L1012 696z" />
      <glyph unicode="?" horiz-adv-x="1024" d="M522 412L397 412L397 723C506 774 546 806 456 747C619 872 643 909 586 838C685 985 695 1025 667 946C711 1106 711 1147 705 1065C706 1214 698 1243 711 1182C676 1297 658 1317 689 1272C616 1353 588 1365 640 1337C526 1382 487 1382 560 1376C408 1375 379 1361 444 1382C327 1328 309 1304 350 1347C278 1252 270 1220 291 1280C258 1155 258 1120 262 1188C210 1122 190 1128 233 1120C151 1142 136 1153 169 1134C109 1178 101 1195 121 1164C88 1231 88 1253 92 1211C95 1316 110 1344 88 1285C148 1396 180 1417 125 1372C252 1453 300 1465 212 1437C405 1483 471 1483 348 1477C595 1474 650 1458 535 1483C752 1417 792 1385 704 1441C863 1315 886 1269 832 1353C920 1170 920 1112 908 1223C911 1005 893 959 920 1056C850 871 816 833 875 913C740 760 691 729 782 795C585 669 522 643 641 697zM328 125C331 173 338 191 328 151C353 223 365 234 344 209C390 252 406 257 377 244C439 264 457 264 422 261C490 261 506 257 474 264C535 244 547 234 522 252C568 209 575 191 559 223C586 151 586 125 582 173C582 77 575 59 586 99C559 26 547 16 568 41C522 -2 506 -7 535 5C474 -14 457 -14 490 -11C422 -11 406 -7 439 -14C377 5 365 16 390 -2C344 41 338 59 353 26C328 99 328 125 331 77z" />
      <glyph unicode="@" horiz-adv-x="1886" d="M1778 803C1766 615 1742 535 1778 704C1686 388 1648 332 1718 455C1566 233 1518 203 1609 276C1423 158 1376 158 1470 173C1173 226 1135 344 1254 158L1124 344C1094 292 1076 270 1110 317C1038 227 1016 211 1058 247C969 181 941 172 994 194C882 158 848 158 913 162C767 165 729 179 806 158C658 214 630 243 691 193C579 308 562 352 602 271C537 448 537 508 545 396C541 584 549 627 537 544C570 712 588 754 557 669C628 837 656 877 606 796C717 952 756 982 684 917C839 1037 889 1055 794 1012C996 1083 1059 1083 939 1073C1209 1055 1251 1022 1147 1083L1333 1065L1382 1065L1278 543C1273 511 1271 495 1276 527C1264 434 1264 406 1267 468C1267 361 1274 343 1264 382C1290 311 1302 299 1281 325C1326 279 1341 274 1313 287C1372 266 1389 266 1356 268C1449 278 1481 302 1419 266C1540 361 1566 407 1512 326C1612 510 1628 578 1591 453C1653 722 1653 809 1644 645C1638 977 1610 1045 1653 898C1541 1171 1490 1217 1581 1113C1378 1298 1307 1322 1439 1263C1158 1358 1073 1358 1236 1346C940 1348 876 1330 1006 1358C751 1283 694 1247 812 1311C583 1166 534 1114 636 1211C443 1002 408 935 485 1062C345 794 325 713 372 868C295 544 295 451 305 631C311 239 344 159 295 337C420 13 476 -37 376 79C596 -125 670 -149 532 -88C822 -184 905 -184 744 -172C1014 -179 1064 -169 961 -184C1160 -147 1204 -131 1114 -159C1288 -96 1325 -76 1248 -115C1395 -35 1425 -14 1362 -56L1473 -88C1401 -138 1359 -162 1439 -113C1271 -208 1222 -227 1317 -186C1120 -261 1064 -273 1173 -246C948 -291 885 -291 1008 -285C674 -275 582 -245 775 -291C410 -169 344 -108 490 -215C226 30 189 122 278 -46C133 322 133 446 151 214C143 634 164 722 133 542C215 891 255 967 185 810C343 1110 399 1171 295 1042C519 1284 590 1327 455 1232C737 1403 820 1427 660 1370C991 1462 1085 1462 903 1450C1300 1445 1387 1411 1199 1462C1546 1330 1604 1271 1473 1377C1705 1142 1734 1062 1662 1212C1778 895 1778 803 1763 982zM727 479C791 266 883 266 727 335C947 273 973 288 917 266C1019 323 1037 347 998 303C1068 398 1079 429 1054 371C1098 490 1104 522 1089 459L1182 938C1116 999 1067 999 1164 976C989 990 956 972 1026 999C894 931 869 903 923 954C823 841 805 804 844 874C772 729 760 691 787 767C740 614 735 578 748 652C727 508 727 479 729 541z" />
      <glyph unicode="A" horiz-adv-x="1444" d="M414 489L336 274C317 208 317 186 324 242C361 86 453 86 317 116L500 86L500 0L0 0L0 86L39 86C76 88 90 92 59 86C116 105 128 117 104 96C150 145 160 166 139 129C182 213 195 246 170 186L649 1462L809 1462L1272 195C1288 156 1296 142 1280 173C1314 116 1326 108 1304 128C1350 94 1365 91 1337 100C1397 86 1417 86 1379 87L1444 86L1444 0L881 0L881 86L928 86C1051 118 1051 184 1010 86C1044 229 1034 260 1051 206L952 489zM788 950C708 1175 686 1274 745 1071C675 1225 669 1202 681 1249C656 1156 649 1132 663 1179C633 1082 624 1056 641 1108C604 1001 592 969 614 1030L453 592L915 592z" />
      <glyph unicode="B" horiz-adv-x="1339" d="M1153 1096C1146 1009 1133 975 1153 1050C1102 910 1080 884 1120 940C1030 836 999 818 1057 858C935 786 899 774 968 800L899 766C988 744 1027 725 945 758C1098 680 1126 649 1065 705C1175 581 1191 539 1154 618C1214 449 1214 395 1206 497C1042 0 688 0 1214 131L78 0L78 86L104 86C149 87 169 91 127 86C207 101 223 111 189 94C250 136 259 156 238 121C272 201 272 233 267 175L272 1237C267 1291 258 1309 272 1267C237 1342 222 1352 249 1327C188 1368 168 1371 206 1362C126 1376 104 1376 148 1374L78 1376L78 1462L627 1462C1153 1348 1153 1096 981 1462zM479 102L678 102C785 107 825 118 736 102C897 145 923 169 865 128C966 224 978 262 948 193C995 346 995 401 989 300C990 500 980 540 995 454C952 612 928 638 970 579C872 683 832 696 904 664C742 715 682 715 792 708L479 715zM479 817L621 817C731 822 771 833 681 817C843 860 867 882 811 843C908 933 918 969 891 904C934 1046 934 1096 928 1004C928 1187 917 1221 934 1146C887 1282 862 1303 905 1255C803 1338 763 1347 836 1323C674 1360 616 1360 723 1355L479 1360z" />
      <glyph unicode="C" horiz-adv-x="1257" d="M774 1483C904 1477 956 1465 844 1483C1051 1437 1085 1417 1008 1453C1145 1372 1162 1344 1119 1396C1188 1285 1188 1253 1179 1316C1183 1211 1174 1193 1188 1231C1153 1160 1137 1148 1165 1175C1102 1126 1080 1120 1121 1136C1035 1110 1010 1110 1058 1113C1005 1173 997 1205 1010 1142C975 1264 956 1289 989 1236C912 1334 882 1350 937 1314C814 1374 770 1374 852 1366C627 1359 573 1331 692 1374C475 1261 441 1207 519 1303C382 1086 367 1006 407 1153C344 835 344 733 351 926C352 558 368 482 344 641C409 340 444 286 384 406C522 190 576 160 478 232C694 115 770 115 630 130C864 119 902 129 820 115C974 152 1004 168 940 139C1059 202 1081 223 1033 184C1123 266 1141 289 1103 244C1180 250 1180 209 1163 274C1171 156 1153 129 1180 183C1109 78 1073 56 1135 102C991 15 936 1 1037 34C815 -20 739 -20 880 -12C547 -2 470 34 637 -20C327 121 275 187 392 70C183 332 157 425 223 253C117 620 117 733 130 517C131 945 159 1037 117 843C228 1208 283 1274 187 1129C407 1391 489 1428 338 1340C666 1483 774 1483 571 1464z" />
      <glyph unicode="D" horiz-adv-x="1489" d="M1372 733C1358 519 1330 429 1372 621C1260 262 1205 198 1302 339C1080 85 997 51 1149 134C816 0 705 0 913 17L78 0L78 86L104 86C149 87 169 91 127 86C207 101 223 111 189 94C250 136 259 156 238 121C272 201 272 233 267 175L272 1237C267 1291 258 1309 272 1267C237 1342 222 1352 249 1327C188 1368 168 1371 206 1362C126 1376 104 1376 148 1374L78 1376L78 1462L705 1462C904 1445 987 1413 810 1462C1139 1334 1196 1272 1069 1381C1297 1133 1327 1043 1253 1210C1372 849 1372 733 1357 952zM657 104C809 117 870 145 738 104C982 213 1023 267 931 173C1094 386 1114 464 1063 320C1145 631 1145 733 1134 542C983 1360 659 1360 1145 1139L479 1360L479 104z" />
      <glyph unicode="E" horiz-adv-x="1276" d="M479 102L874 102C934 106 957 115 906 102C999 136 1015 152 980 124C1042 185 1051 205 1030 167C1065 247 1069 270 1059 225L1083 358L1190 358L1176 0L78 0L78 86L104 86C148 87 168 90 126 86C206 99 222 109 188 93C249 132 258 150 237 118C272 193 272 223 267 168L272 1229C267 1286 259 1306 272 1261C238 1340 223 1350 250 1325C189 1367 169 1371 207 1360C127 1376 104 1376 149 1374L78 1376L78 1462L1110 1462L1120 1104L1014 1104L1004 1192C996 1236 988 1256 1001 1214C969 1294 955 1310 980 1276C923 1337 901 1346 941 1325C853 1360 823 1360 879 1355L479 1360L479 815L973 815L973 715L479 715z" />
      <glyph unicode="F" horiz-adv-x="1208" d="M479 1360L479 768L973 768L973 668L479 668L479 233C483 175 492 156 479 201C513 121 528 111 501 136C561 94 582 91 543 101C624 86 647 86 602 87L715 86L715 0L78 0L78 86L104 86C148 87 168 90 126 86C206 99 222 109 188 93C249 132 258 150 237 118C272 193 272 223 267 168L272 1237C267 1291 258 1309 272 1267C237 1342 222 1352 249 1327C188 1368 168 1371 206 1362C126 1376 104 1376 148 1374L78 1376L78 1462L1110 1462L1120 1104L1014 1104L1004 1192C996 1237 988 1257 1001 1215C968 1295 953 1310 980 1277C919 1337 897 1346 938 1325C847 1360 815 1360 874 1355z" />
      <glyph unicode="G" horiz-adv-x="1462" d="M821 -20C598 -2 510 34 702 -20C348 121 290 187 422 70C188 332 160 425 232 253C117 620 117 733 131 517C132 945 162 1037 117 843C238 1208 298 1274 192 1129C433 1391 523 1428 358 1340C716 1483 834 1483 612 1464C976 1477 1032 1465 910 1483C1135 1437 1173 1417 1088 1453C1239 1372 1258 1344 1211 1396C1286 1285 1286 1253 1276 1316C1281 1211 1271 1193 1286 1231C1247 1160 1230 1148 1261 1175C1193 1126 1170 1120 1213 1136C1122 1110 1096 1110 1147 1113C1091 1173 1082 1205 1096 1142C1057 1264 1036 1289 1072 1236C986 1334 952 1350 1014 1314C875 1374 825 1374 917 1366C664 1359 603 1331 738 1374C492 1261 454 1207 542 1303C387 1086 370 1006 415 1153C344 835 344 733 352 926C353 540 371 461 344 631C418 315 459 261 389 381C552 166 617 138 499 207C760 96 854 96 681 110C1009 103 1067 121 932 96L1067 451C1062 505 1053 523 1067 481C1032 555 1017 565 1044 541C983 581 963 585 1001 575C921 590 899 590 943 588L891 590L891 676L1423 676L1423 590L1415 590C1377 588 1360 585 1395 590C1327 574 1315 564 1342 581C1292 539 1285 519 1302 554C1274 474 1274 442 1277 499L1274 74C997 -20 821 -20 1136 10z" />
      <glyph unicode="H" horiz-adv-x="1624" d="M950 0L950 86L977 86C1022 87 1042 91 1000 86C1080 101 1095 111 1062 94C1122 136 1131 156 1110 121C1145 201 1145 233 1140 175L1145 713L479 713L479 233C483 175 492 156 479 201C513 121 528 111 501 136C561 94 582 91 543 101C624 86 647 86 602 87L674 86L674 0L78 0L78 86L104 86C149 87 169 91 127 86C207 101 223 111 189 94C250 136 259 156 238 121C272 201 272 233 267 175L272 1237C267 1291 258 1309 272 1267C237 1342 222 1352 249 1327C188 1368 168 1371 206 1362C126 1376 104 1376 148 1374L78 1376L78 1462L674 1462L674 1376L647 1376C602 1374 582 1371 624 1376C543 1360 528 1350 561 1367C501 1325 492 1306 513 1340C479 1261 479 1229 483 1286L479 815L1145 815L1145 1229C1140 1286 1131 1306 1145 1261C1110 1340 1095 1350 1122 1325C1062 1367 1042 1371 1080 1360C1000 1376 977 1376 1022 1374L950 1376L950 1462L1546 1462L1546 1376L1520 1376C1474 1374 1454 1371 1496 1376C1416 1360 1401 1350 1434 1367C1373 1325 1365 1306 1385 1340C1352 1261 1352 1229 1356 1286L1352 223C1356 168 1365 150 1352 193C1386 118 1402 109 1374 132C1435 93 1455 90 1417 99C1497 86 1520 86 1475 87L1546 86L1546 0z" />
      <glyph unicode="I" horiz-adv-x="752" d="M78 0L78 86L104 86C149 87 169 91 127 86C207 101 223 111 189 94C250 136 259 156 238 121C272 201 272 233 267 175L272 1229C267 1286 259 1306 272 1261C238 1340 223 1350 250 1325C189 1367 169 1371 207 1360C127 1376 104 1376 149 1374L78 1376L78 1462L674 1462L674 1376L647 1376C602 1374 582 1371 624 1376C543 1360 528 1350 561 1367C501 1325 492 1306 513 1340C479 1261 479 1229 483 1286L479 233C483 175 492 156 479 201C513 121 528 111 501 136C561 94 582 91 543 101C624 86 647 86 602 87L674 86L674 0z" />
      <glyph unicode="J" horiz-adv-x="731" d="M-23 -395L-4 -395C79 -388 113 -376 40 -395C176 -343 200 -314 147 -364C241 -246 253 -198 223 -285C272 -90 272 -18 265 -150L272 1237C267 1291 258 1309 272 1267C237 1342 222 1352 249 1327C188 1368 168 1371 206 1362C126 1376 104 1376 148 1374L78 1376L78 1462L674 1462L674 1376L647 1376C602 1374 582 1371 624 1376C543 1360 528 1350 561 1367C501 1325 492 1306 513 1340C479 1261 479 1229 483 1286L479 -16C467 -184 443 -245 479 -108C386 -355 344 -391 419 -306C252 -453 195 -469 302 -427C77 -492 12 -492 138 -484L-23 -492z" />
      <glyph unicode="K" horiz-adv-x="1434" d="M903 1137C943 1184 958 1204 925 1162C984 1242 992 1258 972 1224C1006 1288 1010 1300 1000 1274C1016 1323 1016 1333 1014 1312C983 1378 915 1378 1016 1367L915 1462L1368 1462L1368 1378C1322 1373 1300 1364 1344 1378C1257 1342 1235 1326 1278 1355C1191 1290 1168 1266 1213 1310C1120 1216 1094 1186 1145 1242L797 852L1229 250C1378 86 1454 86 1307 142L1458 86L1458 0L1436 0C1311 2 1267 8 1367 0C1186 23 1156 37 1223 13C1099 69 1077 93 1126 51C1031 147 1006 184 1055 117L653 690L479 549L479 233C483 175 492 156 479 201C513 121 528 111 501 136C561 94 582 91 543 101C624 86 647 86 602 87L674 86L674 0L78 0L78 86L104 86C148 87 168 90 126 86C206 99 222 109 188 93C249 132 258 150 237 118C272 193 272 223 267 168L272 1237C267 1291 258 1309 272 1267C237 1342 222 1352 249 1327C188 1368 168 1371 206 1362C126 1376 104 1376 148 1374L78 1376L78 1462L674 1462L674 1376L647 1376C602 1374 582 1371 624 1376C543 1360 528 1350 561 1367C501 1325 492 1306 513 1340C479 1261 479 1229 483 1286L479 651z" />
      <glyph unicode="L" horiz-adv-x="1276" d="M78 0L78 86L104 86C149 87 169 91 127 86C207 101 223 111 189 94C250 136 259 156 238 121C272 201 272 233 267 175L272 1229C267 1286 259 1306 272 1261C238 1340 223 1350 250 1325C189 1367 169 1371 207 1360C127 1376 104 1376 149 1374L78 1376L78 1462L674 1462L674 1376L647 1376C602 1374 582 1371 624 1376C544 1362 529 1352 562 1368C501 1327 492 1309 513 1342C479 1267 479 1237 483 1291L479 102L883 102C939 107 961 118 913 102C1001 143 1015 161 983 129C1039 199 1047 221 1029 179C1060 265 1063 287 1055 243L1083 440L1190 440L1176 0z" />
      <glyph unicode="M" horiz-adv-x="1921" d="M1298 0L1298 86L1305 86C1346 87 1364 90 1327 86C1397 99 1409 108 1382 93C1431 130 1439 147 1421 117C1450 187 1452 215 1446 164L1452 1309L983 0L872 0L397 1305L397 233C400 175 407 156 397 201C423 121 436 111 413 136C465 94 483 91 449 101C522 86 545 86 501 87L551 86L551 0L78 0L78 86L104 86C148 87 168 90 126 86C206 99 222 109 188 93C249 132 258 150 237 118C272 193 272 223 267 168L272 1237C267 1291 258 1309 272 1267C237 1342 222 1352 249 1327C188 1368 168 1371 206 1362C126 1376 104 1376 148 1374L78 1376L78 1462L545 1462L969 291L1389 1462L1843 1462L1843 1376L1817 1376C1771 1374 1751 1371 1793 1376C1713 1360 1698 1350 1731 1367C1670 1325 1662 1306 1682 1340C1649 1261 1649 1229 1653 1286L1649 233C1653 175 1662 156 1649 201C1682 121 1698 111 1670 136C1731 94 1751 91 1713 101C1793 86 1817 86 1771 87L1843 86L1843 0z" />
      <glyph unicode="N" horiz-adv-x="1563" d="M1165 0L397 1180L397 233C401 175 410 156 397 201C431 121 446 111 419 136C479 94 500 91 461 101C542 86 565 86 520 87L592 86L592 0L78 0L78 86L104 86C149 87 169 91 127 86C207 101 223 111 189 94C250 136 259 156 238 121C272 201 272 233 267 175L272 1237C267 1291 258 1309 272 1267C237 1342 222 1352 249 1327C188 1368 168 1371 206 1362C126 1376 104 1376 148 1374L78 1376L78 1462L453 1462L1186 330L1186 1237C1181 1291 1172 1309 1186 1267C1151 1342 1136 1352 1163 1327C1102 1368 1082 1371 1120 1362C1040 1376 1018 1376 1062 1374L991 1376L991 1462L1505 1462L1505 1376L1479 1376C1433 1374 1413 1371 1455 1376C1375 1360 1360 1350 1393 1367C1332 1325 1324 1306 1344 1340C1311 1261 1311 1229 1315 1286L1311 0z" />
      <glyph unicode="O" horiz-adv-x="1520" d="M1403 733C1389 517 1361 425 1403 620C1291 253 1237 187 1333 332C1115 70 1035 34 1182 121C863 -20 760 -20 955 -2C556 -2 476 34 651 -20C328 121 275 187 395 70C181 332 155 425 221 253C115 621 115 735 128 518C128 951 155 1043 115 848C221 1214 275 1280 181 1135C395 1395 477 1431 328 1345C653 1485 762 1485 558 1467C956 1467 1036 1431 865 1485C1182 1345 1237 1279 1115 1395C1333 1134 1361 1042 1291 1213C1403 847 1403 733 1389 950zM342 733C349 541 364 461 342 631C403 314 437 259 379 381C513 162 566 133 470 204C684 90 760 90 619 104C900 104 953 133 836 90C1049 204 1082 259 1006 162C1139 381 1154 461 1115 314C1176 631 1176 733 1168 541C1168 924 1154 1004 1176 834C1115 1151 1082 1206 1139 1084C1006 1302 954 1331 1049 1260C838 1374 762 1374 902 1359C621 1359 568 1331 686 1374C471 1260 437 1206 514 1302C379 1084 364 1004 403 1151C342 834 342 733 349 924z" />
      <glyph unicode="P" horiz-adv-x="1237" d="M78 0L78 86L104 86C149 87 169 91 127 86C207 101 223 111 189 94C250 136 259 156 238 121C272 201 272 233 267 175L272 1237C267 1291 258 1309 272 1267C237 1342 222 1352 249 1327C188 1368 168 1371 206 1362C126 1376 104 1376 148 1374L78 1376L78 1462L653 1462C813 1452 877 1432 739 1462C992 1384 1034 1347 940 1412C1106 1265 1126 1213 1075 1310C1157 1100 1157 1034 1146 1160C1147 915 1128 859 1157 973C1078 753 1035 710 1109 803C935 633 865 607 991 667C709 569 608 569 795 581L479 569L479 223C483 168 492 150 479 193C513 118 529 109 501 132C562 93 582 90 544 99C624 86 647 86 602 87L715 86L715 0zM479 666L588 666C703 672 747 685 650 666C827 719 855 748 791 698C903 814 916 860 883 777C936 961 936 1026 929 906C930 1133 919 1175 936 1083C889 1253 864 1281 907 1217C805 1329 765 1343 838 1309C676 1364 618 1364 725 1357L479 1364z" />
      <glyph unicode="Q" horiz-adv-x="1520" d="M1403 733C1392 541 1370 457 1403 633C1315 299 1272 235 1348 373C1176 118 1113 76 1229 171C978 6 897 -8 1050 34C914 -136 931 -183 903 -78C969 -268 995 -296 947 -230C1051 -345 1086 -357 1021 -324C1158 -375 1200 -375 1120 -369L1233 -375L1233 -471L1145 -471C1037 -463 983 -449 1091 -471C881 -410 837 -375 929 -435C756 -293 726 -235 793 -340C678 -104 672 -16 696 -177C496 18 426 58 578 -6C299 150 253 215 356 98C172 356 149 444 207 280C115 629 115 735 126 532C128 951 155 1043 115 848C221 1214 275 1280 181 1135C395 1395 477 1431 328 1345C653 1485 762 1485 558 1467C956 1467 1036 1431 865 1485C1182 1345 1237 1279 1115 1395C1333 1134 1361 1042 1291 1213C1403 847 1403 733 1389 950zM342 733C349 541 364 461 342 631C403 314 437 259 379 381C513 162 566 133 470 204C684 90 760 90 619 104C900 104 953 133 836 90C1049 204 1082 259 1006 162C1139 381 1154 461 1115 314C1176 631 1176 733 1168 541C1168 924 1154 1004 1176 834C1115 1151 1082 1206 1139 1084C1006 1302 954 1331 1049 1260C838 1374 762 1374 902 1359C621 1359 568 1331 686 1374C471 1260 437 1206 514 1302C379 1084 364 1004 403 1151C342 834 342 733 349 924z" />
      <glyph unicode="R" horiz-adv-x="1343" d="M1135 250C1263 86 1350 86 1204 140L1356 86L1356 0L1327 0C1210 2 1169 7 1263 0C1093 20 1065 34 1128 11C1011 66 991 90 1036 47C949 145 926 184 971 114L649 645L479 645L479 223C483 168 492 150 479 193C513 118 529 109 501 132C562 93 582 90 544 99C624 86 647 86 602 87L674 86L674 0L78 0L78 86L104 86C148 87 168 90 126 86C206 99 222 109 188 93C249 132 258 150 237 118C272 193 272 223 267 168L272 1237C267 1291 258 1309 272 1267C237 1342 222 1352 249 1327C188 1368 168 1371 206 1362C126 1376 104 1376 148 1374L78 1376L78 1462L629 1462C1155 1331 1155 1067 983 1462C1146 964 1128 923 1155 1012C1087 847 1059 817 1110 882C998 762 962 742 1030 787C890 706 854 694 926 722zM479 741L623 741C733 747 773 761 683 741C845 794 869 821 813 774C910 881 920 921 893 847C936 1007 936 1061 930 961C930 1162 919 1200 936 1115C889 1270 864 1294 907 1238C805 1336 765 1347 838 1318C676 1364 618 1364 725 1358L479 1364z" />
      <glyph unicode="S" horiz-adv-x="1114" d="M506 -20C380 -13 329 1 439 -20C235 34 201 59 278 15C141 114 124 150 167 84C98 225 98 268 106 186C151 406 246 406 98 350C254 322 265 283 248 363C293 209 315 179 276 243C365 125 399 107 337 149C474 80 522 80 433 89C815 171 815 338 706 80C809 408 799 437 815 375C770 492 746 516 788 465C688 564 648 586 721 540C558 632 498 657 608 608C379 710 332 740 434 683C245 803 214 839 284 770C159 916 144 961 182 875C121 1056 121 1112 128 1005C132 1223 154 1269 121 1170C208 1353 248 1385 176 1315C335 1441 390 1458 288 1417C504 1483 569 1483 444 1474C684 1476 732 1464 630 1483C819 1434 852 1413 779 1451C909 1367 926 1339 884 1391C952 1283 952 1253 943 1311C889 1120 791 1120 952 1165C787 1183 779 1214 791 1152C759 1273 741 1297 771 1245C699 1341 670 1357 723 1321C604 1380 561 1380 640 1372C486 1374 455 1363 521 1380C398 1336 377 1316 424 1352C339 1271 328 1243 355 1296C311 1182 311 1147 316 1214C316 1070 327 1039 311 1106C355 980 380 955 337 1008C438 906 479 884 405 930C569 839 629 815 519 862C742 764 789 737 689 790C876 679 909 645 836 709C966 574 984 532 941 611C1010 443 1010 391 1001 490C998 268 974 217 1010 326C917 123 873 88 950 166C776 25 714 7 829 52C582 -20 506 -20 652 -10z" />
      <glyph unicode="T" horiz-adv-x="1255" d="M729 233C733 175 742 156 729 201C763 121 778 111 751 136C811 94 832 91 793 101C874 86 897 86 852 87L944 86L944 0L307 0L307 86L354 86C398 87 418 90 376 86C456 99 472 109 438 93C499 132 508 150 487 118C522 193 522 223 517 168L522 1360L326 1360C270 1355 250 1346 296 1360C213 1325 200 1310 230 1337C177 1276 171 1256 187 1294C160 1214 158 1192 165 1236L147 1104L41 1104L51 1462L1204 1462L1214 1104L1108 1104L1098 1192C1090 1236 1084 1256 1095 1214C1067 1294 1055 1310 1077 1276C1025 1337 1005 1346 1042 1325C958 1360 928 1360 984 1355L729 1360z" />
      <glyph unicode="U" horiz-adv-x="1468" d="M741 -20C588 -11 524 5 660 -20C405 49 361 86 460 22C283 171 260 229 317 123C225 358 225 442 236 287L225 1237C220 1291 211 1309 225 1267C190 1342 175 1352 202 1327C141 1368 121 1371 159 1362C79 1376 57 1376 101 1374L31 1376L31 1462L627 1462L627 1376L600 1376C555 1374 535 1371 577 1376C496 1360 481 1350 514 1367C454 1325 445 1306 466 1340C432 1261 432 1229 436 1286L432 430C440 320 457 278 432 370C498 203 528 177 474 236C594 132 636 120 558 151C724 102 774 102 678 108C884 110 927 126 833 102C1006 164 1034 192 970 142C1083 254 1097 293 1062 220C1118 375 1118 422 1111 332L1118 1237C1113 1291 1104 1309 1118 1267C1083 1342 1068 1352 1095 1327C1034 1368 1014 1371 1052 1362C972 1376 950 1376 994 1374L924 1376L924 1462L1438 1462L1438 1376L1411 1376C1366 1374 1346 1371 1388 1376C1307 1360 1292 1350 1325 1367C1265 1325 1256 1306 1277 1340C1243 1261 1243 1229 1247 1286L1243 418C1232 288 1210 234 1243 350C1156 134 1114 96 1188 180C1019 30 957 10 1072 58C822 -20 741 -20 894 -10z" />
      <glyph unicode="V" horiz-adv-x="1382" d="M614 0L172 1268C156 1307 148 1321 164 1289C129 1346 118 1354 139 1335C93 1367 79 1371 106 1362C47 1376 27 1376 64 1374L0 1376L0 1462L563 1462L563 1376L516 1376C393 1346 393 1278 433 1376C399 1232 410 1202 393 1255L635 537C704 299 727 201 676 415C775 409 821 537 748 299L1047 1188C1065 1253 1065 1276 1057 1221C1020 1376 930 1376 1065 1346L883 1376L883 1462L1382 1462L1382 1376L1343 1376C1305 1374 1291 1370 1323 1376C1264 1358 1252 1346 1277 1366C1230 1318 1220 1298 1240 1334C1199 1250 1188 1217 1210 1277L764 0z" />
      <glyph unicode="W" horiz-adv-x="2144" d="M1180 1448L1436 561C1505 295 1524 201 1474 425C1568 405 1606 537 1544 299L1786 1169C1790 1186 1793 1196 1788 1177C1798 1216 1800 1226 1795 1206C1803 1245 1805 1254 1802 1236C1808 1270 1808 1276 1807 1262C1763 1376 1673 1376 1808 1346L1626 1376L1626 1462L2126 1462L2126 1376L2087 1376C2049 1374 2034 1370 2067 1376C2006 1358 1994 1347 2019 1366C1971 1319 1961 1299 1982 1335C1941 1251 1931 1217 1951 1278L1585 0L1401 0L1067 1147L754 0L565 0L190 1268C175 1307 167 1321 183 1289C149 1346 138 1354 159 1335C113 1367 98 1371 126 1362C65 1376 45 1376 82 1374L18 1376L18 1462L582 1462L582 1376L535 1376C412 1346 412 1278 452 1376C420 1232 428 1202 412 1255L616 547C682 299 705 201 650 423C752 437 788 569 725 307L1032 1448z" />
      <glyph unicode="X" horiz-adv-x="1352" d="M954 1317C951 1338 945 1346 954 1329C932 1360 922 1364 939 1354C901 1371 888 1373 912 1368C860 1376 844 1376 874 1375L838 1376L838 1462L1286 1462L1286 1376L1268 1376C1229 1373 1213 1369 1248 1376C1181 1356 1166 1344 1197 1364C1134 1317 1118 1299 1150 1332C1084 1257 1065 1229 1102 1280L768 801L1145 195C1257 86 1309 86 1205 115L1335 86L1335 0L782 0L782 86L793 86C915 108 915 154 874 86C914 168 912 176 915 161C907 192 903 202 910 183C891 224 882 239 898 212C862 272 848 295 873 253L645 621L418 285C406 266 400 255 412 276C388 233 383 221 394 244C373 196 370 184 377 209C365 160 365 150 366 172C407 86 498 86 365 103L504 86L504 0L16 0L16 86L29 86C75 88 93 93 53 86C128 106 144 118 111 98C175 144 191 162 160 129C223 202 242 229 206 180L584 719L246 1268C131 1376 70 1376 196 1346L43 1376L43 1462L598 1462L598 1376L592 1376C549 1374 534 1371 568 1376C506 1364 498 1359 518 1368C483 1347 480 1340 489 1353C475 1325 475 1317 476 1332C475 1302 476 1296 475 1309C479 1281 483 1272 477 1289C491 1253 497 1241 486 1263C512 1214 524 1196 503 1229L709 897L903 1192C954 1279 954 1317 933 1238z" />
      <glyph unicode="Y" horiz-adv-x="1280" d="M326 0L326 86L373 86C417 87 437 90 395 86C475 99 491 109 457 93C518 132 527 150 506 118C541 193 541 223 536 168L541 610L162 1268C140 1303 130 1317 150 1287C109 1342 98 1351 120 1331C75 1366 62 1370 87 1359C33 1376 16 1376 48 1374L-10 1376L-10 1462L553 1462L553 1376L477 1376C443 1374 431 1371 458 1376C410 1363 404 1357 419 1367C392 1344 390 1336 397 1351C387 1319 387 1311 388 1328C408 1231 424 1202 387 1272L575 928C655 758 678 694 623 844C691 725 700 743 684 708C719 780 730 800 709 761C753 841 765 863 741 820C789 906 801 928 777 885L932 1163C969 1252 969 1286 958 1209C924 1376 846 1376 969 1346L786 1376L786 1462L1286 1462L1286 1376L1262 1376C1233 1373 1220 1368 1247 1376C1194 1354 1181 1342 1207 1363C1153 1313 1139 1293 1167 1330C1109 1247 1092 1217 1125 1273L748 610L748 233C752 175 761 156 748 201C781 121 797 111 769 136C830 94 850 91 812 101C892 86 915 86 870 87L963 86L963 0z" />
      <glyph unicode="Z" horiz-adv-x="1212" d="M1094 1378L324 102L840 102C896 106 917 115 870 102C954 136 967 152 937 124C989 185 996 205 979 167C1007 247 1010 270 1002 225L1020 358L1126 358L1116 0L74 0L74 82L842 1360L397 1360C341 1355 321 1346 367 1360C284 1325 272 1310 301 1337C249 1276 243 1256 259 1294C231 1214 229 1192 236 1236L219 1104L113 1104L123 1462L1094 1462z" />
      <glyph unicode="[" horiz-adv-x="737" d="M205 -262L205 1556L662 1556L662 1470L573 1470C528 1468 508 1465 550 1470C470 1454 455 1444 488 1461C427 1419 419 1400 439 1434C406 1355 406 1323 410 1380L406 -29C410 -86 419 -106 406 -61C439 -140 455 -150 427 -125C488 -167 508 -171 470 -160C550 -176 573 -176 528 -174L662 -176L662 -262z" />
      <glyph unicode="\" horiz-adv-x="590" d="M0 1556L119 1556L590 -248L469 -248z" />
      <glyph unicode="]" horiz-adv-x="737" d="M76 -262L76 -176L164 -176C209 -174 229 -171 187 -176C267 -160 282 -150 249 -167C309 -125 318 -106 297 -140C332 -61 332 -29 327 -86L332 1323C327 1380 318 1400 332 1355C297 1434 282 1444 309 1419C249 1461 229 1465 267 1454C187 1470 164 1470 209 1468L76 1470L76 1556L532 1556L532 -262z" />
      <glyph unicode="^" horiz-adv-x="1145" d="M535 1462L606 1462L1038 545L901 545L569 1274L242 545L104 545z" />
      <glyph unicode="_" horiz-adv-x="940" d="M950 -291L-10 -291L-10 -170L950 -170z" />
      <glyph unicode="`" horiz-adv-x="1182" d="M791 1241L713 1241C656 1282 624 1310 685 1259C561 1366 531 1396 592 1338C473 1453 449 1480 501 1425C405 1530 393 1548 424 1507L393 1569L612 1569C635 1521 649 1494 622 1546C679 1440 695 1413 663 1467C727 1360 744 1335 711 1386C776 1287 791 1268 760 1309z" />
      <glyph unicode="a" horiz-adv-x="1153" d="M301 297C353 106 467 106 301 169C545 112 579 126 508 106C641 158 665 183 613 139C707 237 720 273 689 207C739 347 739 391 732 308L739 557L608 551C501 541 462 529 550 548C392 501 368 480 423 517C326 433 316 403 344 459C301 337 301 297 306 372zM549 1016C477 1010 453 999 509 1016C410 973 396 953 429 988C373 909 369 882 382 933C362 825 362 793 364 854C188 827 188 922 248 793C197 987 217 1012 188 957C262 1056 296 1072 236 1036C369 1099 414 1107 330 1088C506 1118 557 1118 458 1114C674 1111 721 1099 619 1118C806 1067 838 1039 767 1087C892 974 908 929 869 1011C932 829 932 764 924 884L932 233C934 180 939 162 932 204C951 128 961 117 943 143C984 97 1000 93 971 105C1036 86 1059 86 1016 88L1065 86L1065 0L788 0L756 176L739 176C697 121 677 97 717 147C635 52 611 35 657 73C559 4 529 -5 587 17C462 -20 420 -20 499 -15C332 -13 293 0 374 -20C220 32 192 59 254 12C142 120 126 161 164 86C102 251 102 307 110 202C255 625 569 635 102 524L739 641L739 764C737 834 733 865 739 800C720 923 707 945 729 896C674 985 649 997 693 967C591 1016 549 1016 624 1009z" />
      <glyph unicode="b" horiz-adv-x="1257" d="M1145 551C1135 367 1117 295 1145 452C1072 163 1037 117 1099 223C958 35 906 13 1001 70C794 -20 727 -20 854 -8C652 -15 620 -7 687 -20C559 14 533 30 588 1C485 65 465 87 507 46C428 133 414 160 445 109L401 160L365 0L37 0L37 86L53 86C98 87 118 91 76 86C156 101 171 111 138 94C198 136 207 156 186 121C221 201 221 233 216 175L221 1331C216 1385 207 1403 221 1361C186 1436 171 1446 198 1421C137 1462 117 1465 155 1456C75 1470 53 1470 97 1468L37 1470L37 1556L414 1556L414 1180C412 1068 410 1012 414 1133C407 947 406 913 408 980L414 913C446 972 466 998 429 944C507 1044 533 1062 485 1023C587 1093 619 1103 558 1080C687 1118 727 1118 651 1113C854 1106 906 1084 794 1118C1001 1027 1037 981 958 1062C1099 876 1117 805 1072 935C1145 649 1145 551 1135 733zM692 987C594 978 558 960 638 987C494 916 473 880 522 942C436 798 427 744 451 844C414 625 414 551 418 689C418 416 427 362 414 479C451 261 473 224 436 307C523 158 559 139 495 186C640 111 694 111 595 120C777 120 809 139 739 111C867 186 887 224 841 158C922 307 932 362 907 261C946 481 946 553 941 417C941 689 932 743 946 625C907 843 887 879 922 797C840 942 808 960 867 915C737 987 692 987 776 978z" />
      <glyph unicode="c" horiz-adv-x="1008" d="M580 -20C449 -9 392 11 512 -20C285 65 244 111 334 32C170 214 147 285 202 156C113 442 113 543 124 356C124 743 147 817 113 652C202 950 243 995 170 891C332 1071 388 1090 284 1039C504 1118 569 1118 444 1108C654 1113 696 1105 611 1118C777 1084 811 1067 738 1097C872 1027 894 1001 845 1049C926 944 926 909 915 975C864 780 743 780 926 814C740 842 735 871 743 812C720 924 707 946 729 899C676 985 654 997 694 968C603 1016 569 1016 632 1009C494 1008 462 994 529 1016C403 954 381 918 430 979C341 833 329 773 358 882C311 636 311 545 317 712C401 113 621 113 311 254C846 172 893 256 747 113C928 213 928 176 913 240C920 129 906 106 928 152C869 61 840 43 891 82C775 9 732 -2 811 24C638 -20 580 -20 688 -14z" />
      <glyph unicode="d" horiz-adv-x="1257" d="M1036 225C1040 170 1049 152 1036 195C1070 120 1086 110 1058 134C1119 93 1139 90 1101 100C1181 86 1204 86 1159 87L1221 86L1221 0L874 0L852 184L844 184C811 124 791 99 828 152C749 53 724 35 771 74C670 4 638 -5 698 17C570 -20 530 -20 606 -15C403 -8 351 13 462 -20C255 70 220 116 299 35C158 221 140 293 184 162C113 449 113 547 122 364C122 731 140 803 113 645C184 934 220 981 158 875C299 1062 351 1084 255 1027C462 1118 530 1118 403 1106C605 1113 637 1105 569 1118C697 1084 723 1068 669 1096C772 1033 792 1011 749 1052C829 964 844 938 812 989L856 938C852 1002 850 1032 854 971C844 1139 844 1163 847 1082L844 1331C839 1385 830 1403 844 1361C809 1436 794 1446 821 1421C760 1462 740 1465 778 1456C698 1470 676 1470 720 1468L659 1470L659 1556L1036 1556zM565 111C662 119 698 137 618 111C762 182 784 218 734 155C821 299 830 354 806 254C844 473 844 547 839 408C839 681 830 736 844 618C806 836 784 873 821 790C734 938 698 958 762 910C617 987 563 987 662 977C480 977 448 958 518 987C389 910 369 873 416 938C334 789 325 734 349 835C311 616 311 545 315 679C383 111 565 111 311 254z" />
      <glyph unicode="e" horiz-adv-x="1096" d="M563 1008C329 882 315 645 411 1008L786 645C782 748 774 793 786 699C753 876 736 908 766 837C695 964 667 982 718 940C604 1008 563 1008 639 999zM588 -20C447 -7 388 17 514 -20C279 79 239 127 329 42C167 233 145 303 198 175C113 452 113 541 123 373C276 1118 567 1118 113 923C692 1107 745 1087 633 1118C842 1035 879 994 797 1066C943 902 963 841 915 953C993 709 993 629 983 780L993 535L311 535C319 396 333 342 312 460C366 244 392 210 347 288C449 149 487 133 418 175C567 109 616 109 524 117C684 113 714 121 651 109C772 139 797 153 744 129C843 181 862 198 821 166C897 233 909 252 881 215C948 216 948 182 927 244C940 139 926 115 948 161C889 70 859 50 911 91C791 13 746 0 829 30C648 -20 588 -20 701 -13z" />
      <glyph unicode="f" horiz-adv-x="756" d="M688 86L688 0L55 0L55 86L82 86C127 87 147 91 105 86C185 101 200 111 167 94C227 136 236 156 215 121C250 201 250 233 245 175L250 1001L63 1001L63 1098L250 1098L250 1200C258 1315 275 1362 250 1261C315 1448 347 1480 291 1408C416 1536 461 1552 378 1512C556 1577 612 1577 505 1568C710 1573 747 1566 665 1577C813 1549 835 1537 783 1559C874 1509 884 1492 857 1524C899 1455 899 1434 894 1474C894 1398 886 1384 899 1415C866 1358 851 1348 878 1370C818 1331 798 1326 836 1338C755 1319 731 1319 778 1321C728 1359 724 1379 731 1339C712 1416 702 1432 720 1399C678 1459 661 1469 692 1447C622 1483 596 1483 643 1478C542 1477 522 1466 566 1483C487 1437 475 1415 502 1454C454 1365 449 1333 463 1393C442 1262 442 1219 444 1300L442 1098L731 1098L731 1001L442 1001L442 233C446 175 455 156 442 201C476 121 491 111 464 136C524 94 545 91 506 101C587 86 610 86 565 87z" />
      <glyph unicode="g" horiz-adv-x="1102" d="M1077 1055C1074 1026 1070 1013 1077 1040C1059 989 1051 979 1066 1000C1031 962 1017 956 1042 969C987 948 969 948 1003 950C968 964 966 972 969 956C960 987 955 994 964 980C943 1007 935 1011 950 1001C915 1018 901 1018 926 1015C839 1010 813 993 866 1018C893 862 893 745 859 935C885 647 870 604 893 694C831 524 801 493 854 561C732 437 686 419 771 461C586 393 524 393 640 401C507 393 497 393 516 393C477 394 467 394 487 393C447 395 439 396 457 394C423 398 418 399 430 397C392 385 380 377 404 392C357 360 348 350 368 369C332 328 327 316 339 340C319 289 319 274 321 303C322 244 328 234 319 257C343 216 355 210 334 224C379 201 395 199 366 204C428 197 446 197 411 197L678 197C791 189 834 174 739 197C911 137 938 110 876 158C985 51 997 13 965 83C1016 -65 1016 -109 1009 -24C1005 -220 983 -268 1016 -167C928 -355 884 -388 961 -315C782 -447 714 -465 839 -421C565 -492 473 -492 646 -483C47 -381 47 -193 187 -492C54 -118 68 -88 47 -153C100 -32 124 -11 82 -58C175 27 206 41 148 10C269 64 303 70 236 54C275 84 262 94 289 76C236 116 226 130 248 104C206 160 200 178 215 144C190 216 190 238 193 196C230 374 324 430 190 319C268 458 245 479 294 442C203 524 187 551 222 500C159 608 151 640 171 578C139 705 139 739 143 672C147 851 163 898 139 798C203 984 235 1017 179 944C307 1074 355 1092 267 1049C459 1118 524 1118 403 1109C573 1116 597 1112 548 1118C643 1103 663 1097 621 1108C702 1084 718 1076 683 1091C748 1059 758 1051 734 1068C779 1073 793 1086 768 1061C821 1111 838 1122 806 1099C872 1142 892 1150 854 1133C933 1161 956 1161 912 1157C994 1158 1009 1152 976 1161C1037 1139 1047 1129 1024 1146C1064 1108 1069 1095 1057 1119C1077 1069 1077 1055 1074 1082zM213 -180C217 -238 225 -264 213 -210C247 -312 267 -331 233 -290C314 -364 348 -375 287 -349C425 -391 477 -391 382 -385C610 -384 658 -372 550 -391C744 -343 772 -321 706 -360C819 -272 831 -242 800 -299C848 -179 848 -143 842 -212C843 -85 834 -65 848 -111C812 -29 794 -17 825 -45C755 2 729 7 776 -5C673 14 639 14 703 11L438 14C381 11 354 6 409 14C303 -8 282 -22 327 1C244 -55 232 -81 261 -36C213 -139 213 -180 219 -106zM332 745C386 492 518 492 332 570C579 497 602 507 551 492C644 532 659 553 625 517C684 600 690 632 673 573C700 703 700 748 696 664C649 1018 516 1018 700 932C332 929 332 745 384 1018z" />
      <glyph unicode="h" horiz-adv-x="1300" d="M588 86L588 0L37 0L37 86L53 86C98 87 118 91 76 86C156 101 171 111 138 94C198 136 207 156 186 121C221 201 221 233 216 175L221 1331C216 1385 207 1403 221 1361C186 1436 171 1446 198 1421C137 1462 117 1465 155 1456C75 1470 53 1470 97 1468L37 1470L37 1556L414 1556L414 1106C412 1025 410 991 414 1068C407 951 406 932 408 971L416 932C577 1118 717 1118 477 1056C826 1110 871 1094 775 1118C954 1054 985 1022 916 1078C1039 948 1055 898 1015 990C1079 787 1079 717 1071 847L1079 233C1083 175 1091 156 1079 201C1110 121 1124 111 1099 136C1154 94 1174 91 1138 101C1214 86 1237 86 1193 87L1243 86L1243 0L887 0L887 707C883 791 875 826 887 751C854 890 836 914 867 860C795 956 767 968 818 938C703 987 662 987 738 980C582 979 551 963 619 987C494 925 474 896 520 947C439 832 429 791 454 867C414 705 414 655 419 750L414 223C418 168 427 150 414 193C448 118 464 109 436 132C497 93 517 90 479 99C559 86 582 86 537 87z" />
      <glyph unicode="i" horiz-adv-x="655" d="M74 86C118 87 138 90 96 86C176 99 192 109 158 93C219 132 228 150 207 118C242 193 242 223 237 168L242 872C237 926 228 944 242 902C207 977 192 987 219 962C158 1003 138 1007 176 997C96 1012 74 1012 118 1010L68 1012L68 1098L434 1098L434 233C438 175 447 156 434 201C468 121 483 111 456 136C516 94 537 91 498 101C579 86 602 86 557 87L629 86L629 0L47 0L47 86zM213 1430C216 1474 222 1490 213 1454C236 1519 247 1529 228 1506C270 1546 284 1550 257 1539C313 1556 330 1556 298 1554C361 1554 375 1550 346 1556C401 1539 411 1529 389 1546C430 1506 436 1490 421 1519C446 1454 446 1430 442 1474C442 1386 436 1370 446 1406C421 1341 411 1331 430 1354C389 1313 375 1309 401 1321C346 1303 330 1303 361 1305C298 1305 284 1309 313 1303C257 1321 247 1331 270 1313C228 1354 222 1370 236 1341C213 1406 213 1430 216 1386z" />
      <glyph unicode="j" horiz-adv-x="614" d="M414 1098L414 -16C404 -184 384 -245 414 -108C336 -355 300 -391 364 -306C221 -453 171 -469 264 -427C67 -492 8 -492 121 -484L-25 -492L-25 -395L-10 -395C59 -388 88 -376 26 -395C140 -343 160 -314 116 -364C195 -246 205 -198 180 -285C221 -90 221 -18 215 -150L221 872C216 926 207 944 221 902C186 977 171 987 198 962C137 1003 117 1007 155 997C75 1012 53 1012 97 1010L47 1012L47 1098zM193 1430C196 1474 202 1490 193 1454C216 1519 226 1529 208 1506C249 1546 263 1550 236 1539C293 1556 309 1556 277 1554C340 1554 354 1550 325 1556C381 1539 391 1529 368 1546C410 1506 416 1490 401 1519C426 1454 426 1430 422 1474C422 1386 416 1370 426 1406C401 1341 391 1331 410 1354C368 1313 354 1309 381 1321C325 1303 309 1303 340 1305C277 1305 263 1309 293 1303C236 1321 226 1331 249 1313C208 1354 202 1370 216 1341C193 1406 193 1430 196 1386z" />
      <glyph unicode="k" horiz-adv-x="1198" d="M694 659L967 254C1102 86 1194 86 1037 144L1200 86L1200 0L1171 0C1062 1 1024 5 1111 0C953 17 925 31 986 9C871 65 848 91 897 45C798 153 770 199 824 117L565 520L414 408L414 223C418 168 427 150 414 193C448 118 464 109 436 132C497 93 517 90 479 99C559 86 582 86 537 87L588 86L588 0L37 0L37 86L53 86C98 87 118 91 76 86C156 101 171 111 138 94C198 136 207 156 186 121C221 201 221 233 216 175L221 1331C216 1385 207 1403 221 1361C186 1436 171 1446 198 1421C137 1462 117 1465 155 1456C75 1470 53 1470 97 1468L37 1470L37 1556L414 1556L414 766C412 665 410 609 414 728C407 543 406 508 408 577L662 788C702 834 716 853 684 812C742 888 751 902 730 871C765 928 769 939 759 916C774 961 774 971 772 950C742 1012 674 1012 774 1005L674 1098L1126 1098L1126 1012C944 942 838 821 1031 1012z" />
      <glyph unicode="l" horiz-adv-x="635" d="M53 86C98 87 118 91 76 86C156 101 171 111 138 94C198 136 207 156 186 121C221 201 221 233 216 175L221 1331C216 1385 207 1403 221 1361C186 1436 171 1446 198 1421C137 1462 117 1465 155 1456C75 1470 53 1470 97 1468L27 1470L27 1556L414 1556L414 233C418 175 427 156 414 201C447 121 463 111 435 136C496 94 516 91 478 101C558 86 582 86 536 87L608 86L608 0L27 0L27 86z" />
      <glyph unicode="m" horiz-adv-x="1935" d="M608 86L608 0L57 0L57 86L84 86C128 87 148 91 107 86C184 101 198 111 167 94C222 136 230 156 212 121C242 201 242 233 238 175L242 872C238 926 230 944 242 902C211 977 197 987 222 962C166 1003 147 1007 183 997C106 1012 84 1012 127 1010L78 1012L78 1098L399 1098L426 932L436 932C478 1001 501 1025 456 970C547 1068 573 1082 523 1049C626 1105 654 1110 599 1096C713 1118 745 1118 682 1115C810 1114 840 1108 778 1118C897 1090 923 1076 870 1101C972 1042 992 1018 949 1061C1029 966 1042 932 1012 994L1059 932C1102 1001 1126 1025 1079 970C1175 1068 1202 1082 1150 1049C1257 1105 1287 1110 1229 1096C1348 1118 1380 1118 1317 1115C1478 1110 1520 1094 1432 1118C1596 1054 1625 1022 1561 1078C1675 948 1691 898 1653 990C1714 787 1714 717 1706 847L1714 233C1718 175 1726 156 1714 201C1745 121 1759 111 1734 136C1789 94 1809 91 1773 101C1849 86 1872 86 1828 87L1878 86L1878 0L1522 0L1522 707C1518 791 1510 826 1522 751C1490 890 1473 914 1502 860C1434 956 1407 968 1456 938C1346 987 1307 987 1379 980C1228 978 1199 962 1264 987C1147 924 1129 896 1170 946C1098 835 1090 799 1111 868C1079 723 1079 682 1082 762L1079 233C1083 175 1091 156 1079 201C1110 121 1124 111 1099 136C1154 94 1174 91 1138 101C1214 86 1237 86 1193 87L1243 86L1243 0L887 0L887 707C883 791 875 826 887 751C855 890 838 914 867 860C799 956 772 968 821 938C711 987 672 987 744 980C589 978 559 960 627 987C504 917 486 887 529 942C454 821 446 781 467 856C434 699 434 655 438 741L434 223C438 168 447 150 434 193C468 118 484 109 456 132C517 93 537 90 499 99C579 86 602 86 557 87z" />
      <glyph unicode="n" horiz-adv-x="1321" d="M608 86L608 0L57 0L57 86L74 86C119 87 139 91 97 86C177 101 192 111 159 94C219 136 228 156 207 121C242 201 242 233 237 175L242 872C237 926 228 944 242 902C207 977 192 987 219 962C158 1003 138 1007 176 997C96 1012 74 1012 118 1010L68 1012L68 1098L399 1098L426 932L436 932C479 1001 503 1025 457 970C552 1068 578 1082 527 1049C632 1105 662 1110 604 1096C723 1118 756 1118 692 1115C858 1110 900 1094 810 1118C978 1054 1008 1022 942 1078C1060 948 1076 898 1038 990C1100 787 1100 717 1092 847L1100 233C1103 175 1111 156 1100 201C1130 121 1144 111 1119 136C1174 94 1194 91 1158 101C1234 86 1257 86 1213 87L1264 86L1264 0L907 0L907 707C903 791 895 826 907 751C874 890 856 914 887 860C815 956 787 968 838 938C723 987 682 987 758 980C596 978 564 960 635 987C507 917 488 887 532 942C454 821 446 781 468 856C434 699 434 655 438 741L434 223C438 168 447 150 434 193C468 118 484 109 456 132C517 93 537 90 499 99C579 86 602 86 557 87z" />
      <glyph unicode="o" horiz-adv-x="1182" d="M1069 551C902 -20 588 -20 1069 165C447 -8 389 15 514 -20C280 73 239 121 330 38C167 227 145 299 198 168C113 455 113 551 123 371C276 1118 594 1118 113 933C734 1106 793 1083 668 1118C901 1025 942 978 851 1060C1014 872 1036 801 983 931C1069 647 1069 551 1058 730zM311 551C316 408 326 350 311 475C352 243 374 204 336 292C425 136 461 116 396 165C540 86 592 86 497 96C686 96 722 116 643 86C786 165 808 204 757 136C845 292 855 350 830 243C870 475 870 551 865 408C865 693 855 751 870 627C829 856 807 894 845 808C756 961 720 981 785 932C641 1010 590 1010 684 1000C495 1000 460 981 538 1010C396 932 374 894 424 961C336 808 326 751 352 856C311 627 311 551 316 693z" />
      <glyph unicode="p" horiz-adv-x="1257" d="M692 987C594 978 558 960 638 987C494 916 473 880 522 942C436 798 427 744 451 844C414 625 414 551 418 689C418 416 427 362 414 479C451 261 473 224 436 307C523 158 559 139 495 186C640 111 694 111 595 120C777 120 809 139 739 111C867 186 887 224 841 158C922 307 932 362 907 261C946 481 946 553 941 417C941 689 932 743 946 625C907 843 887 879 922 797C840 942 808 960 867 915C737 987 692 987 776 978zM1145 551C1135 367 1117 295 1145 452C1072 163 1037 117 1099 223C958 35 906 13 1001 70C794 -20 727 -20 854 -8C652 -15 620 -7 687 -20C559 14 533 30 588 1C485 65 465 87 507 46C428 133 414 160 445 109L406 160C408 91 410 61 407 124C411 35 411 21 410 48C412 -5 412 -17 411 7C413 -39 413 -49 412 -29C414 -66 414 -72 413 -59L414 -268C418 -322 427 -340 414 -298C448 -372 464 -382 436 -358C497 -398 517 -401 479 -392C559 -406 582 -406 537 -404L588 -406L588 -492L37 -492L37 -406L53 -406C98 -404 118 -401 76 -406C156 -390 171 -380 138 -397C198 -355 207 -335 186 -370C221 -290 221 -258 216 -315L221 872C216 926 207 944 221 902C186 977 171 987 198 962C137 1003 117 1007 155 997C75 1012 53 1012 97 1010L27 1012L27 1098L385 1098L406 913L414 913C446 972 466 998 429 944C507 1044 533 1062 485 1023C587 1093 619 1103 558 1080C687 1118 727 1118 651 1113C854 1106 906 1084 794 1118C1001 1027 1037 981 958 1062C1099 876 1117 805 1072 935C1145 649 1145 551 1135 733z" />
      <glyph unicode="q" horiz-adv-x="1257" d="M1221 -492L608 -492L608 -406L676 -406C721 -404 741 -401 699 -406C779 -390 794 -380 761 -397C821 -355 830 -335 809 -370C844 -290 844 -258 839 -315L844 -82C845 30 848 86 844 -35C850 150 852 184 849 118L844 184C811 124 791 99 828 152C749 53 724 35 771 74C670 4 638 -5 698 17C570 -20 530 -20 606 -15C403 -8 351 13 462 -20C255 70 220 116 299 35C158 221 140 293 184 162C113 449 113 547 122 364C122 731 140 803 113 645C184 934 220 981 158 875C299 1062 351 1084 255 1027C462 1118 530 1118 403 1106C605 1113 637 1105 569 1118C697 1084 723 1068 669 1096C772 1033 792 1011 749 1052C829 964 844 938 812 989L856 938L893 1098L1221 1098L1221 1012L1204 1012C1159 1010 1139 1007 1181 1012C1100 996 1085 986 1118 1003C1058 961 1049 941 1070 976C1036 896 1036 864 1040 921L1036 -266C1040 -320 1049 -338 1036 -296C1070 -371 1086 -381 1058 -356C1119 -397 1139 -401 1101 -391C1181 -406 1204 -406 1159 -404L1221 -406zM565 111C662 119 698 137 618 111C762 182 784 218 734 155C821 299 830 354 806 254C844 473 844 547 839 408C839 681 830 736 844 618C806 836 784 873 821 790C734 938 698 958 762 910C617 987 563 987 662 977C480 977 448 958 518 987C389 910 369 873 416 938C334 789 325 734 349 835C311 616 311 545 315 679C383 111 565 111 311 254z" />
      <glyph unicode="r" horiz-adv-x="965" d="M659 0L68 0L68 86L74 86C119 87 139 91 97 86C177 101 192 111 159 94C219 136 228 156 207 121C242 201 242 233 237 175L242 872C237 926 228 944 242 902C207 977 192 987 219 962C158 1003 138 1007 176 997C96 1012 74 1012 118 1010L68 1012L68 1098L383 1098L422 895L432 895C459 954 473 981 445 925C504 1032 524 1052 487 1008C570 1088 600 1100 544 1072C667 1118 713 1118 630 1112C934 1063 934 969 862 1118C930 928 923 910 934 947C905 876 890 863 916 892C855 840 831 833 874 850C777 823 743 823 807 826C715 983 635 983 743 936C587 975 567 961 609 983C529 928 514 904 547 947C486 853 476 823 499 880C457 760 451 728 466 792C440 664 438 632 445 696C434 571 434 545 435 600L434 223C438 168 447 150 434 193C468 118 484 109 456 132C517 93 537 90 499 99C579 86 602 86 557 87L659 86z" />
      <glyph unicode="s" horiz-adv-x="924" d="M430 -20C332 -15 290 -6 378 -20C213 16 184 34 248 2C132 75 116 102 154 52C92 161 92 197 100 129C96 247 105 265 92 224C125 298 138 309 114 283C165 327 180 331 151 319C209 338 221 338 195 335C224 268 232 237 221 302C251 178 269 154 239 205C309 112 337 98 286 130C400 78 442 78 365 84C511 82 539 91 478 78C590 113 609 129 567 100C643 165 653 188 628 145C668 236 668 264 663 211C664 311 656 329 668 289C635 365 616 381 648 347C571 413 539 430 597 397C465 465 416 487 506 446C317 532 278 554 363 510C207 599 182 625 239 576C137 679 125 711 156 650C106 782 106 827 112 743C115 915 133 951 106 873C178 1017 212 1041 151 987C286 1084 334 1097 246 1065C434 1116 492 1116 381 1109C583 1111 621 1101 540 1116C689 1077 715 1060 658 1091C759 1023 772 1000 740 1043C791 953 791 928 784 977C737 805 643 805 791 853C588 1022 467 1022 643 942C402 1018 378 1010 432 1022C333 990 317 976 353 1002C290 944 283 924 301 961C272 882 272 858 275 904C276 809 286 790 272 832C310 754 330 738 295 771C377 706 409 691 350 722C480 659 526 641 441 676C626 596 665 574 580 618C735 528 760 502 703 552C804 446 816 414 785 476C834 343 834 301 828 381C824 201 805 161 834 247C758 87 723 60 785 121C645 13 595 0 687 33C490 -20 430 -20 545 -13z" />
      <glyph unicode="t" horiz-adv-x="721" d="M543 88C631 94 674 102 592 88L674 12C654 4 640 0 665 8C610 -7 594 -10 626 -4C561 -15 543 -17 578 -13C508 -20 492 -20 525 -19C395 -14 358 -3 440 -20C290 25 266 50 320 7C224 107 212 148 242 74C195 238 195 297 200 188L195 981L39 981L39 1063C153 1081 199 1128 88 1063C271 1244 293 1350 245 1178L387 1350L387 1098L655 1098L655 981L387 981L387 291C448 88 543 88 387 151z" />
      <glyph unicode="u" horiz-adv-x="1300" d="M1079 223C1083 168 1092 150 1079 193C1113 118 1129 109 1101 132C1162 93 1182 90 1144 99C1224 86 1247 86 1202 87L1253 86L1253 0L928 0L901 166L891 166C847 96 822 72 870 127C771 29 743 15 797 48C685 -7 655 -12 715 1C592 -20 559 -20 624 -17C457 -12 415 3 505 -20C337 42 309 75 373 18C258 149 243 200 280 107C221 311 221 381 228 250L221 872C216 926 207 944 221 902C186 977 171 987 198 962C137 1003 117 1007 155 997C75 1012 53 1012 97 1010L47 1012L47 1098L414 1098L414 391C417 306 424 272 414 346C443 208 459 184 431 237C497 141 525 129 475 160C587 111 629 111 553 117C713 119 745 135 674 111C804 173 825 202 777 151C862 266 872 307 846 231C887 392 887 442 882 347L887 864C882 921 873 941 887 896C852 976 837 986 864 961C804 1003 784 1007 822 996C742 1012 719 1012 764 1010L713 1012L713 1098L1079 1098z" />
      <glyph unicode="v" horiz-adv-x="1186" d="M8 1012L8 1098L520 1098L520 1012L494 1012C371 981 371 913 411 1012C376 868 387 838 371 890L526 451C543 400 553 371 534 427C571 314 579 286 562 342C595 231 602 206 587 258C613 160 616 143 608 181L623 143C631 175 639 197 626 157C655 242 665 268 647 219C685 320 695 347 675 294C715 399 725 424 705 373L872 823C891 888 891 911 885 856C846 1012 756 1012 891 981L741 1012L741 1098L1180 1098L1180 1012L1155 1012C1118 1009 1104 1005 1135 1012C1077 993 1066 981 1090 1001C1043 952 1033 932 1054 969C1011 884 999 852 1023 911L676 0L489 0L160 903C143 942 135 956 152 924C116 981 105 989 126 970C80 1003 66 1007 93 997C34 1012 14 1012 51 1010z" />
      <glyph unicode="w" horiz-adv-x="1765" d="M975 1092L1180 485C1196 433 1205 405 1188 460C1223 349 1231 321 1214 377C1246 267 1253 243 1239 293C1264 197 1268 180 1259 218L1274 180C1312 347 1354 479 1286 248L1456 809C1475 888 1475 911 1466 843C1431 1012 1339 1012 1475 981L1325 1012L1325 1098L1763 1098L1763 1012L1737 1012C1699 1010 1685 1006 1717 1012C1657 994 1645 982 1670 1002C1623 954 1613 934 1633 970C1593 886 1583 852 1603 913L1319 0L1155 0L911 721L874 856L584 0L422 0L154 903C137 942 129 956 146 924C110 981 99 989 120 970C74 1003 60 1007 87 997C28 1012 8 1012 45 1010L2 1012L2 1098L508 1098L508 1012L481 1012C358 992 358 926 399 1012C367 868 375 838 358 903L471 494C484 442 492 413 477 469C506 354 512 325 499 383C524 269 530 244 518 296C539 197 543 180 535 218L549 180C556 217 562 240 552 197C574 288 582 314 568 263C598 367 607 395 590 340C624 448 633 473 615 422L846 1092z" />
      <glyph unicode="x" horiz-adv-x="1184" d="M786 952C738 1012 676 1012 786 1001L670 1012L670 1098L1118 1098L1118 1012L1100 1012C1061 1010 1045 1007 1080 1012C1013 997 997 988 1029 1003C965 965 949 948 981 978C913 908 893 881 932 930L682 600L983 195C1096 86 1147 86 1043 115L1174 86L1174 0L645 0L645 86L655 86C778 108 778 154 737 86C777 168 775 176 778 161C769 193 763 203 773 184C749 226 739 241 757 213C716 273 700 295 729 255L563 479L420 279C407 261 401 251 414 271C388 229 383 218 394 240C373 195 370 183 377 206C365 160 365 150 366 171C400 86 492 86 365 103L498 86L498 0L10 0L10 86L29 86C75 88 94 92 53 86C130 103 147 113 112 96C180 136 197 153 163 123C232 191 252 217 213 170L510 551L252 903C137 1012 76 1012 192 973L49 1012L49 1098L569 1098L569 1012L563 1012C520 1010 505 1007 539 1012C477 1000 469 994 489 1004C454 982 451 975 460 988C446 960 446 952 447 967C463 900 494 858 446 924L629 674L735 827C786 914 786 952 765 873z" />
      <glyph unicode="y" horiz-adv-x="1157" d="M1157 1098L1157 1012L1151 1012C1113 1009 1099 1005 1131 1012C1072 993 1060 981 1085 1001C1038 952 1028 932 1048 969C1007 884 995 852 1018 911L684 -8C637 -132 616 -182 660 -74C572 -274 549 -310 594 -232C500 -375 472 -399 525 -346C413 -441 378 -455 444 -422C302 -478 256 -484 342 -469C156 -492 96 -492 210 -489L78 -492L78 -395C207 -384 257 -364 147 -395C350 -315 386 -279 307 -343C453 -200 477 -151 422 -243C522 -49 539 8 501 -102L160 903C141 941 133 955 150 924C114 980 103 989 124 969C79 1003 65 1007 92 997C34 1012 14 1012 51 1010L8 1012L8 1098L500 1098L500 1012L494 1012C371 981 371 913 411 1012C375 868 387 838 371 890L537 473C556 424 566 396 546 449C586 341 595 314 576 368C612 262 620 238 604 287C632 193 635 176 627 214L641 176C682 325 717 424 655 236L854 823C872 888 872 911 866 856C827 1012 737 1012 872 981L731 1012L731 1098z" />
      <glyph unicode="z" horiz-adv-x="1047" d="M696 117C739 121 755 131 720 117C784 152 794 168 771 140C813 201 819 221 804 183C831 263 836 285 825 241L846 332L932 332L922 0L86 0L86 82L680 981L360 981C311 977 294 970 333 981C262 953 251 939 276 963C231 907 224 887 240 925C210 842 203 815 217 866L201 807L115 807L135 1098L920 1098L920 1014L324 117z" />
      <glyph unicode="{" horiz-adv-x="877" d="M639 -262C548 -255 511 -241 591 -262C443 -207 419 -182 474 -227C375 -125 363 -89 394 -156C344 -12 344 33 350 -53L344 389C337 465 325 493 344 431C296 542 274 558 313 520C226 586 197 593 252 574C136 604 102 606 167 600L102 692C167 697 197 704 136 693C252 722 274 738 226 710C313 776 325 804 296 754C344 865 344 907 337 831L344 1264C444 1556 639 1556 344 1450L774 1556L774 1468L713 1468C545 1395 545 1253 591 1468L545 903C470 676 317 651 545 769L317 649C545 531 545 395 474 622L545 41C591 -174 713 -174 545 -99L774 -174L774 -262z" />
      <glyph unicode="|" horiz-adv-x="1145" d="M633 -492L510 -492L510 1556L633 1556z" />
      <glyph unicode="}" horiz-adv-x="877" d="M102 -174L164 -174C332 -99 332 41 285 -174L332 395C401 622 559 649 332 531L559 651C332 769 332 903 407 676L332 1253C285 1468 164 1468 332 1395L102 1468L102 1556L238 1556C532 1450 532 1264 431 1556L532 907C538 831 551 804 532 865C580 754 602 738 563 776C649 710 679 704 624 722C740 693 774 692 708 697L774 606C708 600 679 593 740 604C624 574 602 558 649 586C563 520 551 493 580 542C532 431 532 389 538 465L532 33C525 -53 513 -89 532 -12C481 -156 457 -182 500 -125C401 -227 365 -241 432 -207C286 -262 238 -262 328 -255L102 -262z" />
      <glyph unicode="~" horiz-adv-x="1145" d="M774 551C733 555 712 563 754 551C669 582 648 595 690 571C607 621 588 636 627 607C552 666 537 680 569 651C506 707 492 720 521 694C462 745 448 755 477 733C419 773 405 779 434 765C375 788 360 788 390 785C245 712 231 551 280 788L111 551C121 636 129 679 115 593C151 760 170 794 137 721C213 855 245 877 188 828C318 909 369 909 277 898C414 904 437 896 391 909C481 876 503 863 459 887C544 835 563 819 524 849C600 788 616 774 582 803C645 747 659 735 630 760C686 712 700 703 673 723C728 686 742 680 714 693C770 672 784 672 756 674C890 757 909 909 860 672L1032 909C1020 823 1011 781 1027 866C987 700 968 666 1001 738C924 604 893 583 949 632C822 551 774 551 862 561z" />
      <glyph unicode="&#xA0;" horiz-adv-x="570" />
      <glyph unicode="&#xA1;" horiz-adv-x="682" d="M459 -367L221 -367L293 684L387 684zM469 971C465 922 459 904 469 944C443 871 431 861 452 886C406 842 390 838 419 850C358 831 340 831 374 833C306 833 290 838 322 831C261 850 249 861 274 842C228 886 221 904 237 871C211 944 211 971 214 922C214 1018 221 1036 211 997C237 1068 249 1079 228 1054C274 1098 290 1103 261 1090C322 1110 340 1110 306 1107C374 1107 390 1103 358 1110C419 1090 431 1079 406 1098C452 1054 459 1036 443 1068C469 997 469 971 465 1018z" />
      <glyph unicode="&#xA2;" horiz-adv-x="1145" d="M584 180C465 201 413 225 522 186C317 283 280 327 361 249C213 427 193 495 242 371C162 644 162 739 172 563C173 926 195 997 162 840C247 1125 285 1170 217 1067C367 1249 419 1271 323 1215C525 1307 584 1313 470 1293L584 1462L686 1462L686 1313C764 1303 804 1293 725 1309C878 1270 910 1253 843 1283C966 1215 986 1191 941 1236C1016 1138 1016 1106 1006 1166C955 977 834 977 1016 1011C831 1031 825 1057 834 1005C810 1106 798 1126 819 1083C770 1164 752 1178 786 1146C711 1201 686 1206 733 1192L686 297C742 299 770 303 714 297C826 312 852 318 798 307C902 331 925 339 878 324C967 354 983 362 947 347L983 250C807 178 686 176 912 212L686 0L584 0zM360 741C430 350 584 309 360 497L584 1206C521 1187 494 1168 551 1200C443 1121 423 1085 466 1149C387 1002 376 946 403 1049C360 821 360 741 365 890z" />
      <glyph unicode="&#xA3;" horiz-adv-x="1145" d="M500 690C541 553 541 471 520 622C469 266 360 193 541 353L365 184C468 221 514 221 421 210C571 217 604 209 541 221C669 192 701 182 636 201C764 163 794 155 733 172C849 143 870 143 824 147C916 146 936 153 894 143C976 169 994 181 956 160C1028 205 1043 219 1012 192C1072 248 1085 264 1058 233L1085 131C1058 97 1042 79 1073 114C1006 44 984 30 1025 61C937 3 909 -6 962 15C851 -20 817 -20 881 -15C749 -15 717 -5 783 -20C651 14 618 26 684 4C550 47 516 57 584 37C446 72 410 72 482 67C246 43 158 2 319 72L131 -10L131 98L168 121C218 154 243 176 193 136C291 223 311 251 268 198C347 311 360 346 331 279C379 418 379 459 372 380C356 615 328 690 379 539L100 690L100 786L289 786C270 831 261 857 279 807C243 910 236 938 251 883C222 995 218 1025 228 966C211 1084 211 1112 213 1055C220 1223 240 1269 211 1170C287 1353 323 1385 259 1315C402 1441 454 1458 359 1417C564 1483 629 1483 506 1474C751 1477 797 1465 695 1483C880 1437 909 1417 843 1453C958 1372 971 1344 937 1396C991 1285 991 1253 984 1316C929 1120 829 1120 991 1165C826 1183 820 1214 829 1152C804 1273 789 1297 814 1245C753 1341 726 1357 774 1321C664 1380 621 1380 699 1372C391 1286 391 1116 462 1380C393 1052 399 1022 391 1084C411 961 419 933 404 991C435 878 445 853 427 905C463 806 471 786 454 828L819 786L819 690z" />
      <glyph unicode="&#xA4;" horiz-adv-x="1145" d="M197 733C220 890 266 952 197 815L131 1087L217 1174L350 1038C487 1110 571 1110 412 1083C726 1083 788 1038 651 1110L926 1176L1012 1087L877 952C948 815 948 733 922 890C922 575 877 514 948 650L1012 379L928 293L791 428C653 358 571 358 728 385C414 382 352 428 488 358L217 293L131 379L264 514C197 650 197 733 221 575zM311 733C317 663 331 631 311 697C363 572 387 548 345 599C438 506 470 492 411 524C535 471 571 471 501 478C643 478 675 492 608 471C734 524 758 548 707 506C799 599 813 631 781 572C834 697 834 733 827 663C827 805 813 837 834 770C781 896 758 920 799 869C707 962 675 976 734 944C608 997 571 997 643 990C501 990 470 976 535 997C411 944 387 920 438 962C345 869 331 837 363 896C311 770 311 733 317 805z" />
      <glyph unicode="&#xA5;" horiz-adv-x="1145" d="M264 0L264 86L311 86C355 87 375 90 333 86C412 99 427 109 395 93C454 132 463 150 442 118C477 193 479 223 472 168L479 362L193 362L193 459L479 459L479 602L193 602L193 698L440 698L162 1268C142 1304 134 1318 152 1288C115 1343 104 1352 125 1332C81 1366 67 1370 93 1360C36 1376 16 1376 53 1374L10 1376L10 1462L508 1462L508 1376L494 1376C377 1352 377 1296 411 1376C387 1222 410 1176 377 1264L508 958C527 913 537 889 518 936C555 840 563 816 546 864C579 769 586 749 571 792C598 711 602 698 592 728C609 716 615 730 604 705C627 760 635 777 621 744C651 811 659 829 643 794C675 863 682 877 667 847L799 1126C848 1263 848 1294 831 1198C813 1376 723 1376 848 1350L717 1376L717 1462L1135 1462L1135 1376L1116 1376C1083 1373 1071 1369 1098 1376C1046 1356 1035 1344 1058 1364C1013 1315 1001 1295 1024 1332C976 1248 961 1217 989 1274L711 698L965 698L965 602L678 602L678 459L965 459L965 362L678 362L678 233C682 175 691 156 678 201C712 121 727 111 700 136C760 94 780 91 742 101C822 86 846 86 800 87L893 86L893 0z" />
      <glyph unicode="&#xA6;" horiz-adv-x="1145" d="M633 737L510 737L510 1556L633 1556zM633 -492L510 -492L510 328L633 328z" />
      <glyph unicode="&#xA7;" horiz-adv-x="1114" d="M598 795C412 884 342 940 499 841C291 877 291 823 312 913C295 771 305 749 291 795C330 706 353 685 314 727C406 643 444 621 375 664C531 573 590 545 482 599C755 465 821 408 672 503C860 478 860 524 843 440C856 569 850 590 860 547C830 631 811 653 843 610C765 696 731 719 792 674C652 767 598 795 697 742zM571 -133C821 -53 821 72 739 -133C817 128 810 150 821 102C786 195 761 217 802 172C700 264 652 291 736 239C541 351 461 391 604 318C360 444 322 472 407 417C253 529 229 560 284 500C187 623 176 658 205 590C160 731 160 772 165 693C210 951 281 1001 160 874C205 1132 205 1231 230 1061C214 1329 233 1369 205 1283C278 1443 312 1471 252 1409C385 1520 431 1534 345 1499C528 1556 582 1556 477 1548C686 1550 728 1538 638 1556C804 1510 832 1490 770 1526C880 1446 894 1418 860 1470C915 1359 915 1327 908 1390C858 1202 770 1202 915 1239C766 1265 760 1295 770 1234C742 1351 726 1375 753 1325C690 1418 665 1432 710 1399C609 1454 573 1454 640 1446C358 1384 358 1255 437 1454C364 1188 378 1164 358 1219C412 1118 439 1098 392 1140C499 1059 539 1041 466 1078C624 1000 676 975 578 1022C784 919 826 891 734 947C902 833 930 803 868 863C977 741 990 707 957 773C1010 636 1010 596 1003 673C1006 546 999 522 1010 571C983 474 972 452 992 498C947 409 933 389 960 430C903 352 887 336 918 369C950 217 950 133 925 282C942 29 927 -15 950 79C889 -98 857 -130 912 -59C785 -188 735 -206 825 -162C626 -233 557 -233 685 -224C456 -227 413 -217 504 -233C333 -192 303 -172 370 -207C248 -127 232 -98 272 -152C207 -34 207 4 215 -68C211 55 220 73 207 32C240 106 253 117 229 91C280 136 295 140 266 128C324 147 336 147 310 144C340 76 349 42 336 111C372 -21 391 -47 358 8C434 -93 464 -109 410 -73C529 -133 571 -133 494 -125z" />
      <glyph unicode="&#xA8;" horiz-adv-x="1182" d="M291 1409C293 1448 299 1463 291 1430C311 1489 321 1498 304 1477C341 1514 354 1518 330 1507C380 1524 395 1524 366 1522C423 1522 436 1518 409 1524C459 1507 469 1498 448 1514C486 1477 492 1463 479 1489C500 1430 500 1409 497 1448C497 1370 492 1356 500 1388C479 1329 469 1320 486 1341C448 1304 436 1300 459 1310C409 1294 395 1294 423 1296C291 1325 291 1409 335 1294zM680 1409C682 1448 688 1463 680 1430C700 1489 710 1498 693 1477C730 1514 743 1518 719 1507C769 1524 784 1524 755 1522C812 1522 825 1518 798 1524C848 1507 858 1498 837 1514C875 1477 881 1463 868 1489C889 1430 889 1409 886 1448C886 1370 881 1356 889 1388C868 1329 858 1320 875 1341C837 1304 825 1300 848 1310C798 1294 784 1294 812 1296C680 1325 680 1409 724 1294z" />
      <glyph unicode="&#xA9;" horiz-adv-x="1731" d="M901 365C961 369 988 377 932 365C1038 395 1060 409 1014 385C1099 437 1115 454 1081 422C1143 487 1153 504 1131 470C1182 469 1182 440 1169 492C1175 402 1162 383 1182 421C1130 346 1104 330 1149 363C1046 301 1008 291 1078 314C925 276 874 276 970 281C746 287 695 309 806 276C601 362 567 402 644 331C507 490 490 546 533 442C465 664 465 733 473 602C474 860 493 916 465 799C539 1019 576 1059 511 971C659 1130 713 1152 613 1099C831 1186 903 1186 767 1174C991 1182 1026 1174 950 1186C1090 1156 1114 1143 1061 1166C1154 1115 1166 1097 1137 1130C1184 1060 1184 1040 1178 1079C1180 1012 1173 1000 1184 1025C1155 977 1143 969 1165 988C1115 954 1098 950 1130 961C1063 944 1044 944 1081 946C1041 982 1036 1000 1044 963C1023 1035 1012 1050 1031 1018C985 1077 967 1086 1000 1065C926 1100 899 1100 949 1095C810 1092 776 1076 851 1100C715 1036 694 1005 742 1060C657 935 647 890 672 973C633 792 633 733 637 844C727 365 901 365 633 497zM113 731C122 867 140 931 113 800C183 1055 215 1111 158 995C286 1218 332 1264 247 1167C428 1349 484 1382 378 1310C600 1440 664 1458 540 1414C794 1485 864 1485 728 1476C1000 1476 1064 1458 933 1485C1188 1414 1244 1382 1128 1440C1351 1310 1397 1264 1300 1349C1482 1167 1515 1111 1443 1218C1573 995 1591 931 1547 1055C1618 800 1618 731 1609 867C1609 595 1591 531 1618 661C1547 407 1515 351 1573 467C1443 245 1397 199 1482 295C1300 114 1244 82 1351 153C1128 24 1064 6 1188 49C933 -20 864 -20 1000 -11C728 -11 664 6 794 -20C540 49 484 82 600 24C378 153 332 199 428 114C247 295 215 351 286 245C158 467 140 531 183 407C113 661 113 731 122 595zM225 731C232 615 248 561 225 672C284 456 312 409 263 507C373 318 412 279 340 361C494 207 542 179 451 240C640 130 694 115 589 151C805 92 864 92 748 99C980 99 1035 115 923 92C1140 151 1188 179 1089 130C1278 240 1317 279 1235 207C1389 361 1417 409 1356 318C1466 507 1482 561 1445 456C1505 672 1505 731 1497 615C1497 846 1482 901 1505 789C1445 1006 1417 1054 1466 955C1356 1145 1317 1184 1389 1102C1235 1256 1188 1284 1278 1223C1089 1333 1035 1349 1140 1312C923 1372 864 1372 980 1364C748 1364 694 1349 805 1372C589 1312 542 1284 640 1333C451 1223 412 1184 494 1256C340 1102 312 1054 373 1145C263 955 248 901 284 1006C225 790 225 731 232 847z" />
      <glyph unicode="&#xAA;" horiz-adv-x="782" d="M250 985C290 872 344 872 250 899C387 876 405 884 366 872C438 903 450 918 423 892C472 950 479 970 462 932C489 1012 489 1036 485 990L489 1133L426 1130C364 1125 342 1118 392 1129C302 1101 288 1089 320 1111C265 1062 259 1045 274 1077C250 1007 250 985 253 1027zM387 1397C349 1393 337 1386 366 1397C314 1368 307 1356 324 1378C295 1328 293 1311 300 1343C289 1276 289 1257 290 1294C127 1282 127 1346 185 1257C134 1389 148 1405 127 1369C181 1434 205 1444 162 1421C257 1461 289 1466 229 1454C355 1473 391 1473 321 1470C475 1469 509 1461 436 1473C570 1440 592 1422 542 1453C631 1382 642 1354 614 1404C659 1291 659 1251 653 1326L659 940C681 860 748 860 659 878L748 791L549 791L512 885L502 885C476 858 462 845 490 871C432 821 414 811 448 832C377 793 356 787 396 801C311 778 285 778 334 781C72 849 72 987 153 778C178 1183 401 1194 72 1123L489 1198L489 1257C487 1296 485 1313 489 1277C478 1345 471 1357 483 1330C454 1379 441 1386 464 1369C409 1397 387 1397 427 1393z" />
      <glyph unicode="&#xAB;" horiz-adv-x="1079" d="M517 1031L485 975C333 644 333 516 383 797C383 246 485 69 333 395L517 13L348 13L337 31C151 388 151 517 213 226C213 817 337 1013 151 651L348 1031zM777 13C580 387 580 516 645 219C642 817 766 1013 580 651L777 1031L946 1031L914 975C762 644 762 516 812 797C812 246 914 69 762 395L946 13z" />
      <glyph unicode="&#xAC;" horiz-adv-x="1145" d="M1012 793L1012 252L889 252L889 672L133 672L133 793z" />
      <glyph unicode="&#xAD;" horiz-adv-x="635" d="M51 481L51 635L584 635L584 481z" />
      <glyph unicode="&#xAE;" horiz-adv-x="1731" d="M477 358L504 358C530 358 542 360 517 358C564 365 573 370 554 362C589 382 595 392 582 375C603 414 604 430 600 401L604 1030C600 1058 595 1068 603 1046C582 1085 573 1090 589 1078C554 1098 542 1100 564 1095C517 1102 504 1102 530 1101L477 1102L477 1174L846 1174C1198 1092 1198 930 1080 1174C1192 868 1182 844 1198 897C1157 798 1140 780 1171 819C1102 746 1080 734 1122 762C1035 712 1012 705 1058 722L1194 412C1207 391 1213 384 1200 400C1227 372 1236 368 1219 377C1254 361 1266 360 1244 364C1292 358 1309 358 1278 358L1309 289L1092 289L866 670L758 670L758 430C762 401 768 392 759 414C780 375 789 370 773 382C808 362 820 360 798 365C844 358 858 358 832 358L887 358L887 289L477 289zM758 748L844 748C911 751 936 759 880 748C980 777 995 792 960 766C1020 825 1026 848 1009 806C1036 897 1036 928 1032 870C1032 983 1025 1005 1036 958C1006 1043 990 1056 1017 1026C954 1079 929 1085 974 1069C874 1094 838 1094 904 1091L758 1094zM113 731C122 867 140 931 113 800C183 1055 215 1111 158 995C286 1218 332 1264 247 1167C428 1349 484 1382 378 1310C600 1440 664 1458 540 1414C794 1485 864 1485 728 1476C1000 1476 1064 1458 933 1485C1188 1414 1244 1382 1128 1440C1351 1310 1397 1264 1300 1349C1482 1167 1515 1111 1443 1218C1573 995 1591 931 1547 1055C1618 800 1618 731 1609 867C1609 595 1591 531 1618 661C1547 407 1515 351 1573 467C1443 245 1397 199 1482 295C1300 114 1244 82 1351 153C1128 24 1064 6 1188 49C933 -20 864 -20 1000 -11C728 -11 664 6 794 -20C540 49 484 82 600 24C378 153 332 199 428 114C247 295 215 351 286 245C158 467 140 531 183 407C113 661 113 731 122 595zM225 731C232 615 248 561 225 672C284 456 312 409 263 507C373 318 412 279 340 361C494 207 542 179 451 240C640 130 694 115 589 151C805 92 864 92 748 99C980 99 1035 115 923 92C1140 151 1188 179 1089 130C1278 240 1317 279 1235 207C1389 361 1417 409 1356 318C1466 507 1482 561 1445 456C1505 672 1505 731 1497 615C1497 846 1482 901 1505 789C1445 1006 1417 1054 1466 955C1356 1145 1317 1184 1389 1102C1235 1256 1188 1284 1278 1223C1089 1333 1035 1349 1140 1312C923 1372 864 1372 980 1364C748 1364 694 1349 805 1372C589 1312 542 1284 640 1333C451 1223 412 1184 494 1256C340 1102 312 1054 373 1145C263 955 248 901 284 1006C225 790 225 731 232 847z" />
      <glyph unicode="&#xAF;" horiz-adv-x="940" d="M950 1556L-10 1556L-10 1677L950 1677z" />
      <glyph unicode="&#xB0;" horiz-adv-x="819" d="M98 1151C106 1234 122 1272 98 1194C161 1343 189 1371 138 1310C249 1421 287 1437 217 1399C365 1462 408 1462 325 1453C491 1453 529 1437 451 1462C600 1399 628 1371 567 1421C678 1310 694 1272 656 1343C719 1194 719 1151 710 1234C710 1068 694 1030 719 1108C656 960 628 932 678 992C567 882 529 866 600 904C451 842 408 842 491 850C325 850 287 866 365 842C217 904 189 932 249 882C138 992 122 1030 161 960C98 1108 98 1151 106 1068zM221 1151C225 1101 235 1078 221 1125C258 1035 275 1018 245 1055C312 988 335 978 292 1001C382 963 408 963 357 968C459 968 482 978 434 963C524 1001 541 1018 504 988C571 1055 581 1078 558 1035C596 1125 596 1151 591 1101C591 1202 581 1225 596 1177C558 1268 541 1285 571 1248C504 1316 482 1326 524 1302C434 1341 408 1341 459 1336C357 1336 335 1326 382 1341C292 1302 275 1285 312 1316C245 1248 235 1225 258 1268C221 1177 221 1151 225 1202z" />
      <glyph unicode="&#xB1;" horiz-adv-x="1145" d="M633 672L633 293L510 293L510 672L133 672L133 793L510 793L510 1171L633 1171L633 793L1012 793L1012 672zM1012 0L133 0L133 121L1012 121z" />
      <glyph unicode="&#xB2;" horiz-adv-x="819" d="M690 1262C686 1200 679 1172 690 1230C659 1116 642 1088 671 1144C601 1031 573 1001 624 1060C509 937 467 901 545 971L250 715L547 715C629 753 637 799 609 715L645 842L715 842L709 586L86 586L86 678L346 911C401 966 422 994 376 938C459 1050 471 1078 442 1022C492 1135 498 1163 483 1106C506 1218 506 1245 503 1191C503 1288 499 1307 506 1267C488 1343 478 1357 495 1326C456 1381 441 1389 468 1371C407 1401 385 1401 425 1397C339 1396 322 1386 360 1401C290 1363 280 1347 304 1376C261 1312 257 1290 269 1331C250 1246 250 1223 252 1268C102 1239 102 1311 158 1223C108 1358 120 1379 102 1335C149 1418 173 1434 132 1400C226 1461 262 1470 197 1449C338 1483 385 1483 297 1478C690 1406 690 1262 575 1483z" />
      <glyph unicode="&#xB3;" horiz-adv-x="819" d="M356 573C82 641 82 741 177 573C118 842 176 842 82 801C179 799 186 778 176 820C204 738 218 722 193 757C250 691 272 681 232 705C320 666 350 666 294 671C532 717 532 844 463 666C465 1001 315 1001 532 940L248 1001L248 1085L315 1085C365 1089 387 1097 341 1085C428 1117 445 1133 409 1105C474 1166 484 1188 461 1148C498 1234 498 1262 493 1210C465 1401 381 1401 498 1352C333 1396 316 1386 355 1401C284 1363 274 1347 298 1376C256 1312 252 1290 264 1331C246 1246 246 1223 248 1268C201 1224 182 1226 222 1223C147 1233 134 1240 163 1228C111 1255 104 1267 121 1246C94 1293 94 1311 97 1278C100 1358 112 1379 94 1335C143 1418 167 1434 124 1400C221 1461 257 1470 191 1449C334 1483 381 1483 293 1478C467 1478 505 1469 426 1483C574 1446 601 1429 542 1459C648 1390 662 1365 627 1411C684 1312 684 1280 676 1340C678 1223 667 1199 684 1250C640 1155 621 1137 655 1175C580 1103 555 1090 602 1119C503 1067 475 1059 529 1077L475 1049C530 1037 559 1029 502 1044C613 1009 637 994 587 1021C680 958 696 934 661 978C719 879 719 842 711 910C707 749 685 715 719 792C634 653 599 632 663 681C524 596 482 587 563 611C397 573 356 573 439 577z" />
      <glyph unicode="&#xB4;" horiz-adv-x="1182" d="M391 1268C422 1309 438 1335 406 1287C470 1386 486 1413 454 1360C517 1467 531 1494 502 1440C558 1546 569 1569 545 1521L788 1569L788 1548C756 1507 732 1480 775 1530C680 1425 650 1396 707 1453C589 1338 557 1310 620 1366C496 1259 469 1241 525 1282L391 1241z" />
      <glyph unicode="&#xB5;" horiz-adv-x="1260" d="M569 -20C373 24 319 100 454 -20C322 -9 326 -57 320 43C336 -147 347 -183 329 -105C374 -248 396 -270 358 -219C447 -307 485 -313 417 -292C482 -362 476 -384 485 -339C462 -425 450 -441 470 -406C424 -469 406 -478 438 -457C366 -492 342 -492 388 -487C300 -488 280 -480 320 -492C242 -458 227 -439 260 -472C199 -395 190 -364 211 -420C176 -294 176 -248 180 -332C177 -163 179 -116 176 -207C184 -17 187 39 181 -69C192 159 195 229 189 96C200 375 201 461 198 298L201 1098L393 1098L393 410C396 324 403 288 393 365C420 219 436 193 409 251C473 146 499 132 452 167C558 111 598 111 525 118C670 119 701 135 636 111C757 173 779 202 731 151C816 266 828 307 800 231C846 392 846 442 840 347L846 1098L1038 1098L1038 264C1042 207 1050 185 1038 234C1068 144 1080 130 1058 163C1106 104 1122 97 1092 115C1152 86 1167 86 1137 89L1174 86L1174 0L1063 0C889 56 864 164 951 0L856 164C822 111 804 89 840 136C765 47 742 31 786 66C693 2 665 -6 719 15C605 -20 569 -20 637 -15z" />
      <glyph unicode="&#xB6;" horiz-adv-x="1264" d="M860 1452L666 1452L666 -227L346 -227L346 -141L373 -141C418 -139 438 -136 396 -141C476 -125 491 -115 458 -132C518 -90 527 -71 506 -105C541 -26 541 6 536 -51L541 791L395 791C285 801 245 823 335 791C173 874 149 911 205 845C107 991 97 1039 125 948C82 1138 82 1192 87 1087C87 1296 99 1341 82 1246C128 1424 154 1456 110 1385C212 1512 252 1530 179 1488C341 1556 399 1556 292 1547L1180 1556L1180 1470L1153 1470C1108 1468 1088 1465 1130 1470C1049 1454 1034 1444 1067 1461C1007 1419 998 1400 1019 1434C985 1355 985 1323 989 1380L985 6C989 -51 998 -71 985 -26C1019 -105 1034 -115 1007 -90C1067 -132 1088 -136 1049 -125C1130 -141 1153 -141 1108 -139L1180 -141L1180 -227L860 -227z" />
      <glyph unicode="&#xB7;" horiz-adv-x="512" d="M127 729C130 778 137 796 127 755C152 828 164 839 143 814C189 857 205 861 176 849C238 868 256 868 221 865C289 865 305 861 273 868C334 849 346 839 321 857C367 814 374 796 358 828C385 755 385 729 381 778C381 681 374 663 385 703C358 631 346 620 367 645C321 601 305 597 334 609C273 590 256 590 289 592C221 592 205 597 238 590C176 609 164 620 189 601C143 645 137 663 152 631C127 703 127 729 130 681z" />
      <glyph unicode="&#xB8;" horiz-adv-x="682" d="M551 -258C455 -492 281 -492 551 -403C258 -491 245 -490 270 -492C218 -488 204 -486 231 -489C176 -481 162 -478 190 -484C135 -472 123 -469 148 -475L123 -365C224 -381 262 -381 172 -375C387 -336 387 -266 340 -381C322 -147 233 -141 387 -186L276 18L373 18L352 -70C551 -150 551 -258 485 -80z" />
      <glyph unicode="&#xB9;" horiz-adv-x="819" d="M315 1325C284 1295 272 1283 299 1309C247 1262 235 1255 259 1271C212 1243 200 1240 223 1248C174 1235 160 1235 188 1236C86 1269 86 1319 114 1235C117 1324 132 1326 102 1321C166 1333 189 1342 147 1328C240 1366 274 1386 211 1351C352 1435 406 1473 308 1406L508 1473L508 735C510 703 515 693 508 717C525 675 533 670 519 683C550 661 560 659 541 664C582 657 594 657 570 657L688 657L688 588L127 588L127 657L240 657C263 657 273 659 252 657C291 664 299 670 283 661C313 683 317 693 307 675C324 717 324 735 321 703L324 1325z" />
      <glyph unicode="&#xBA;" horiz-adv-x="813" d="M250 1126C290 860 408 860 250 948C565 948 565 1126 522 860C520 1386 406 1386 565 1300C250 1300 250 1126 291 1386zM741 1126C626 778 406 778 741 891C72 892 72 1126 195 778C186 1473 410 1473 72 1360C507 1465 548 1451 461 1473C623 1415 652 1387 588 1437C702 1322 718 1279 680 1358C741 1184 741 1126 733 1235z" />
      <glyph unicode="&#xBB;" horiz-adv-x="1079" d="M581 1031L749 1031L760 1013C946 651 946 517 884 817C884 226 760 31 946 388L749 13L580 13L612 69C764 395 764 516 713 246C713 797 612 975 764 644zM320 13L151 13L183 69C335 395 335 516 284 246C284 797 183 975 335 644L152 1031L320 1031L331 1013C517 651 517 516 455 817C451 219 320 13 517 387z" />
      <glyph unicode="&#xBC;" horiz-adv-x="1720" d="M1477 261L1477 148C1479 116 1484 106 1477 130C1495 88 1503 83 1488 96C1520 74 1530 72 1511 77C1551 70 1563 70 1540 70L1604 70L1604 1L1153 1L1153 70L1210 70C1232 70 1242 72 1221 70C1260 77 1268 83 1252 74C1282 96 1287 106 1276 88C1294 130 1294 148 1291 116L1294 261L930 261L930 322L1313 886L1477 886L1477 349L1673 349L1673 261zM1294 580C1298 681 1305 732 1294 622C1280 683 1274 673 1294 709L1051 349L1294 349zM250 1325C219 1295 207 1283 234 1309C182 1262 170 1255 194 1271C147 1243 135 1240 158 1248C109 1235 95 1235 123 1236C21 1269 21 1319 49 1235C52 1324 67 1326 37 1321C101 1333 124 1342 82 1328C175 1366 209 1386 146 1351C287 1435 341 1473 243 1406L443 1473L443 735C445 703 450 693 443 717C460 675 468 670 454 683C485 661 495 659 476 664C517 657 529 657 505 657L623 657L623 588L62 588L62 657L175 657C198 657 208 659 187 657C226 664 234 670 218 661C248 683 252 693 242 675C259 717 259 735 256 703L259 1325zM566 0L430 0L1161 1462L1295 1462z" />
      <glyph unicode="&#xBD;" horiz-adv-x="1720" d="M250 1325C219 1295 207 1283 234 1309C182 1262 170 1255 194 1271C147 1243 135 1240 158 1248C109 1235 95 1235 123 1236C21 1269 21 1319 49 1235C52 1324 67 1326 37 1321C101 1333 124 1342 82 1328C175 1366 209 1386 146 1351C287 1435 341 1473 243 1406L443 1473L443 735C445 703 450 693 443 717C460 675 468 670 454 683C485 661 495 659 476 664C517 657 529 657 505 657L623 657L623 588L62 588L62 657L175 657C198 657 208 659 187 657C226 664 234 670 218 661C248 683 252 693 242 675C259 717 259 735 256 703L259 1325zM525 0L389 0L1120 1462L1254 1462zM1620 677C1616 615 1609 587 1620 645C1589 531 1572 503 1601 559C1531 446 1503 416 1554 475C1439 352 1397 316 1475 386L1180 130L1477 130C1559 168 1567 214 1539 130L1575 257L1645 257L1639 1L1016 1L1016 93L1276 326C1331 381 1352 409 1306 353C1389 465 1401 493 1372 437C1422 550 1428 578 1413 521C1436 633 1436 660 1433 606C1433 703 1429 722 1436 682C1418 758 1408 772 1425 741C1386 796 1371 804 1398 786C1337 816 1315 816 1355 812C1269 811 1252 801 1290 816C1220 778 1210 762 1234 791C1191 727 1187 705 1199 746C1180 661 1180 638 1182 683C1032 654 1032 726 1088 638C1038 773 1050 794 1032 750C1079 833 1103 849 1062 815C1156 876 1192 885 1127 864C1268 898 1315 898 1227 893C1620 821 1620 677 1505 898z" />
      <glyph unicode="&#xBE;" horiz-adv-x="1720" d="M1477 261L1477 148C1479 116 1484 106 1477 130C1495 88 1503 83 1488 96C1520 74 1530 72 1511 77C1551 70 1563 70 1540 70L1604 70L1604 1L1153 1L1153 70L1210 70C1232 70 1242 72 1221 70C1260 77 1268 83 1252 74C1282 96 1287 106 1276 88C1294 130 1294 148 1291 116L1294 261L930 261L930 322L1313 886L1477 886L1477 349L1673 349L1673 261zM1294 580C1298 681 1305 732 1294 622C1280 683 1274 673 1294 709L1051 349L1294 349zM356 573C82 641 82 741 177 573C118 842 176 842 82 801C179 799 186 778 176 820C204 738 218 722 193 757C250 691 272 681 232 705C320 666 350 666 294 671C532 717 532 844 463 666C465 1001 315 1001 532 940L248 1001L248 1085L315 1085C365 1089 387 1097 341 1085C428 1117 445 1133 409 1105C474 1166 484 1188 461 1148C498 1234 498 1262 493 1210C465 1401 381 1401 498 1352C333 1396 316 1386 355 1401C284 1363 274 1347 298 1376C256 1312 252 1290 264 1331C246 1246 246 1223 248 1268C201 1224 182 1226 222 1223C147 1233 134 1240 163 1228C111 1255 104 1267 121 1246C94 1293 94 1311 97 1278C100 1358 112 1379 94 1335C143 1418 167 1434 124 1400C221 1461 257 1470 191 1449C334 1483 381 1483 293 1478C467 1478 505 1469 426 1483C574 1446 601 1429 542 1459C648 1390 662 1365 627 1411C684 1312 684 1280 676 1340C678 1223 667 1199 684 1250C640 1155 621 1137 655 1175C580 1103 555 1090 602 1119C503 1067 475 1059 529 1077L475 1049C530 1037 559 1029 502 1044C613 1009 637 994 587 1021C680 958 696 934 661 978C719 879 719 842 711 910C707 749 685 715 719 792C634 653 599 632 663 681C524 596 482 587 563 611C397 573 356 573 439 577zM607 0L471 0L1202 1462L1336 1462z" />
      <glyph unicode="&#xBF;" horiz-adv-x="1024" d="M502 682L627 682L627 371C517 319 477 287 567 347C404 220 380 184 437 255C338 109 328 69 356 147C313 -11 313 -53 318 29C317 -120 326 -149 313 -88C348 -203 366 -224 334 -178C407 -260 435 -272 384 -244C497 -289 537 -289 463 -283C615 -282 644 -268 579 -289C697 -235 715 -211 673 -254C746 -159 754 -127 733 -187C766 -62 766 -27 762 -95C813 -29 834 -35 790 -27C872 -49 887 -60 854 -41C914 -85 923 -102 902 -71C936 -138 936 -160 931 -118C928 -223 913 -251 936 -192C875 -303 843 -323 898 -279C772 -359 724 -371 811 -343C619 -389 553 -389 676 -383C428 -380 374 -364 488 -389C272 -323 232 -291 319 -347C160 -221 138 -175 192 -259C104 -76 104 -18 115 -129C112 89 130 135 104 38C174 224 208 262 148 181C283 334 333 365 242 300C438 425 502 451 382 396zM696 969C692 920 686 902 696 942C670 869 658 859 679 884C633 840 617 836 646 848C585 829 567 829 601 831C533 831 517 836 549 829C488 848 476 859 501 840C455 884 448 902 464 869C438 942 438 969 441 920C441 1016 448 1034 438 995C464 1066 476 1077 455 1052C501 1096 517 1101 488 1088C549 1108 567 1108 533 1105C601 1105 617 1101 585 1108C646 1088 658 1077 633 1096C679 1052 686 1034 670 1066C696 995 696 969 692 1016z" />
      <glyph unicode="&#x2B9;" horiz-adv-x="358" d="M289 1462L305 1440C234 1123 170 961 279 1298L53 961C101 1340 111 1462 81 1134z" />
      <glyph unicode="&#x2BA;" horiz-adv-x="743" d="M289 1462L305 1440C234 1123 170 961 279 1298L53 961C101 1340 111 1462 81 1134zM674 1462L690 1440C619 1123 555 961 664 1298L438 961C486 1340 496 1462 466 1134z" />
      <glyph unicode="&#x2BB;" horiz-adv-x="512" d="M115 1063C121 1148 133 1189 115 1106C164 1267 191 1302 145 1229C253 1367 296 1395 218 1336C390 1446 451 1464 338 1423L451 1378C256 1274 256 1194 316 1335C259 1169 267 1160 256 1180C283 1143 295 1136 274 1151C318 1122 331 1116 306 1129C355 1101 367 1092 343 1109C387 1071 395 1057 378 1082C406 1026 406 1006 402 1043C348 885 272 885 406 927C231 888 212 896 251 885C176 915 162 930 193 904C135 964 127 986 147 945C115 1034 115 1063 119 1008z" />
      <glyph unicode="&#x2BC;" horiz-adv-x="512" d="M397 1284C391 1198 379 1158 397 1240C347 1079 320 1045 367 1117C258 979 216 951 293 1010C122 901 61 883 174 923L61 969C256 1073 256 1153 195 1011C252 1177 245 1186 256 1166C228 1203 217 1210 237 1195C193 1224 181 1231 205 1217C156 1245 145 1255 168 1237C124 1275 117 1289 133 1264C106 1320 106 1341 109 1303C164 1462 240 1462 106 1419C281 1458 300 1450 261 1462C335 1431 350 1416 318 1442C376 1382 384 1360 364 1401C397 1312 397 1284 392 1338z" />
      <glyph unicode="&#x2BD;" horiz-adv-x="512" d="M115 1284C119 1338 127 1360 115 1312C147 1401 162 1416 135 1382C193 1442 212 1450 176 1431C251 1462 272 1462 231 1458C406 1419 406 1341 348 1462C402 1303 395 1289 406 1320C378 1264 367 1255 387 1275C343 1237 331 1231 355 1245C306 1217 295 1210 318 1224C274 1195 267 1186 283 1203C256 1166 256 1153 259 1177C316 1011 451 969 256 1073L451 883C338 923 296 951 390 901C218 1010 191 1045 253 979C145 1117 133 1158 164 1079C115 1240 115 1284 121 1198z" />
      <glyph unicode="&#x2BE;" horiz-adv-x="246" d="M0 1260C135 1304 135 1382 86 1260C82 1505 0 1505 135 1463L0 1606C246 1519 246 1382 145 1606C144 1159 0 1159 246 1243z" />
      <glyph unicode="&#x2BF;" horiz-adv-x="246" d="M246 1505C111 1463 111 1382 163 1505C159 1260 246 1260 111 1304L246 1159C0 1243 0 1382 102 1159C100 1606 246 1606 0 1519z" />
      <glyph unicode="&#x2C0;" horiz-adv-x="600" d="M317 993L211 993L211 1163C381 1274 381 1364 328 1207C351 1475 281 1475 381 1425C170 1423 170 1341 211 1475C39 1361 39 1419 87 1341C124 1556 272 1556 39 1503C541 1473 541 1348 430 1556C469 1161 317 1112 541 1226z" />
      <glyph unicode="&#x2C1;" horiz-adv-x="600" d="M283 1112C59 1226 59 1348 131 1161C169 1556 328 1556 59 1473C561 1503 561 1419 476 1556C512 1341 430 1341 561 1361C388 1475 319 1475 430 1423C219 1425 219 1364 248 1475C271 1207 389 1163 219 1274L389 993L283 993z" />
      <glyph unicode="&#x2C2;" horiz-adv-x="999" d="M61 508L61 580L938 1053L938 915L252 543L938 174L938 37z" />
      <glyph unicode="&#x2C3;" horiz-adv-x="999" d="M938 582L938 510L61 37L61 174L748 547L61 915L61 1053z" />
      <glyph unicode="&#x2C4;" horiz-adv-x="999" d="M463 989L535 989L989 113L852 113L498 799L147 113L10 113z" />
      <glyph unicode="&#x2C5;" horiz-adv-x="999" d="M537 113L465 113L10 989L147 989L502 303L852 989L989 989z" />
      <glyph unicode="&#x2C6;" horiz-adv-x="1182" d="M289 1268C322 1309 342 1335 305 1287C380 1386 399 1413 361 1360C436 1467 453 1494 418 1440C483 1546 494 1569 469 1521L688 1569C712 1521 729 1494 698 1546C763 1440 782 1413 745 1467C820 1360 840 1335 801 1386C877 1287 893 1268 859 1309L893 1241L813 1241C651 1359 590 1425 734 1286C446 1286 369 1241 527 1359L289 1241z" />
      <glyph unicode="&#x2C7;" horiz-adv-x="1182" d="M289 1569L369 1569C407 1543 427 1529 388 1557C466 1498 485 1482 447 1514C522 1449 540 1432 504 1466C574 1398 590 1382 558 1415C621 1415 639 1432 605 1398C675 1466 695 1482 657 1449C734 1514 754 1529 714 1498C793 1557 813 1569 774 1543L893 1569L893 1542C859 1500 840 1475 877 1522C801 1423 782 1396 820 1449C745 1342 729 1316 763 1369C698 1264 688 1241 712 1289L494 1241C469 1289 453 1316 483 1264C418 1369 399 1396 436 1342C361 1449 342 1475 380 1423C305 1522 289 1542 322 1500z" />
      <glyph unicode="&#x2C8;" horiz-adv-x="0" d="M-59 1556L61 1556L61 1229L-59 1229z" />
      <glyph unicode="&#x2C9;" horiz-adv-x="1024" d="M809 1262L215 1262L215 1383L809 1383z" />
      <glyph unicode="&#x2CA;" horiz-adv-x="0" d="M-198 1268C-166 1309 -150 1335 -182 1287C-118 1386 -102 1413 -134 1360C-71 1467 -57 1494 -86 1440C-30 1546 -20 1569 -43 1521L199 1569L199 1548C167 1507 143 1480 186 1530C91 1425 61 1396 118 1453C0 1338 -31 1310 31 1366C-92 1259 -120 1241 -63 1282L-198 1241z" />
      <glyph unicode="&#x2CB;" horiz-adv-x="0" d="M200 1241L122 1241C65 1282 33 1310 94 1259C-30 1366 -60 1396 1 1338C-117 1453 -142 1480 -90 1425C-185 1530 -198 1548 -166 1507L-198 1569L21 1569C44 1521 58 1494 31 1546C88 1440 104 1413 72 1467C136 1360 153 1335 120 1386C185 1287 200 1268 169 1309z" />
      <glyph unicode="&#x2CC;" horiz-adv-x="0" d="M-59 -80L61 -80L61 -408L-59 -408z" />
      <glyph unicode="&#x2CD;" horiz-adv-x="0" d="M-297 -190L297 -190L297 -311L-297 -311z" />
      <glyph unicode="&#x2CE;" horiz-adv-x="0" d="M200 -470L122 -470C65 -428 33 -400 94 -451C-30 -344 -60 -315 1 -372C-117 -257 -142 -230 -90 -285C-185 -181 -198 -163 -166 -203L-198 -142L21 -142C44 -189 58 -216 31 -164C88 -270 104 -297 72 -243C136 -350 153 -376 120 -324C185 -423 200 -443 169 -401z" />
      <glyph unicode="&#x2CF;" horiz-adv-x="0" d="M-198 -443C-166 -401 -150 -376 -182 -423C-118 -324 -102 -297 -134 -350C-71 -243 -57 -216 -86 -270C-30 -164 -20 -142 -43 -189L199 -142L199 -163C167 -203 143 -230 186 -181C91 -285 61 -315 118 -257C0 -372 -31 -400 31 -344C-92 -451 -120 -470 -63 -428L-198 -470z" />
      <glyph unicode="&#x2D0;" horiz-adv-x="0" d="M180 1098L0 819L-180 1098zM180 0L-180 0L0 279z" />
      <glyph unicode="&#x2D1;" horiz-adv-x="0" d="M180 1098L0 819L-180 1098z" />
      <glyph unicode="&#x2D2;" horiz-adv-x="0" d="M-123 594C12 635 12 717 -40 594C-40 840 -123 840 12 798L-123 940C123 855 123 717 21 940C21 494 -123 494 123 578z" />
      <glyph unicode="&#x2D3;" horiz-adv-x="0" d="M123 840C-12 798 -12 717 40 840C40 594 123 594 -12 635L123 494C-123 578 -123 717 -21 494C-21 940 123 940 -123 855z" />
      <glyph unicode="&#x2D4;" horiz-adv-x="0" d="M-53 -309L-53 -106L55 -106L55 -309L197 -309L197 -418L-197 -418L-197 -309z" />
      <glyph unicode="&#x2D5;" horiz-adv-x="0" d="M53 -215L53 -418L-55 -418L-55 -215L-197 -215L-197 -106L197 -106L197 -215z" />
      <glyph unicode="&#x2D6;" horiz-adv-x="0" d="M53 -328L53 -471L-55 -471L-55 -328L-197 -328L-197 -219L-53 -219L-53 -76L55 -76L55 -219L197 -219L197 -328z" />
      <glyph unicode="&#x2D7;" horiz-adv-x="0" d="M238 -336L-238 -336L-238 -227L238 -227z" />
      <glyph unicode="&#x2D8;" horiz-adv-x="1182" d="M590 1241C499 1248 463 1263 541 1241C398 1298 375 1324 427 1278C334 1379 322 1413 351 1349C304 1483 303 1522 310 1447L397 1522C488 1382 590 1382 419 1422C759 1422 782 1522 690 1382L877 1522C869 1447 857 1413 875 1483C828 1349 804 1324 845 1379C751 1278 716 1263 780 1298C638 1241 590 1241 680 1248z" />
      <glyph unicode="&#x2D9;" horiz-adv-x="666" d="M223 1399C226 1443 232 1459 223 1423C246 1488 257 1498 238 1475C280 1515 294 1519 267 1508C323 1525 340 1525 308 1523C371 1523 385 1519 356 1525C411 1508 422 1498 399 1515C441 1475 447 1459 432 1488C457 1423 457 1399 453 1443C453 1355 447 1339 457 1375C432 1310 422 1300 441 1323C399 1282 385 1278 411 1290C356 1272 340 1272 371 1274C308 1274 294 1278 323 1272C267 1290 257 1300 280 1282C238 1323 232 1339 246 1310C223 1375 223 1399 226 1355z" />
      <glyph unicode="&#x2DA;" horiz-adv-x="682" d="M586 1444C579 1375 567 1347 586 1407C536 1296 514 1278 554 1319C466 1245 436 1235 492 1259C374 1221 340 1221 406 1225C274 1225 244 1235 306 1221C187 1259 165 1278 214 1245C125 1319 113 1347 143 1296C94 1407 94 1444 100 1375C100 1512 113 1540 94 1480C143 1591 165 1610 125 1568C214 1642 244 1652 187 1628C306 1667 340 1667 274 1662C406 1662 436 1652 374 1667C492 1628 514 1610 466 1642C554 1568 567 1540 536 1591C586 1480 586 1444 579 1512zM475 1444C471 1484 464 1500 475 1466C447 1528 435 1538 457 1516C408 1555 392 1560 423 1548C358 1567 340 1567 376 1564C303 1564 287 1560 321 1567C256 1548 244 1538 271 1555C222 1516 215 1500 232 1528C205 1466 205 1444 208 1484C208 1403 215 1387 205 1422C232 1359 244 1349 222 1371C271 1332 287 1328 256 1339C321 1321 340 1321 303 1323C376 1323 392 1328 358 1321C423 1339 435 1349 408 1332C457 1371 464 1387 447 1359C475 1422 475 1444 471 1403z" />
      <glyph unicode="&#x2DB;" horiz-adv-x="1024" d="M352 -266C358 -203 372 -175 352 -234C403 -120 426 -96 385 -146C474 -52 503 -36 448 -72C562 -7 594 0 532 -19L711 0C667 -16 645 -30 689 -6C601 -59 583 -79 622 -43C550 -122 538 -148 565 -99C520 -203 520 -236 526 -174C523 -278 530 -294 520 -258C547 -324 560 -334 537 -310C587 -352 605 -357 572 -344C641 -365 662 -365 622 -362C740 -358 791 -348 698 -365L791 -459C768 -469 754 -473 780 -464C726 -480 712 -483 740 -477C683 -487 669 -489 697 -485C643 -492 633 -492 655 -491C550 -487 516 -478 589 -492C451 -455 427 -437 481 -469C384 -395 371 -367 403 -419C352 -305 352 -266 358 -339z" />
      <glyph unicode="&#x2DC;" horiz-adv-x="1182" d="M762 1374C798 1377 810 1383 782 1374C832 1397 839 1407 822 1389C851 1429 854 1442 846 1417C860 1469 862 1483 857 1455L954 1483C946 1421 937 1392 952 1451C915 1337 898 1315 928 1363C859 1274 833 1261 880 1292C775 1241 739 1241 807 1247C669 1247 639 1261 702 1241C582 1289 556 1305 609 1274C506 1336 484 1350 530 1321C440 1370 418 1370 462 1363C381 1367 369 1361 397 1370C347 1347 340 1337 357 1355C328 1315 325 1302 333 1327C319 1276 317 1262 321 1289L225 1262C232 1323 241 1352 227 1293C263 1406 281 1429 250 1380C321 1469 347 1483 299 1451C405 1503 442 1503 373 1496C511 1496 541 1483 478 1503C598 1454 624 1438 571 1469C674 1407 696 1394 650 1422C740 1374 762 1374 718 1380z" />
      <glyph unicode="&#x2DD;" horiz-adv-x="1182" d="M209 1241L209 1268C238 1313 254 1339 223 1290C285 1390 301 1417 270 1364C332 1470 346 1496 317 1443C372 1546 383 1569 360 1522L602 1569L602 1548C584 1521 571 1505 594 1536C543 1471 527 1453 558 1489C492 1415 473 1395 510 1434C435 1356 416 1338 454 1375C377 1301 359 1285 396 1319C324 1253 309 1241 341 1268zM578 1241L578 1268C607 1313 623 1339 592 1290C654 1390 670 1417 639 1364C701 1470 715 1496 686 1443C741 1546 752 1569 729 1522L971 1569L971 1548C953 1521 940 1505 963 1536C912 1471 896 1453 927 1489C861 1415 842 1395 879 1434C804 1356 785 1338 823 1375C746 1301 728 1285 765 1319C693 1253 678 1241 710 1268z" />
      <glyph unicode="&#x2DE;" horiz-adv-x="0" d="M-158 629L-242 604L-270 709L-82 760L-45 629C20 514 68 514 -19 545C158 543 182 582 118 514C238 524 238 483 215 563C168 354 78 354 238 413C-95 417 -145 584 -34 354z" />
      <glyph unicode="&#x2DF;" horiz-adv-x="0" d="M-207 1577L-129 1653L0 1524L131 1653L207 1577L78 1446L207 1317L129 1239L0 1368L-129 1239L-207 1317L-76 1446z" />
      <glyph unicode="&#x2E0;" horiz-adv-x="821" d="M496 731C584 518 584 438 557 615C511 252 406 252 584 323C250 308 250 406 304 252C275 551 350 682 250 480L106 1122C71 1194 10 1194 79 1171L2 1194L2 1270L389 1270L389 1194L371 1194C285 1180 285 1139 309 1194C294 1095 305 1077 285 1121L446 817L578 1067C598 1124 598 1135 587 1091C571 1194 506 1194 598 1180L494 1194L494 1270L821 1270L821 1194L805 1194C728 1148 696 1090 743 1194zM440 416C435 503 397 590 440 450C340 456 340 410 358 519C359 336 393 336 340 362C440 360 440 416 422 336z" />
      <glyph unicode="&#x2E1;" horiz-adv-x="461" d="M53 608C154 638 154 694 134 608L154 1401C125 1481 53 1481 154 1454L20 1481L20 1556L307 1556L307 694C327 608 410 608 307 636L442 608L442 532L20 532L20 608z" />
      <glyph unicode="&#x2E2;" horiz-adv-x="690" d="M324 520C80 576 80 672 169 520C130 772 197 772 80 736C246 596 334 596 197 660C471 648 471 715 422 596C434 798 360 827 471 761C223 888 171 924 286 855C92 1013 92 1083 118 960C198 1280 365 1280 92 1204C582 1226 582 1149 501 1280C535 1059 455 1059 582 1093C422 1204 348 1204 455 1149C231 1162 231 1102 264 1204C268 1016 344 990 231 1054C482 932 533 896 419 964C610 807 610 739 584 860C500 520 324 520 610 601z" />
      <glyph unicode="&#x2E3;" horiz-adv-x="821" d="M528 1159C497 1194 451 1194 528 1184L451 1270L780 1270L780 1194L754 1194C663 1166 625 1114 695 1194L485 936L684 676C751 608 786 608 725 621L817 608L817 532L434 532L434 608L455 608C522 619 522 643 499 608C507 693 477 731 522 663L397 834L389 834L303 719C268 668 268 639 288 697C293 608 360 608 268 617L360 532L4 532L4 608L29 608C124 632 170 690 86 608L342 903L170 1128C102 1194 61 1194 119 1192L31 1194L31 1270L403 1270L403 1194C326 1182 326 1165 340 1194C334 1132 352 1110 326 1150L430 1006L436 1006L498 1092C528 1143 528 1159 514 1114z" />
      <glyph unicode="&#x2E4;" horiz-adv-x="729" d="M82 1282C195 1556 387 1556 82 1443C676 1478 676 1389 559 1556C623 1292 539 1292 676 1326C488 1470 387 1470 539 1408C240 1397 240 1292 293 1470C293 1104 479 1022 240 1170L479 694C497 608 580 608 479 635L610 608L610 532L190 532L190 608L221 608C321 638 321 694 299 608L326 946C82 1132 82 1282 156 1034z" />
      <glyph unicode="&#x2E5;" horiz-adv-x="801" d="M725 1556L725 -492L604 -492L604 1436L68 1436L68 1556z" />
      <glyph unicode="&#x2E6;" horiz-adv-x="801" d="M604 1556L725 1556L725 -492L604 -492L604 954L68 954L68 1073L604 1073z" />
      <glyph unicode="&#x2E7;" horiz-adv-x="801" d="M604 1556L725 1556L725 -492L604 -492L604 471L68 471L68 592L604 592z" />
      <glyph unicode="&#x2E8;" horiz-adv-x="801" d="M68 -10L68 111L604 111L604 1556L725 1556L725 -492L604 -492L604 -10z" />
      <glyph unicode="&#x2E9;" horiz-adv-x="801" d="M725 1556L725 -492L68 -492L68 -373L604 -373L604 1556z" />
      <glyph unicode="&#x2EA;" horiz-adv-x="801" d="M260 1133L260 78L608 78L608 0L182 0L182 1133z" />
      <glyph unicode="&#x2EB;" horiz-adv-x="801" d="M260 604L608 604L608 526L260 526L260 0L182 0L182 1133L260 1133z" />
      <glyph unicode="&#x2EC;" horiz-adv-x="0" d="M-300 -142L-220 -142C-181 -167 -161 -182 -200 -154C-122 -212 -103 -228 -141 -196C-66 -261 -48 -278 -84 -244C-14 -312 1 -329 -30 -295C32 -295 50 -278 16 -312C86 -244 106 -228 68 -261C145 -196 165 -182 125 -212C204 -154 224 -142 185 -167L304 -142L304 -169C270 -210 251 -236 288 -188C212 -287 193 -314 231 -261C156 -368 140 -395 174 -341C109 -446 99 -470 123 -421L-95 -470C-119 -421 -136 -395 -105 -446C-170 -341 -189 -314 -152 -368C-227 -261 -247 -236 -208 -287C-284 -188 -300 -169 -266 -210z" />
      <glyph unicode="&#x2ED;" horiz-adv-x="0" d="M426 1313L-426 1313L-426 1419L426 1419zM426 1526L-426 1526L-426 1630L426 1630z" />
      <glyph unicode="&#x2EE;" horiz-adv-x="922" d="M397 1284C391 1198 379 1158 397 1240C347 1079 320 1045 367 1117C258 979 216 951 293 1010C122 901 61 883 174 923L61 969C256 1073 256 1153 195 1011C252 1177 245 1186 256 1166C228 1203 217 1210 237 1195C193 1224 181 1231 205 1217C156 1245 145 1255 168 1237C124 1275 117 1289 133 1264C106 1320 106 1341 109 1303C164 1462 240 1462 106 1419C281 1458 300 1450 261 1462C335 1431 350 1416 318 1442C376 1382 384 1360 364 1401C397 1312 397 1284 392 1338zM807 1284C801 1198 789 1158 807 1240C757 1079 730 1045 777 1117C668 979 626 951 703 1010C532 901 471 883 584 923L471 969C666 1073 666 1153 604 1011C662 1177 655 1186 666 1166C638 1203 627 1210 647 1195C603 1224 591 1231 615 1217C566 1245 555 1255 578 1237C534 1275 527 1289 543 1264C516 1320 516 1341 519 1303C573 1462 649 1462 516 1419C690 1458 709 1450 670 1462C745 1431 759 1416 728 1442C785 1382 794 1360 773 1401C807 1312 807 1284 802 1338z" />
      <glyph unicode="&#x2EF;" horiz-adv-x="0" d="M0 -301C96 -135 160 -57 42 -210L264 -57L264 -78C108 -348 51 -492 168 -211L-49 -492C-205 -158 -264 -78 -157 -234L-264 -57L-160 -57C-42 -210 0 -301 -96 -135z" />
      <glyph unicode="&#x2F0;" horiz-adv-x="0" d="M0 -248C-96 -413 -160 -492 -42 -338L-264 -492L-264 -471C-143 -281 -51 -57 -194 -375L49 -57C186 -364 264 -471 121 -238L264 -492L160 -492C42 -338 0 -248 96 -413z" />
      <glyph unicode="&#x2F1;" horiz-adv-x="0" d="M-27 -227C138 -323 217 -387 63 -269L217 -492L197 -492C-74 -336 -217 -279 62 -394L-217 -178C99 -33 197 37 11 -84L217 37L217 -68C63 -184 -27 -227 138 -132z" />
      <glyph unicode="&#x2F2;" horiz-adv-x="0" d="M27 -227C-138 -132 -217 -68 -63 -184L-217 37L-197 37C73 -118 217 -176 -62 -59L217 -276C-127 -441 -197 -492 -71 -398L-217 -492L-217 -387C-63 -269 27 -227 -138 -323z" />
      <glyph unicode="&#x2F3;" horiz-adv-x="682" d="M567 -287C561 -349 549 -375 567 -320C521 -421 501 -439 537 -400C456 -469 429 -478 480 -456C372 -492 340 -492 401 -487C278 -487 251 -478 308 -492C199 -456 179 -439 223 -469C142 -400 130 -375 158 -421C113 -320 113 -287 118 -349C118 -224 130 -199 113 -253C158 -152 179 -135 142 -173C223 -104 251 -95 199 -117C308 -82 340 -82 278 -86C401 -86 429 -95 372 -82C480 -117 501 -135 456 -104C537 -173 549 -199 521 -152C567 -253 567 -287 561 -224zM457 -287C453 -252 447 -239 457 -268C432 -215 422 -207 441 -226C399 -192 385 -188 411 -198C356 -182 340 -182 371 -184C223 -213 223 -287 276 -182C226 -321 232 -335 223 -305C247 -359 257 -367 238 -348C280 -381 294 -385 267 -375C324 -391 340 -391 308 -389C371 -389 385 -385 356 -391C411 -375 422 -367 399 -381C441 -348 447 -335 432 -359C457 -305 457 -287 453 -321z" />
      <glyph unicode="&#x2F4;" horiz-adv-x="0" d="M199 580L121 580C-147 813 -199 887 26 642L-199 907L20 907C148 670 199 606 61 816z" />
      <glyph unicode="&#x2F5;" horiz-adv-x="0" d="M-380 574L-380 601C-351 646 -335 672 -366 623C-303 723 -287 750 -319 697C-257 803 -243 829 -271 776C-216 879 -206 902 -229 855L13 902L13 881C-4 854 -17 838 5 869C-45 804 -62 786 -30 822C-96 748 -115 728 -78 767C-153 689 -173 671 -134 708C-211 634 -229 618 -192 652C-264 586 -280 574 -247 601zM-11 574L-11 601C18 646 34 672 3 623C65 723 81 750 50 697C112 803 126 829 97 776C152 879 163 902 140 855L382 902L382 881C364 854 351 838 374 869C323 804 307 786 338 822C272 748 253 728 290 767C215 689 196 671 234 708C157 634 139 618 176 652C104 586 89 574 121 601z" />
      <glyph unicode="&#x2F6;" horiz-adv-x="0" d="M281 573C26 815 -12 881 185 649L-12 901L207 901C269 776 381 600 233 843L381 573zM-88 573C-337 809 -381 881 -164 633L-381 901L-162 901C-100 776 12 600 -135 843L12 573z" />
      <glyph unicode="&#x2F7;" horiz-adv-x="0" d="M172 -260C260 -238 272 -152 229 -260L365 -152C280 -393 150 -393 355 -293C-110 -264 -172 -264 31 -393C-258 -281 -272 -373 -228 -264L-365 -373C-280 -131 -147 -131 -355 -230C113 -260 172 -260 -32 -131z" />
      <glyph unicode="&#x2F8;" horiz-adv-x="0" d="M-127 541C-82 680 0 680 -127 634C127 631 127 541 82 680C77 401 0 401 127 450C-127 443 -127 541 -72 401zM-127 1417C-82 1556 0 1556 -127 1511C127 1510 127 1417 81 1556C77 1278 0 1278 127 1327C-127 1325 -127 1417 -77 1278z" />
      <glyph unicode="&#x2F9;" horiz-adv-x="0" d="M-170 1395L170 1395L170 1286L-61 1286L-61 1055L-170 1055z" />
      <glyph unicode="&#x2FA;" horiz-adv-x="0" d="M170 1395L170 1055L61 1055L61 1286L-170 1286L-170 1395z" />
      <glyph unicode="&#x2FB;" horiz-adv-x="0" d="M-170 487L-170 827L-61 827L-61 596L170 596L170 487z" />
      <glyph unicode="&#x2FC;" horiz-adv-x="0" d="M170 487L-170 487L-170 596L61 596L61 827L170 827z" />
      <glyph unicode="&#x2FD;" horiz-adv-x="0" d="M457 -426L-457 -426L-457 -88L-358 -88L-358 -291L356 -291L356 -88L457 -88z" />
      <glyph unicode="&#x2FE;" horiz-adv-x="0" d="M457 -426L-457 -426L-457 -88L-358 -88L-358 -291L457 -291z" />
      <glyph unicode="&#x2FF;" horiz-adv-x="0" d="M-8 -59C-127 -140 -195 -178 -58 -100L442 -178L442 -276L-197 -276C-58 -354 -8 -397 -129 -310L-8 -492L-29 -492C-298 -336 -442 -279 -162 -394L-442 -178C-122 -31 -29 37 -212 -84L-8 37z" />
      <glyph unicode="&#x300;" horiz-adv-x="0" d="M-482 1241L-560 1241C-617 1282 -649 1310 -587 1259C-712 1366 -742 1396 -681 1338C-799 1453 -824 1480 -772 1425C-867 1530 -880 1548 -848 1507L-880 1569L-661 1569C-637 1521 -623 1494 -650 1546C-594 1440 -578 1413 -609 1467C-545 1360 -529 1335 -562 1386C-496 1287 -482 1268 -512 1309z" />
      <glyph unicode="&#x301;" horiz-adv-x="0" d="M-700 1268C-668 1309 -652 1335 -684 1287C-620 1386 -604 1413 -636 1360C-573 1467 -559 1494 -588 1440C-532 1546 -522 1569 -545 1521L-303 1569L-303 1548C-334 1507 -359 1480 -315 1530C-411 1425 -441 1396 -383 1453C-501 1338 -533 1310 -471 1366C-594 1259 -622 1241 -565 1282L-700 1241z" />
      <glyph unicode="&#x302;" horiz-adv-x="0" d="M-894 1268C-860 1309 -841 1335 -878 1287C-802 1386 -783 1413 -821 1360C-746 1467 -730 1494 -764 1440C-699 1546 -689 1569 -713 1521L-495 1569C-470 1521 -454 1494 -484 1546C-419 1440 -400 1413 -437 1467C-362 1360 -343 1335 -381 1386C-306 1287 -290 1268 -323 1309L-290 1241L-370 1241C-531 1359 -593 1425 -448 1286C-736 1286 -814 1241 -655 1359L-894 1241z" />
      <glyph unicode="&#x303;" horiz-adv-x="0" d="M-478 1374C-441 1377 -429 1383 -458 1374C-407 1397 -400 1407 -417 1389C-388 1429 -385 1442 -393 1417C-380 1469 -378 1483 -382 1455L-286 1483C-293 1421 -302 1392 -288 1451C-324 1337 -342 1315 -311 1363C-381 1274 -407 1261 -359 1292C-464 1241 -501 1241 -433 1247C-570 1247 -600 1261 -537 1241C-657 1289 -683 1305 -630 1274C-733 1336 -755 1350 -709 1321C-800 1370 -822 1370 -777 1363C-859 1367 -871 1361 -842 1370C-892 1347 -899 1337 -883 1355C-911 1315 -915 1302 -906 1327C-921 1276 -923 1262 -918 1289L-1015 1262C-1007 1323 -998 1352 -1013 1293C-976 1406 -958 1429 -989 1380C-918 1469 -892 1483 -940 1451C-834 1503 -798 1503 -866 1496C-728 1496 -698 1483 -761 1503C-641 1454 -615 1438 -668 1469C-565 1407 -543 1394 -589 1422C-499 1374 -478 1374 -521 1380z" />
      <glyph unicode="&#x304;" horiz-adv-x="0" d="M298 1262L-296 1262L-296 1383L298 1383z" />
      <glyph unicode="&#x305;" horiz-adv-x="0" d="M418 1556L-418 1556L-418 1677L418 1677z" />
      <glyph unicode="&#x306;" horiz-adv-x="0" d="M1 1241C-89 1248 -125 1263 -47 1241C-190 1298 -214 1324 -161 1278C-254 1379 -266 1413 -237 1349C-284 1483 -286 1522 -278 1447L-192 1522C-100 1382 1 1382 -169 1422C170 1422 193 1522 101 1382L288 1522C280 1447 268 1413 286 1483C239 1349 215 1324 256 1379C162 1278 127 1263 191 1298C49 1241 1 1241 91 1248z" />
      <glyph unicode="&#x307;" horiz-adv-x="0" d="M-116 1399C-113 1443 -107 1459 -116 1423C-92 1488 -82 1498 -101 1475C-59 1515 -45 1519 -71 1508C-15 1525 1 1525 -31 1523C32 1523 46 1519 17 1525C72 1508 83 1498 60 1515C102 1475 108 1459 93 1488C118 1423 118 1399 114 1443C114 1355 108 1339 118 1375C93 1310 83 1300 102 1323C60 1282 46 1278 72 1290C17 1272 1 1272 32 1274C-31 1274 -45 1278 -15 1272C-71 1290 -82 1300 -59 1282C-101 1323 -107 1339 -92 1310C-116 1375 -116 1399 -113 1355z" />
      <glyph unicode="&#x308;" horiz-adv-x="0" d="M-298 1409C-295 1448 -290 1463 -298 1430C-277 1489 -268 1498 -284 1477C-247 1514 -235 1518 -258 1507C-208 1524 -194 1524 -222 1522C-165 1522 -153 1518 -179 1524C-129 1507 -119 1498 -140 1514C-102 1477 -97 1463 -109 1489C-89 1430 -89 1409 -91 1448C-91 1370 -97 1356 -89 1388C-109 1329 -119 1320 -102 1341C-140 1304 -153 1300 -129 1310C-179 1294 -194 1294 -165 1296C-298 1325 -298 1409 -254 1294zM91 1409C93 1448 99 1463 91 1430C111 1489 121 1498 104 1477C141 1514 154 1518 130 1507C180 1524 195 1524 166 1522C223 1522 236 1518 209 1524C259 1507 269 1498 248 1514C286 1477 292 1463 279 1489C300 1430 300 1409 297 1448C297 1370 292 1356 300 1388C279 1329 269 1320 286 1341C248 1304 236 1300 259 1310C209 1294 195 1294 223 1296C91 1325 91 1409 135 1294z" />
      <glyph unicode="&#x309;" horiz-adv-x="0" d="M-569 1327L-580 1208L-682 1208L-696 1393C-522 1441 -522 1501 -580 1405C-556 1577 -625 1577 -522 1551C-743 1549 -788 1495 -689 1577C-829 1533 -829 1571 -815 1507C-759 1679 -621 1679 -829 1643C-379 1623 -379 1511 -459 1679C-442 1349 -569 1327 -379 1411z" />
      <glyph unicode="&#x30A;" horiz-adv-x="0" d="M247 1444C240 1375 228 1347 247 1407C197 1296 175 1278 215 1319C127 1245 97 1235 153 1259C35 1221 1 1221 67 1225C-65 1225 -95 1235 -33 1221C-151 1259 -173 1278 -125 1245C-213 1319 -226 1347 -195 1296C-245 1407 -245 1444 -238 1375C-238 1512 -226 1540 -245 1480C-195 1591 -173 1610 -213 1568C-125 1642 -95 1652 -151 1628C-33 1667 1 1667 -65 1662C67 1662 97 1652 35 1667C153 1628 175 1610 127 1642C215 1568 228 1540 197 1591C247 1480 247 1444 240 1512zM136 1444C132 1484 125 1500 136 1466C108 1528 96 1538 118 1516C69 1555 53 1560 84 1548C19 1567 1 1567 37 1564C-35 1564 -51 1560 -17 1567C-82 1548 -94 1538 -67 1555C-116 1516 -123 1500 -106 1528C-134 1466 -134 1444 -130 1484C-130 1403 -123 1387 -134 1422C-106 1359 -94 1349 -116 1371C-67 1332 -51 1328 -82 1339C-17 1321 1 1321 -35 1323C37 1323 53 1328 19 1321C84 1339 96 1349 69 1332C118 1371 125 1387 108 1359C136 1422 136 1444 132 1403z" />
      <glyph unicode="&#x30B;" horiz-adv-x="0" d="M-302 1241L-302 1268C-273 1313 -257 1339 -288 1290C-225 1390 -209 1417 -241 1364C-179 1470 -165 1496 -193 1443C-138 1546 -128 1569 -151 1522L91 1569L91 1548C73 1521 60 1505 83 1536C32 1471 16 1453 47 1489C-18 1415 -37 1395 0 1434C-75 1356 -95 1338 -56 1375C-133 1301 -151 1285 -114 1319C-186 1253 -202 1241 -169 1268zM67 1241L67 1268C96 1313 112 1339 81 1290C143 1390 159 1417 128 1364C190 1470 204 1496 175 1443C230 1546 241 1569 218 1522L460 1569L460 1548C442 1521 429 1505 452 1536C401 1471 385 1453 416 1489C350 1415 331 1395 368 1434C293 1356 274 1338 312 1375C235 1301 217 1285 254 1319C182 1253 167 1241 199 1268z" />
      <glyph unicode="&#x30C;" horiz-adv-x="0" d="M-898 1569L-818 1569C-779 1543 -759 1529 -798 1557C-720 1498 -701 1482 -739 1514C-664 1449 -646 1432 -682 1466C-612 1398 -597 1382 -628 1415C-565 1415 -547 1432 -581 1398C-511 1466 -492 1482 -529 1449C-453 1514 -433 1529 -472 1498C-393 1557 -374 1569 -413 1543L-294 1569L-294 1542C-327 1500 -347 1475 -310 1522C-385 1423 -404 1396 -366 1449C-441 1342 -458 1316 -423 1369C-488 1264 -499 1241 -474 1289L-693 1241C-717 1289 -734 1316 -703 1264C-768 1369 -787 1396 -750 1342C-825 1449 -845 1475 -806 1423C-882 1522 -898 1542 -864 1500z" />
      <glyph unicode="&#x30D;" horiz-adv-x="0" d="M57 1556L57 1221L-57 1221L-57 1556z" />
      <glyph unicode="&#x30E;" horiz-adv-x="0" d="M-90 1556L-90 1221L-205 1221L-205 1556zM205 1556L205 1221L90 1221L90 1556z" />
      <glyph unicode="&#x30F;" horiz-adv-x="0" d="M-326 1241L-426 1241C-623 1432 -698 1548 -532 1330L-698 1569L-500 1569C-388 1356 -326 1268 -446 1457zM-688 1241L-788 1241C-986 1433 -1061 1548 -895 1331L-1061 1569L-862 1569C-750 1356 -688 1268 -808 1457z" />
      <glyph unicode="&#x310;" horiz-adv-x="0" d="M104 1591C60 1477 0 1477 104 1508C-104 1513 -104 1591 -64 1477C-58 1706 0 1706 -104 1675C104 1667 104 1591 68 1706zM0 1221C-284 1337 -287 1501 -181 1221L-193 1501C-100 1362 0 1362 -170 1402C170 1402 193 1501 100 1362L287 1501C177 1221 0 1221 280 1329z" />
      <glyph unicode="&#x311;" horiz-adv-x="0" d="M0 1522C280 1417 287 1241 173 1522L193 1241C100 1380 0 1380 170 1339C-170 1339 -193 1241 -100 1380L-287 1241C-177 1522 0 1522 -284 1410z" />
      <glyph unicode="&#x312;" horiz-adv-x="0" d="M-167 1063C-161 1148 -149 1189 -167 1106C-117 1267 -90 1302 -137 1229C-28 1367 14 1395 -63 1336C108 1446 169 1464 56 1423L169 1378C-26 1274 -26 1194 34 1335C-22 1169 -15 1160 -26 1180C1 1143 13 1136 -7 1151C36 1122 49 1116 24 1129C73 1101 85 1092 61 1109C105 1071 113 1057 96 1082C124 1026 124 1006 120 1043C66 885 -10 885 124 927C-50 888 -69 896 -30 885C-105 915 -120 930 -88 904C-146 964 -154 986 -134 945C-167 1034 -167 1063 -162 1008z" />
      <glyph unicode="&#x313;" horiz-adv-x="0" d="M169 1284C163 1198 151 1158 169 1240C119 1079 92 1045 139 1117C30 979 -11 951 65 1010C-105 901 -167 883 -53 923L-167 969C28 1073 28 1153 -32 1011C24 1177 17 1186 28 1166C0 1203 -11 1210 9 1195C-34 1224 -47 1231 -22 1217C-71 1245 -83 1255 -59 1237C-103 1275 -111 1289 -94 1264C-122 1320 -122 1341 -118 1303C-64 1462 12 1462 -122 1419C53 1458 72 1450 33 1462C107 1431 122 1416 90 1442C148 1382 156 1360 136 1401C169 1312 169 1284 164 1338z" />
      <glyph unicode="&#x314;" horiz-adv-x="0" d="M-167 1284C-162 1338 -154 1360 -167 1312C-134 1401 -120 1416 -146 1382C-88 1442 -69 1450 -105 1431C-30 1462 -10 1462 -50 1458C124 1419 124 1341 66 1462C120 1303 113 1289 124 1320C96 1264 85 1255 105 1275C61 1237 49 1231 73 1245C24 1217 13 1210 36 1224C-7 1195 -15 1186 1 1203C-26 1166 -26 1153 -22 1177C34 1011 169 969 -26 1073L169 883C56 923 14 951 108 901C-63 1010 -90 1045 -28 979C-137 1117 -149 1158 -117 1079C-167 1240 -167 1284 -161 1198z" />
      <glyph unicode="&#x315;" horiz-adv-x="0" d="M169 1284C163 1198 151 1158 169 1240C119 1079 92 1045 139 1117C30 979 -11 951 65 1010C-105 901 -167 883 -53 923L-167 969C28 1073 28 1153 -32 1011C24 1177 17 1186 28 1166C0 1203 -11 1210 9 1195C-34 1224 -47 1231 -22 1217C-71 1245 -83 1255 -59 1237C-103 1275 -111 1289 -94 1264C-122 1320 -122 1341 -118 1303C-64 1462 12 1462 -122 1419C53 1458 72 1450 33 1462C107 1431 122 1416 90 1442C148 1382 156 1360 136 1401C169 1312 169 1284 164 1338z" />
      <glyph unicode="&#x316;" horiz-adv-x="0" d="M200 -470L122 -470C65 -428 33 -400 94 -451C-30 -344 -60 -315 1 -372C-117 -257 -142 -230 -90 -285C-185 -181 -198 -163 -166 -203L-198 -142L21 -142C44 -189 58 -216 31 -164C88 -270 104 -297 72 -243C136 -350 153 -376 120 -324C185 -423 200 -443 169 -401z" />
      <glyph unicode="&#x317;" horiz-adv-x="0" d="M-198 -443C-166 -401 -150 -376 -182 -423C-118 -324 -102 -297 -134 -350C-71 -243 -57 -216 -86 -270C-30 -164 -20 -142 -43 -189L199 -142L199 -163C167 -203 143 -230 186 -181C91 -285 61 -315 118 -257C0 -372 -31 -400 31 -344C-92 -451 -120 -470 -63 -428L-198 -470z" />
      <glyph unicode="&#x318;" horiz-adv-x="0" d="M47 -309L-156 -309L-156 -201L47 -201L47 -78L156 -78L156 -432L47 -432z" />
      <glyph unicode="&#x319;" horiz-adv-x="0" d="M-47 -203L156 -203L156 -311L-47 -311L-47 -434L-156 -434L-156 -80L-47 -80z" />
      <glyph unicode="&#x31A;" horiz-adv-x="0" d="M283 1552L283 1241L174 1241L174 1444L-283 1444L-283 1552z" />
      <glyph unicode="&#x31B;" horiz-adv-x="0" d="M-190 1192C-14 1258 -14 1333 -78 1209C-102 1403 -102 1475 -14 1374C-62 1577 14 1577 -102 1532C139 1529 139 1448 94 1577C26 1152 -190 1112 139 1258z" />
      <glyph unicode="&#x31C;" horiz-adv-x="0" d="M123 -144C-12 -185 -12 -267 40 -144C40 -390 123 -390 -12 -348L123 -490C-123 -405 -123 -267 -21 -490C-21 -44 123 -44 -123 -128z" />
      <glyph unicode="&#x31D;" horiz-adv-x="0" d="M-53 -309L-53 -106L55 -106L55 -309L197 -309L197 -418L-197 -418L-197 -309z" />
      <glyph unicode="&#x31E;" horiz-adv-x="0" d="M53 -215L53 -418L-55 -418L-55 -215L-197 -215L-197 -106L197 -106L197 -215z" />
      <glyph unicode="&#x31F;" horiz-adv-x="0" d="M53 -328L53 -471L-55 -471L-55 -328L-197 -328L-197 -219L-53 -219L-53 -76L55 -76L55 -219L197 -219L197 -328z" />
      <glyph unicode="&#x320;" horiz-adv-x="0" d="M-297 -190L297 -190L297 -311L-297 -311z" />
      <glyph unicode="&#x321;" horiz-adv-x="0" d="M1 86L1 -100C-70 -403 -212 -403 1 -302C-368 -365 -368 -291 -316 -403C-357 -235 -337 -215 -368 -261C-270 -248 -231 -248 -305 -237C-114 -198 -114 -100 -153 -248L-114 86z" />
      <glyph unicode="&#x322;" horiz-adv-x="0" d="M115 86L115 -100C149 -248 231 -248 115 -197C304 -237 338 -215 276 -248C369 -257 369 -291 356 -233C309 -403 213 -403 369 -365C0 -308 0 -100 69 -403L0 86z" />
      <glyph unicode="&#x323;" horiz-adv-x="0" d="M-612 -121C-496 -163 -496 -248 -534 -121C-534 -375 -612 -375 -496 -332C-729 -332 -729 -248 -690 -375C-690 -121 -612 -121 -729 -163z" />
      <glyph unicode="&#x324;" horiz-adv-x="0" d="M-298 -245C-295 -205 -290 -191 -298 -223C-277 -164 -268 -155 -284 -176C-247 -140 -235 -136 -258 -146C-208 -130 -194 -130 -222 -132C-165 -132 -153 -136 -179 -130C-129 -146 -119 -155 -140 -140C-102 -176 -97 -191 -109 -164C-89 -223 -89 -245 -91 -205C-91 -283 -97 -298 -89 -265C-109 -324 -119 -334 -102 -312C-140 -350 -153 -354 -129 -343C-179 -360 -194 -360 -165 -358C-298 -329 -298 -245 -254 -360zM91 -245C93 -205 99 -191 91 -223C111 -164 121 -155 104 -176C141 -140 154 -136 130 -146C180 -130 195 -130 166 -132C223 -132 236 -136 209 -130C259 -146 269 -155 248 -140C286 -176 292 -191 279 -164C300 -223 300 -245 297 -205C297 -283 292 -298 300 -265C279 -324 269 -334 286 -312C248 -350 236 -354 259 -343C209 -360 195 -360 223 -358C91 -329 91 -245 135 -360z" />
      <glyph unicode="&#x325;" horiz-adv-x="0" d="M227 -287C132 -492 0 -492 227 -413C-227 -413 -227 -287 -132 -492C-132 -82 0 -82 -227 -160C227 -160 227 -287 132 -82zM117 -287C72 -182 0 -182 117 -221C-117 -221 -117 -287 -72 -182C-76 -391 0 -391 -117 -352C117 -352 117 -287 76 -391z" />
      <glyph unicode="&#x326;" horiz-adv-x="0" d="M-117 -426C-72 -223 -55 -125 -94 -335L143 -125L143 -145C29 -371 -27 -453 104 -234L-117 -453z" />
      <glyph unicode="&#x327;" horiz-adv-x="0" d="M216 -258C120 -492 -54 -492 216 -403C-76 -491 -90 -490 -64 -492C-117 -488 -131 -486 -103 -489C-159 -481 -173 -478 -145 -484C-200 -472 -212 -469 -187 -475L-212 -365C-110 -381 -73 -381 -162 -375C52 -336 52 -266 5 -381C-12 -147 -102 -141 52 -186L-59 18L38 18L17 -70C216 -150 216 -258 150 -80z" />
      <glyph unicode="&#x328;" horiz-adv-x="0" d="M-218 -266C-211 -203 -198 -175 -218 -234C-166 -120 -144 -96 -184 -146C-95 -52 -66 -36 -121 -72C-7 -7 24 0 -37 -19L141 0C97 -16 75 -30 119 -6C31 -59 13 -79 52 -43C-20 -122 -32 -148 -4 -99C-50 -203 -50 -236 -44 -174C-46 -278 -39 -294 -50 -258C-22 -324 -10 -334 -32 -310C17 -352 35 -357 2 -344C71 -365 92 -365 52 -362C170 -358 221 -348 128 -365L221 -459C198 -469 184 -473 210 -464C156 -480 142 -483 170 -477C113 -487 99 -489 127 -485C73 -492 63 -492 85 -491C-19 -487 -54 -478 19 -492C-118 -455 -142 -437 -88 -469C-185 -395 -198 -367 -166 -419C-218 -305 -218 -266 -211 -339z" />
      <glyph unicode="&#x329;" horiz-adv-x="0" d="M-59 -80L61 -80L61 -408L-59 -408z" />
      <glyph unicode="&#x32A;" horiz-adv-x="0" d="M270 -463L270 -438C211 -270 90 -270 270 -311L-90 -270C-270 -319 -270 -438 -216 -270L-270 -463L-369 -463L-369 -147L369 -147L369 -463z" />
      <glyph unicode="&#x32B;" horiz-adv-x="0" d="M137 -375C12 -341 -10 -291 57 -375C-78 -375 -158 -375 -32 -341C-324 -315 -328 -133 -272 -375L-242 -133C-219 -276 -158 -276 -239 -243C-55 -241 -51 -133 -83 -276L31 -133C57 -276 137 -276 33 -231C239 -246 242 -133 213 -276L328 -133C255 -375 137 -375 321 -309z" />
      <glyph unicode="&#x32C;" horiz-adv-x="0" d="M301 -150C130 -375 96 -451 213 -256L-98 -451C-229 -238 -303 -150 -132 -375L-303 -123L-223 -123C-61 -241 0 -307 -144 -168C142 -168 221 -123 61 -241L301 -123z" />
      <glyph unicode="&#x32D;" horiz-adv-x="0" d="M-303 -424C-132 -197 -98 -123 -239 -346L96 -123C225 -332 301 -424 132 -200L301 -451L221 -451C59 -332 -2 -266 142 -405C-144 -405 -223 -451 -63 -332L-303 -451z" />
      <glyph unicode="&#x32E;" horiz-adv-x="0" d="M0 -420C-284 -305 -287 -139 -181 -420L-193 -139C-100 -279 0 -279 -170 -239C170 -239 193 -139 100 -279L287 -139C177 -420 0 -420 281 -312z" />
      <glyph unicode="&#x32F;" horiz-adv-x="0" d="M0 -139C280 -244 287 -420 173 -139L193 -420C100 -281 0 -281 170 -321C-170 -321 -193 -420 -100 -281L-287 -420C-177 -139 0 -139 -284 -250z" />
      <glyph unicode="&#x330;" horiz-adv-x="0" d="M172 -248C260 -225 272 -139 230 -248L365 -139C280 -381 150 -381 355 -281C-110 -252 -172 -252 31 -381C-258 -268 -272 -360 -226 -252L-365 -360C-280 -119 -147 -119 -355 -218C113 -248 172 -248 -32 -119z" />
      <glyph unicode="&#x331;" horiz-adv-x="0" d="M297 -283L-297 -283L-297 -162L297 -162z" />
      <glyph unicode="&#x332;" horiz-adv-x="819" d="M840 -283L-20 -283L-20 -162L840 -162z" />
      <glyph unicode="&#x333;" horiz-adv-x="819" d="M840 -451L-20 -451L-20 -330L840 -330zM840 -205L-20 -205L-20 -84L840 -84z" />
      <glyph unicode="&#x334;" horiz-adv-x="0" d="M173 584C209 587 221 593 193 584C243 607 250 617 233 599C262 639 265 652 257 627C271 679 273 693 268 665L365 693C357 631 348 602 363 661C326 547 309 525 339 573C270 484 244 471 291 502C186 451 150 451 218 457C80 457 50 471 113 451C-6 499 -32 515 20 484C-82 546 -104 560 -58 531C-149 580 -171 580 -126 573C-208 577 -220 571 -191 580C-241 557 -248 547 -232 565C-260 525 -264 512 -255 537C-270 486 -272 472 -267 499L-364 472C-356 533 -347 562 -362 503C-325 616 -307 639 -338 590C-267 679 -241 693 -289 661C-183 713 -147 713 -215 706C-77 706 -47 693 -110 713C9 664 35 648 -17 679C85 617 107 604 61 632C151 584 173 584 129 590z" />
      <glyph unicode="&#x335;" horiz-adv-x="0" d="M358 512L-358 512L-358 633L358 633z" />
      <glyph unicode="&#x336;" horiz-adv-x="0" d="M635 512L-635 512L-635 633L635 633z" />
      <glyph unicode="&#x337;" horiz-adv-x="0" d="M338 705L-276 340L-338 444L276 809z" />
      <glyph unicode="&#x338;" horiz-adv-x="0" d="M373 1532L-305 -164L-418 -119L260 1577z" />
      <glyph unicode="&#x339;" horiz-adv-x="0" d="M-123 -391C12 -349 12 -268 -40 -391C-40 -145 -123 -145 12 -186L-123 -45C123 -129 123 -268 21 -45C22 -492 -123 -492 123 -405z" />
      <glyph unicode="&#x33A;" horiz-adv-x="0" d="M-270 -147L-270 -172C-215 -340 -90 -340 -270 -297L90 -340C270 -290 270 -172 216 -340L270 -147L369 -147L369 -492L-369 -492L-369 -147z" />
      <glyph unicode="&#x33B;" horiz-adv-x="0" d="M188 -471L-188 -471L-188 -94L188 -94zM92 -375L92 -188L-92 -188L-92 -375z" />
      <glyph unicode="&#x33C;" horiz-adv-x="0" d="M-137 -133C-12 -166 10 -217 -57 -133C78 -133 158 -133 32 -166C320 -177 328 -375 264 -133L242 -375C220 -231 158 -231 239 -265C55 -268 51 -375 82 -231L-31 -375C-61 -231 -137 -231 -35 -268C-239 -264 -242 -375 -214 -231L-328 -375C-261 -133 -137 -133 -325 -211z" />
      <glyph unicode="&#x33D;" horiz-adv-x="0" d="M0 1288L-102 1188L-178 1264L-78 1364L-178 1466L-102 1542L0 1440L102 1542L178 1464L78 1364L176 1264L100 1188z" />
      <glyph unicode="&#x33E;" horiz-adv-x="0" d="M2 1612C131 1443 131 1350 2 1562C42 1180 -111 1171 131 1244L-111 1264C-2 1296 -2 1346 -23 1272C-131 1512 -131 1610 -2 1395C-34 1779 111 1786 -131 1715L111 1694C2 1660 2 1612 28 1686z" />
      <glyph unicode="&#x33F;" horiz-adv-x="0" d="M430 1556L-430 1556L-430 1677L430 1677zM430 1802L-430 1802L-430 1923L430 1923z" />
      <glyph unicode="&#x340;" horiz-adv-x="0" d="M139 1241L61 1241C4 1282 -28 1310 33 1259C-91 1366 -121 1396 -60 1338C-178 1453 -203 1480 -151 1425C-246 1530 -259 1548 -227 1507L-259 1569L-40 1569C-16 1521 -2 1494 -29 1546C27 1440 43 1413 11 1467C75 1360 92 1335 59 1386C124 1287 139 1268 108 1309z" />
      <glyph unicode="&#x341;" horiz-adv-x="0" d="M-136 1268C-104 1309 -88 1335 -120 1287C-56 1386 -40 1413 -72 1360C-9 1467 4 1494 -24 1440C31 1546 42 1569 18 1521L261 1569L261 1548C229 1507 205 1480 248 1530C153 1425 123 1396 180 1453C62 1338 30 1310 93 1366C-30 1259 -58 1241 -1 1282L-136 1241z" />
      <glyph unicode="&#x342;" horiz-adv-x="0" d="M173 1374C209 1377 221 1383 193 1374C243 1397 250 1407 233 1389C262 1429 265 1442 257 1417C271 1469 273 1483 268 1455L365 1483C357 1421 348 1392 363 1451C326 1337 309 1315 339 1363C270 1274 244 1261 291 1292C186 1241 150 1241 218 1247C80 1247 50 1261 113 1241C-6 1289 -32 1305 20 1274C-82 1336 -104 1350 -58 1321C-149 1370 -171 1370 -126 1363C-208 1367 -220 1361 -191 1370C-241 1347 -248 1337 -232 1355C-260 1315 -264 1302 -255 1327C-270 1276 -272 1262 -267 1289L-364 1262C-356 1323 -347 1352 -362 1293C-325 1406 -307 1429 -338 1380C-267 1469 -241 1483 -289 1451C-183 1503 -147 1503 -215 1496C-77 1496 -47 1483 -110 1503C9 1454 35 1438 -17 1469C85 1407 107 1394 61 1422C151 1374 173 1374 129 1380z" />
      <glyph unicode="&#x343;" horiz-adv-x="0" d="M-120 1161C-75 1363 -59 1462 -97 1251L140 1462L140 1442C119 1396 106 1370 130 1420C78 1316 62 1288 92 1343C31 1232 15 1206 46 1260C-16 1155 -30 1134 -1 1179L-120 1134z" />
      <glyph unicode="&#x344;" horiz-adv-x="0" d="M-313 1335C-270 1437 -216 1437 -313 1407C-191 1435 -179 1431 -203 1437C-157 1420 -149 1412 -167 1427C-133 1393 -128 1381 -140 1404C-120 1353 -120 1335 -122 1368C-165 1232 -216 1232 -120 1264C-313 1264 -313 1335 -270 1232zM124 1335C166 1437 220 1437 124 1407C244 1435 256 1431 232 1437C278 1420 287 1412 268 1427C302 1393 308 1381 295 1404C316 1353 316 1335 313 1368C270 1232 220 1232 316 1264C124 1264 124 1335 166 1232zM-71 1355C-54 1395 -46 1421 -63 1373C-30 1472 -22 1500 -38 1446C-6 1555 0 1582 -14 1528C10 1634 13 1656 5 1609L197 1656L197 1636C183 1597 169 1571 193 1619C137 1516 117 1486 154 1544C77 1428 56 1400 97 1456C15 1348 -3 1329 34 1372L-71 1329z" />
      <glyph unicode="&#x345;" horiz-adv-x="0" d="M75 -303C96 -381 138 -381 75 -355C187 -377 202 -373 163 -381L202 -451C132 -467 75 -467 171 -461C-75 -401 -75 -303 -15 -467L-75 -143L75 -143z" />
      <glyph unicode="&#x346;" horiz-adv-x="0" d="M270 1241L270 1266C211 1434 90 1434 270 1392L-90 1434C-270 1384 -270 1266 -216 1434L-270 1241L-369 1241L-369 1557L369 1557L369 1241z" />
      <glyph unicode="&#x347;" horiz-adv-x="0" d="M430 -451L-430 -451L-430 -330L430 -330zM430 -205L-430 -205L-430 -84L430 -84z" />
      <glyph unicode="&#x348;" horiz-adv-x="0" d="M-90 -71L-90 -406L-205 -406L-205 -71zM205 -71L205 -406L90 -406L90 -71z" />
      <glyph unicode="&#x349;" horiz-adv-x="0" d="M160 -158L160 -469L51 -469L51 -266L-160 -266L-160 -158z" />
      <glyph unicode="&#x34A;" horiz-adv-x="0" d="M-76 1331C-138 1370 -172 1370 -109 1353C-258 1354 -272 1262 -226 1370L-365 1262C-280 1503 -147 1503 -355 1403C-49 1485 -8 1464 -93 1503L49 1577L139 1532L76 1411C141 1374 172 1374 110 1388C260 1396 272 1483 230 1374L365 1483C280 1241 150 1241 355 1340C49 1257 8 1280 94 1241L-49 1167L-137 1212z" />
      <glyph unicode="&#x34B;" horiz-adv-x="0" d="M-96 1274C-53 1376 0 1376 -96 1344C96 1339 96 1274 57 1376C50 1171 0 1171 96 1203C-96 1203 -96 1274 -53 1171zM-96 1782C-53 1884 0 1884 -96 1852C96 1844 96 1782 57 1884C50 1679 0 1679 96 1711C-96 1711 -96 1782 -53 1679zM172 1540C260 1562 272 1649 230 1540L365 1649C280 1407 150 1407 355 1506C-112 1516 -172 1516 32 1407C-258 1499 -272 1407 -225 1516L-365 1407C-280 1649 -147 1649 -355 1549C113 1540 172 1540 -32 1649z" />
      <glyph unicode="&#x34C;" horiz-adv-x="0" d="M173 1334C209 1337 221 1343 193 1334C243 1357 250 1367 233 1349C262 1389 265 1402 257 1377C271 1429 273 1443 268 1415L365 1443C357 1381 348 1352 363 1411C326 1297 309 1275 339 1323C270 1234 244 1221 291 1252C186 1201 150 1201 218 1207C80 1207 50 1221 113 1201C-6 1249 -32 1265 20 1234C-82 1296 -104 1310 -58 1281C-149 1330 -171 1330 -126 1323C-208 1327 -220 1321 -191 1330C-241 1307 -248 1297 -232 1315C-260 1275 -264 1262 -255 1287C-270 1236 -272 1222 -267 1249L-364 1222C-356 1283 -347 1312 -362 1253C-325 1366 -307 1389 -338 1340C-267 1429 -241 1443 -289 1411C-183 1463 -147 1463 -215 1456C-77 1456 -47 1443 -110 1463C9 1414 35 1398 -17 1429C85 1367 107 1354 61 1382C151 1334 173 1334 129 1340zM173 1640C209 1643 221 1649 193 1640C243 1663 250 1673 233 1655C262 1695 265 1708 257 1683C271 1735 273 1749 268 1721L365 1749C357 1687 348 1658 363 1717C326 1603 309 1581 339 1629C270 1540 244 1527 291 1558C186 1507 150 1507 218 1513C80 1513 50 1527 113 1507C-6 1555 -32 1571 20 1540C-82 1602 -104 1616 -58 1587C-149 1636 -171 1636 -126 1629C-208 1633 -220 1627 -191 1636C-241 1613 -248 1603 -232 1621C-260 1581 -264 1568 -255 1593C-270 1542 -272 1528 -267 1555L-364 1528C-356 1589 -347 1618 -362 1559C-325 1672 -307 1695 -338 1646C-267 1735 -241 1749 -289 1717C-183 1769 -147 1769 -215 1762C-77 1762 -47 1749 -110 1769C9 1720 35 1704 -17 1735C85 1673 107 1660 61 1688C151 1640 173 1640 129 1646z" />
      <glyph unicode="&#x34D;" horiz-adv-x="0" d="M-113 -334L-113 -446L-297 -260L-113 -74L-113 -186L113 -186L113 -74L297 -260L113 -446L113 -334z" />
      <glyph unicode="&#x34E;" horiz-adv-x="0" d="M0 -41L190 -225L78 -225L78 -492L-78 -492L-78 -225L-190 -225z" />
      <glyph unicode="&#x34F;" horiz-adv-x="0" d="M731 1143L623 1143L623 1352L412 1352L412 1462L731 1462zM162 1352L-162 1352L-162 1462L162 1462zM731 571L623 571L623 893L731 893zM-412 1352L-621 1352L-621 1143L-731 1143L-731 1462L-412 1462zM731 0L412 0L412 111L623 111L623 322L731 322zM-621 571L-731 571L-731 893L-621 893zM162 0L-162 0L-162 111L162 111zM-412 0L-731 0L-731 322L-621 322L-621 111L-412 111zM-55 1178C-36 1233 0 1233 -55 1214C55 1214 55 1178 36 1233C36 1122 0 1122 55 1140C-55 1140 -55 1178 -36 1122zM-55 285C-36 340 0 340 -55 321C55 321 55 285 36 340C36 229 0 229 55 247C-55 247 -55 285 -36 229zM-446 676C-502 694 -502 731 -483 676C-483 786 -446 786 -502 767C-391 764 -391 731 -410 786C-410 676 -446 676 -391 697zM457 676C401 694 401 731 419 676C419 786 457 786 401 767C512 767 512 731 493 786C493 676 457 676 512 694zM266 1051C284 1106 322 1106 266 1087C377 1087 377 1051 358 1106C354 995 322 995 377 1013C266 1013 266 1051 288 995zM266 412C284 467 322 467 266 448C377 448 377 412 358 467C354 356 322 356 377 374C266 374 266 412 288 356zM-377 1051C-358 1106 -322 1106 -377 1087C-266 1087 -266 1051 -284 1106C-288 995 -322 995 -266 1013C-377 1013 -377 1051 -354 995zM-377 412C-358 467 -322 467 -377 448C-266 448 -266 412 -284 467C-288 356 -322 356 -266 374C-377 374 -377 412 -354 356zM418 610C473 591 473 555 454 610C454 500 418 500 473 518C362 518 362 555 380 500C380 610 418 610 362 591zM-410 610C-354 591 -354 555 -372 610C-372 500 -410 500 -354 518C-465 521 -465 555 -446 500C-446 610 -410 610 -465 588zM418 963C473 944 473 907 454 963C454 852 418 852 473 870C362 870 362 907 380 852C380 963 418 963 362 940zM-410 963C-354 944 -354 907 -372 963C-372 852 -410 852 -354 870C-465 873 -465 907 -446 852C-446 963 -410 963 -465 940zM121 1145C139 1200 176 1200 121 1181C231 1181 231 1145 212 1200C212 1090 176 1090 231 1108C121 1108 121 1145 139 1090zM121 317C139 373 176 373 121 354C231 354 231 317 212 373C209 262 176 262 231 281C121 281 121 317 142 262zM-231 1145C-212 1200 -176 1200 -231 1181C-121 1181 -121 1145 -139 1200C-139 1090 -176 1090 -121 1108C-231 1108 -231 1145 -212 1090zM-231 317C-212 373 -176 373 -231 354C-121 354 -121 317 -139 373C-142 262 -176 262 -121 281C-231 281 -231 317 -209 262z" />
      <glyph unicode="&#x350;" horiz-adv-x="0" d="M16 1378C-132 1452 -186 1495 -57 1407L-186 1589L-166 1589C6 1484 186 1427 -75 1526L186 1327C-42 1249 -166 1165 80 1291L-186 1165L-186 1260C-40 1356 16 1378 -92 1332z" />
      <glyph unicode="&#x351;" horiz-adv-x="0" d="M0 1569C-117 1528 -117 1456 -68 1569C-76 1343 0 1343 -117 1384L0 1241C-225 1318 -225 1456 -137 1241C-137 1671 0 1671 -225 1588z" />
      <glyph unicode="&#x352;" horiz-adv-x="0" d="M-104 1356C-60 1470 0 1470 -104 1438C104 1432 104 1356 65 1470C64 1241 0 1241 104 1278C-104 1280 -104 1356 -68 1241zM0 1726C280 1618 287 1446 177 1726L193 1446C100 1585 0 1585 170 1544C-170 1544 -193 1446 -100 1585L-287 1446C-181 1726 0 1726 -284 1610z" />
      <glyph unicode="&#x353;" horiz-adv-x="0" d="M-197 -174L-119 -98L0 -217L121 -98L197 -174L78 -295L197 -414L119 -492L0 -373L-119 -492L-197 -414L-76 -295z" />
      <glyph unicode="&#x354;" horiz-adv-x="0" d="M4 -287C145 -352 197 -387 74 -313L197 -492L176 -492C-74 -376 -197 -346 42 -417L-197 -227C29 -164 176 -82 -78 -209L197 -82L197 -186C69 -263 4 -287 138 -227z" />
      <glyph unicode="&#x355;" horiz-adv-x="0" d="M-4 -287C-145 -220 -197 -186 -74 -260L-197 -82L-176 -82C81 -199 197 -227 -42 -156L197 -346C-41 -416 -176 -492 71 -364L-197 -492L-197 -387C-78 -313 -4 -287 -139 -347z" />
      <glyph unicode="&#x356;" horiz-adv-x="0" d="M-209 -287C-350 -220 -401 -186 -279 -260L-401 -82L-381 -82C-127 -203 -29 -227 -230 -166L-29 -346C-253 -421 -381 -492 -161 -366L-401 -492L-401 -387C-274 -311 -209 -287 -331 -339zM197 -299C130 -440 96 -492 170 -369L-8 -492L-8 -471C106 -220 137 -98 66 -337L256 -98C307 -300 401 -471 272 -202L401 -492L297 -492C217 -359 197 -299 255 -432z" />
      <glyph unicode="&#x357;" horiz-adv-x="0" d="M0 1343C117 1384 117 1456 68 1343C76 1569 0 1569 117 1528L0 1671C225 1593 225 1456 137 1671C137 1241 0 1241 225 1324z" />
      <glyph unicode="&#x358;" horiz-adv-x="0" d="M223 1399C226 1443 232 1459 223 1423C246 1488 257 1498 238 1475C280 1515 294 1519 267 1508C323 1525 340 1525 308 1523C371 1523 385 1519 356 1525C411 1508 422 1498 399 1515C441 1475 447 1459 432 1488C457 1423 457 1399 453 1443C453 1355 447 1339 457 1375C432 1310 422 1300 441 1323C399 1282 385 1278 411 1290C356 1272 340 1272 371 1274C308 1274 294 1278 323 1272C267 1290 257 1300 280 1282C238 1323 232 1339 246 1310C223 1375 223 1399 226 1355z" />
      <glyph unicode="&#x359;" horiz-adv-x="0" d="M-18 -242L-68 -61L68 -61L18 -242L188 -111L250 -227L35 -276L250 -326L188 -442L18 -309L68 -492L-68 -492L-18 -309L-188 -442L-250 -326L-35 -276L-250 -227L-188 -111z" />
      <glyph unicode="&#x35A;" horiz-adv-x="0" d="M354 -287C273 -492 147 -492 354 -412C34 -467 0 -426 85 -492C-86 -492 -150 -492 -34 -467C-354 -411 -354 -287 -274 -492C-272 -82 -150 -82 -354 -160C-37 -104 0 -147 -94 -82C85 -82 147 -82 34 -105C354 -160 354 -287 273 -82zM248 -287C207 -180 147 -180 248 -215C49 -216 49 -287 88 -180C88 -393 147 -393 49 -353C248 -355 248 -287 208 -393zM-49 -287C-90 -180 -150 -180 -49 -215C-248 -216 -248 -287 -208 -180C-208 -393 -150 -393 -248 -353C-49 -355 -49 -287 -88 -393z" />
      <glyph unicode="&#x35B;" horiz-adv-x="0" d="M195 1466L125 1221L20 1221L57 1358L-195 1358L-125 1604L-20 1604L-57 1466z" />
      <glyph unicode="&#x35C;" horiz-adv-x="0" d="M1393 -53C1003 -424 621 -424 1247 -303C-4 -313 -152 -53 247 -424L-61 -53C287 -301 621 -301 55 -217C1182 -219 1300 -53 949 -301z" />
      <glyph unicode="&#x35D;" horiz-adv-x="0" d="M1393 1589C1001 1219 621 1219 1247 1335C-12 1339 -152 1589 230 1219L-61 1589C287 1341 621 1341 55 1425C1182 1422 1300 1589 949 1341z" />
      <glyph unicode="&#x35E;" horiz-adv-x="0" d="M-184 1391L1024 1391L1024 1270L-184 1270z" />
      <glyph unicode="&#x35F;" horiz-adv-x="0" d="M-184 -172L1024 -172L1024 -293L-184 -293z" />
      <glyph unicode="&#x360;" horiz-adv-x="0" d="M1030 1243C393 1382 184 1382 760 1243C-34 1341 -80 1241 37 1382L-172 1241C0 1505 190 1505 -129 1406C845 1366 1044 1366 471 1505C1282 1421 1309 1507 1178 1366L1401 1507C1244 1243 1030 1243 1367 1340z" />
      <glyph unicode="&#x361;" horiz-adv-x="0" d="M1300 1219C957 1466 621 1466 1184 1384C63 1392 -61 1219 302 1466L-152 1219C235 1589 621 1589 -9 1469C1242 1476 1393 1219 993 1589z" />
      <glyph unicode="&#x362;" horiz-adv-x="0" d="M-184 -334L-184 -186L840 -186L840 -74L1024 -260L840 -446L840 -334z" />
      <glyph unicode="&#x363;" horiz-adv-x="0" d="M-23 1180C-129 1149 -129 1047 -95 1180C-260 1069 -260 1133 -217 1047C-177 1260 -16 1260 -260 1214C229 1190 229 1038 161 1260L229 715C253 635 315 635 229 652L315 565L117 565L96 659L90 659C-23 553 -102 553 38 577C-315 626 -315 745 -232 553C-218 960 -10 967 -315 895L86 971L86 1038C53 1180 -23 1180 86 1151zM-166 754C-135 649 -74 649 -166 684C86 709 86 811 26 649L86 903L4 899C-166 847 -166 754 -121 892z" />
      <glyph unicode="&#x364;" horiz-adv-x="0" d="M23 553C-289 683 -289 901 -170 553C-182 1260 8 1260 -289 1141C289 1154 289 954 181 1260L289 889L-139 889C-72 649 41 649 -132 723C183 686 221 741 111 649C260 708 260 686 239 733C164 553 23 553 260 620zM6 1178C-125 1103 -137 971 -76 1178L133 971C84 1178 6 1178 130 1104z" />
      <glyph unicode="&#x365;" horiz-adv-x="0" d="M-166 635C-72 657 -72 709 -96 635L-72 1104C-98 1178 -180 1178 -72 1153L-180 1247L74 1247L74 715C94 635 168 635 74 660L197 635L197 565L-195 565L-195 635zM-88 1440C-52 1526 -4 1526 -88 1504C80 1494 80 1440 49 1526C42 1354 -4 1354 80 1377C-88 1377 -88 1440 -52 1354z" />
      <glyph unicode="&#x366;" horiz-adv-x="0" d="M313 907C206 553 -2 553 313 667C-313 668 -313 907 -195 553C-207 1260 2 1260 -313 1144C313 1135 313 907 202 1260zM-164 907C-118 635 0 635 -164 727C162 727 162 907 118 635C116 1178 -2 1178 162 1087C-164 1088 -164 907 -123 1178z" />
      <glyph unicode="&#x367;" horiz-adv-x="0" d="M283 709C308 635 391 635 283 657L391 565L164 565L147 649L139 649C19 553 -57 553 85 573C-281 629 -281 805 -203 553L-281 1102C-307 1178 -391 1178 -281 1152L-391 1247L-137 1247L-137 811C-100 649 -12 649 -137 700C137 719 137 842 84 649L137 1100C112 1178 27 1178 137 1153L27 1247L283 1247z" />
      <glyph unicode="&#x368;" horiz-adv-x="0" d="M37 553C-268 675 -268 903 -159 553C-171 1260 31 1260 -268 1139C266 1208 266 1126 163 1260C219 1040 127 1040 266 1060C96 1180 31 1180 127 1132C-119 1097 -119 903 -75 1180C-67 651 61 651 -119 731C199 689 231 745 135 651C268 702 268 682 249 725C178 553 37 553 268 611z" />
      <glyph unicode="&#x369;" horiz-adv-x="0" d="M244 711C266 635 338 635 244 657L360 635L360 565L119 565L104 645L98 645C4 553 -84 553 59 587C-358 661 -358 903 -262 553C-262 1260 -84 1260 -358 1148C55 1234 94 1178 2 1260L102 1178C98 1256 98 1278 99 1212L98 1382C75 1456 6 1456 98 1435L-16 1456L-16 1526L244 1526zM-66 649C98 719 98 903 51 649C51 1163 -66 1163 98 1087C-211 1072 -211 903 -168 1163C-168 649 -66 649 -211 732z" />
      <glyph unicode="&#x36A;" horiz-adv-x="0" d="M-20 635L-20 565L-391 565L-391 635L-367 635C-274 660 -274 715 -295 635L-274 1382C-299 1456 -367 1456 -274 1434L-391 1456L-391 1526L-129 1526L-129 1272C-133 1188 -137 1163 -129 1225L-129 1163C-29 1260 49 1260 -86 1221C289 1183 289 1010 206 1260L289 715C308 635 391 635 289 661L391 565L141 565L141 1001C108 1163 14 1163 141 1106C-129 1087 -129 971 -84 1163L-129 709C-104 635 -35 635 -129 657z" />
      <glyph unicode="&#x36B;" horiz-adv-x="0" d="M-211 635L-211 565L-584 565L-584 635L-555 635C-467 663 -467 715 -483 635L-467 1102C-487 1178 -569 1178 -467 1154L-569 1247L-346 1247L-328 1163L-319 1163C-211 1260 -127 1260 -268 1233C14 1230 53 1153 -55 1260L61 1153C180 1260 260 1260 114 1235C481 1174 481 1010 401 1260L481 715C500 635 584 635 481 661L584 565L336 565L336 1001C303 1163 213 1163 336 1106C84 1097 84 987 127 1163L84 715C102 635 186 635 84 660L186 565L-63 565L-63 1001C-93 1163 -184 1163 -63 1106C-322 1092 -322 971 -273 1163L-322 709C-293 635 -225 635 -322 657z" />
      <glyph unicode="&#x36C;" horiz-adv-x="0" d="M113 565L-285 565L-285 635C-176 661 -176 715 -199 635L-176 1102C-199 1178 -285 1178 -176 1152L-285 1247L-61 1247L-45 1130L-39 1130C-1 1194 11 1207 -17 1168C40 1232 62 1243 23 1220C112 1260 147 1260 84 1254C285 1225 285 1159 236 1260C246 1061 141 1061 285 1104C126 1159 84 1159 141 1133C-29 1036 -29 903 13 1159L-29 709C-6 635 66 635 -29 657L113 635z" />
      <glyph unicode="&#x36D;" horiz-adv-x="0" d="M117 635C176 638 211 649 145 635L211 573C135 553 86 553 189 563C-115 608 -115 754 -59 553L-115 1178L-211 1178L-211 1239C-77 1263 -51 1403 -149 1239L31 1403L31 1247L203 1247L203 1178L31 1178L31 750C62 635 117 635 31 670z" />
      <glyph unicode="&#x36E;" horiz-adv-x="0" d="M-379 1178L-379 1247L-33 1247L-33 1178L-59 1178C-129 1163 -129 1141 -104 1178C-124 1115 -106 1061 -129 1129L-27 846C10 734 20 698 -5 792L29 698C61 802 72 829 45 756L166 1077C176 1117 176 1128 172 1095C150 1178 104 1178 176 1162L82 1178L82 1247L381 1247L381 1178L354 1178C293 1155 268 1087 312 1178L66 565L-74 565L-285 1120C-321 1178 -367 1178 -301 1165z" />
      <glyph unicode="&#x36F;" horiz-adv-x="0" d="M109 1145C79 1178 37 1178 109 1169L37 1247L342 1247L342 1178L317 1178C242 1162 197 1104 269 1178L68 938L252 698C314 635 348 635 290 647L377 635L377 565L20 565L20 635L39 635C104 646 104 668 82 635C86 714 61 748 104 684L-12 846L-20 846L-100 737C-131 690 -131 664 -113 718C-109 635 -47 635 -131 645L-47 565L-377 565L-377 635L-354 635C-265 659 -223 711 -300 635L-63 907L-223 1118C-282 1178 -324 1178 -259 1168L-352 1178L-352 1247L-6 1247L-6 1178C-80 1167 -80 1151 -66 1178C-72 1120 -55 1100 -80 1139L16 1001L25 1001L80 1081C109 1127 109 1145 94 1103z" />
      <glyph unicode="&#x374;" horiz-adv-x="416" d="M82 1124C156 1384 162 1462 120 1226L375 1462L375 1442C240 1160 180 1094 317 1307L82 1094z" />
      <glyph unicode="&#x375;" horiz-adv-x="416" d="M334 -154C259 -413 254 -492 296 -250L41 -492L41 -471C174 -189 236 -123 97 -339L334 -123z" />
      <glyph unicode="&#x37A;" horiz-adv-x="520" d="M334 -303C355 -381 397 -381 334 -355C446 -377 461 -373 422 -381L461 -451C391 -467 334 -467 430 -461C184 -401 184 -303 243 -467L184 -143L334 -143z" />
      <glyph unicode="&#x37B;" horiz-adv-x="1008" d="M440 82C696 246 696 545 601 82C624 1016 438 1016 696 865C264 938 264 780 319 1016C82 814 82 909 142 780C238 1118 438 1118 82 1034C895 925 895 543 744 1118C730 -20 442 -20 895 177C72 57 72 201 203 -20C143 340 254 340 72 283C289 82 440 82 254 145z" />
      <glyph unicode="&#x37C;" horiz-adv-x="1008" d="M580 -20C449 -9 392 11 512 -20C285 65 244 111 334 32C170 214 147 285 202 156C113 442 113 543 124 356C124 743 147 817 113 652C202 950 243 995 170 891C332 1071 388 1090 284 1039C504 1118 569 1118 444 1108C654 1113 696 1105 611 1118C777 1084 811 1067 738 1097C872 1027 894 1001 845 1049C926 944 926 909 915 975C864 780 743 780 926 814C740 842 735 871 743 812C720 924 707 946 729 899C676 985 654 997 694 968C603 1016 569 1016 632 1009C494 1008 462 994 529 1016C403 954 381 918 430 979C341 833 329 773 358 882C311 636 311 545 317 712C401 113 621 113 311 254C846 172 893 256 747 113C928 213 928 176 913 240C920 129 906 106 928 152C869 61 840 43 891 82C775 9 732 -2 811 24C638 -20 580 -20 688 -14zM450 581C453 625 459 641 450 605C473 670 484 680 465 657C507 697 521 701 494 690C550 707 567 707 535 705C598 705 612 701 583 707C638 690 649 680 626 697C668 657 674 641 659 670C684 605 684 581 680 625C680 537 674 521 684 557C659 492 649 482 668 505C626 464 612 460 638 472C583 454 567 454 598 456C535 456 521 460 550 454C494 472 484 482 507 464C465 505 459 521 473 492C450 557 450 581 453 537z" />
      <glyph unicode="&#x37D;" horiz-adv-x="1008" d="M440 82C696 246 696 545 601 82C624 1016 438 1016 696 865C264 938 264 780 319 1016C82 814 82 909 142 780C238 1118 438 1118 82 1034C895 925 895 543 744 1118C730 -20 442 -20 895 177C72 57 72 201 203 -20C143 340 254 340 72 283C289 82 440 82 254 145zM325 581C328 625 334 641 325 605C348 670 359 680 340 657C382 697 396 701 369 690C425 707 442 707 410 705C473 705 487 701 458 707C513 690 524 680 501 697C543 657 549 641 534 670C559 605 559 581 555 625C555 537 549 521 559 557C534 492 524 482 543 505C501 464 487 460 513 472C458 454 442 454 473 456C410 456 396 460 425 454C369 472 359 482 382 464C340 505 334 521 348 492C325 557 325 581 328 537z" />
      <glyph unicode="&#x37E;" horiz-adv-x="586" d="M434 86C428 0 416 -40 434 42C384 -118 357 -153 404 -80C295 -218 253 -246 330 -187C159 -297 98 -315 211 -274L98 -229C293 -125 293 -45 232 -186C289 -20 282 -11 293 -31C265 5 254 12 274 -2C230 26 218 33 242 19C193 47 182 57 205 39C161 77 154 91 170 66C143 122 143 143 146 105C201 264 277 264 143 221C318 260 337 252 298 264C372 233 387 218 355 244C413 184 421 162 401 203C434 114 434 86 429 140zM166 969C169 1017 176 1035 166 995C191 1067 203 1078 182 1053C228 1096 244 1101 215 1088C277 1108 295 1108 260 1105C328 1105 344 1101 312 1108C373 1088 385 1078 360 1096C406 1053 413 1035 397 1067C424 995 424 969 420 1017C420 921 413 903 424 943C397 870 385 859 406 885C360 840 344 836 373 848C312 829 295 829 328 831C260 831 244 836 277 829C215 848 203 859 228 840C182 885 176 903 191 870C166 943 166 969 169 921z" />
      <glyph unicode="&#x384;" horiz-adv-x="1182" d="M504 1272C527 1320 540 1350 515 1294C564 1412 576 1445 552 1380C598 1510 608 1542 588 1477C624 1604 629 1630 617 1574L813 1630L813 1606C803 1576 794 1558 809 1592C773 1519 760 1497 784 1539C733 1452 717 1428 747 1475C684 1381 667 1359 701 1404C633 1314 617 1294 650 1336C585 1256 571 1241 600 1274L504 1241z" />
      <glyph unicode="&#x385;" horiz-adv-x="1182" d="M276 1395C318 1497 373 1497 276 1467C397 1495 409 1491 385 1497C431 1480 440 1472 421 1487C455 1453 461 1441 448 1464C469 1413 469 1395 466 1428C423 1292 373 1292 469 1324C276 1324 276 1395 318 1292zM713 1395C755 1497 809 1497 713 1467C833 1495 845 1491 821 1497C867 1480 876 1472 857 1487C891 1453 897 1441 884 1464C905 1413 905 1395 902 1428C859 1292 809 1292 905 1324C713 1324 713 1395 755 1292zM518 1415C534 1455 542 1481 526 1433C559 1532 567 1560 550 1506C582 1615 588 1642 575 1588C599 1694 602 1716 594 1669L786 1716L786 1696C772 1657 758 1631 782 1679C726 1576 706 1546 743 1604C666 1488 645 1460 686 1516C604 1408 586 1389 623 1432L518 1389z" />
      <glyph unicode="&#x483;" horiz-adv-x="1141" d="M395 1262C353 1167 297 1167 386 1198C201 1202 201 1274 233 1167C225 1370 299 1370 201 1352L748 1370C787 1464 846 1464 754 1432C944 1429 944 1360 911 1464C920 1262 844 1262 944 1284z" />
      <glyph unicode="&#x484;" horiz-adv-x="1182" d="M258 1382C660 1495 758 1495 410 1382C979 1414 991 1253 901 1495L899 1253L895 1280C850 1366 788 1366 886 1337C454 1253 285 1253 708 1366L244 1253L244 1382z" />
      <glyph unicode="&#x485;" horiz-adv-x="1182" d="M723 1315L723 1239C481 1354 481 1462 561 1279C523 1589 608 1589 481 1546C705 1563 705 1513 672 1589C606 1439 606 1407 705 1459C645 1342 723 1315 606 1373z" />
      <glyph unicode="&#x486;" horiz-adv-x="1182" d="M481 1239L481 1315C598 1373 598 1407 559 1342C500 1461 500 1513 598 1437C532 1589 596 1589 500 1563C723 1546 723 1462 680 1589C642 1279 481 1239 723 1354z" />
      <glyph unicode="&#x487;" horiz-adv-x="0" d="M373 1686L373 1556L332 1556C-76 1669 -172 1669 149 1556C-269 1643 -279 1583 -225 1669L-283 1556L-375 1556C-287 1798 -141 1798 -361 1717C198 1686 358 1686 -33 1798z" />
      <glyph unicode="&#x488;" horiz-adv-x="2025" d="M1135 1231C1085 1319 1001 1319 1130 1289C870 1289 868 1231 914 1319L793 1231C871 1425 1001 1425 801 1360C1202 1360 1214 1231 1131 1425zM1714 946C1665 1034 1581 1034 1710 1004C1449 1004 1448 946 1493 1034L1372 946C1451 1141 1581 1141 1381 1076C1782 1076 1794 946 1711 1141zM561 946C512 1034 428 1034 557 1004C296 1004 295 946 340 1034L219 946C298 1141 428 1141 228 1076C629 1076 641 946 558 1141zM1905 459C1856 547 1772 547 1900 517C1640 517 1638 459 1684 547L1563 459C1641 653 1772 653 1571 588C1973 588 1985 459 1902 653zM383 459C334 547 250 547 379 517C118 517 117 459 162 547L41 459C119 653 250 653 49 588C451 588 463 459 380 653zM1714 -41C1665 47 1581 47 1709 17C1449 17 1448 -41 1493 47L1372 -41C1451 154 1581 154 1381 89C1782 89 1794 -41 1711 154zM561 -41C512 47 428 47 556 17C296 17 295 -41 340 47L219 -41C298 154 428 154 228 89C629 89 641 -41 558 154zM1135 -319C1085 -231 1001 -231 1129 -260C870 -260 868 -319 914 -231L793 -319C871 -125 1001 -125 802 -189C1202 -189 1214 -319 1131 -125z" />
      <glyph unicode="&#x489;" horiz-adv-x="1958" d="M881 1141L870 1155C939 1373 993 1491 898 1261L1090 1491C1033 1234 1020 1141 1056 1351zM492 877L475 879C368 1086 324 1202 419 978L391 1272C528 1059 590 975 462 1158zM1325 1018L1327 1034C1535 1141 1651 1186 1427 1090L1720 1118C1504 979 1423 920 1603 1045zM1567 651L1581 662C1799 592 1917 539 1687 633L1917 442C1660 498 1567 512 1777 475zM391 453L377 442C161 510 41 565 273 469L41 662C297 605 391 592 181 628zM1464 184L1481 182C1585 -19 1632 -141 1535 88L1565 -211C1425 4 1366 86 1491 -94zM633 45L631 29C429 -75 307 -123 537 -25L238 -55C453 83 535 143 354 17zM1079 -35L1090 -49C1021 -265 967 -385 1062 -153L870 -385C926 -128 940 -35 903 -245z" />
      <glyph unicode="&#x60C;" horiz-adv-x="748" d="M347 291L377 286C484 239 494 179 446 275C492 71 461 41 503 117C390 -4 344 0 429 9C194 77 205 206 240 8C316 513 496 621 219 374C530 637 536 632 516 633C539 629 541 628 538 630C543 625 543 625 542 626C544 623 544 623 543 624C544 621 544 620 544 622C543 617 542 615 544 618C540 612 538 610 541 613C534 605 531 603 536 608C525 597 522 595 528 600C479 560 463 542 499 577C339 367 347 295 378 449z" />
      <glyph unicode="&#x615;" horiz-adv-x="0" d="M510 1602L612 1602C830 1627 876 1679 742 1601C907 1737 903 1778 898 1704C866 1847 811 1841 897 1826C634 1752 510 1602 735 1831zM562 1502L254 1501L202 1602L339 1602L339 2273L440 2273L440 1652C757 1990 894 1949 606 1891C985 1890 999 1825 950 1931C902 1502 562 1502 1036 1637z" />
      <glyph unicode="&#x61B;" horiz-adv-x="748" d="M347 811L377 806C484 759 494 699 446 795C493 591 461 561 503 636C388 516 340 520 429 529C193 597 205 726 238 528C316 1033 496 1141 219 894C530 1157 536 1152 516 1153C538 1150 539 1149 537 1151C541 1147 542 1147 540 1148C543 1145 543 1145 542 1146C541 1129 522 1115 548 1139C430 1031 394 974 473 1078C342 863 347 815 358 916zM219 99C232 221 258 247 219 171C315 287 351 287 284 273C419 274 446 249 387 287C484 189 484 153 471 221C471 86 445 60 484 117C387 21 351 21 419 34C271 47 219 99 315 21zM446 249C446 248 446 248 446 249L446 249z" />
      <glyph unicode="&#x61F;" horiz-adv-x="1024" d="M540 516C519 523 519 538 526 516L519 559C471 685 376 758 519 619L299 817C156 981 156 1095 204 889C165 1201 186 1246 155 1151C236 1330 277 1364 206 1290C418 1441 516 1441 339 1415C745 1395 811 1304 647 1441C834 1267 843 1246 823 1286C859 1201 864 1176 852 1224C872 1125 873 1097 869 1151C874 1090 874 1087 873 1093C873 1080 873 1077 874 1083C873 1071 873 1068 873 1074L873 1068C873 1050 872 1045 873 1060L783 1044C669 1264 528 1264 754 1190C382 1236 346 1180 442 1264C321 1122 321 1086 329 1154C333 1019 359 982 321 1054C420 908 471 867 383 946L519 828C643 672 643 565 601 760L643 542C635 516 620 516 643 524zM477 60C438 117 438 153 451 86C451 221 477 247 438 189C534 287 571 287 503 273C638 274 665 249 607 287C703 190 703 154 690 221C690 86 664 60 703 116C607 21 571 21 638 34C503 34 477 60 533 21zM665 249C665 248 665 248 665 249L665 249z" />
      <glyph unicode="&#x621;" horiz-adv-x="771" d="M678 324L643 200C308 80 82 -24 495 155C109 135 163 164 82 72C242 201 293 219 199 183C86 356 86 483 155 268C107 616 151 673 85 553C285 782 383 783 207 745C575 733 593 634 505 783C590 605 575 609 596 613C381 640 327 613 463 639C235 535 237 473 265 582C309 333 449 291 238 393C530 300 633 337 469 285C684 346 678 324 669 350z" />
      <glyph unicode="&#x622;" horiz-adv-x="600" d="M340 1341.8453979492188L359 1349.945068359375L359 181.7926025390625C323 36 253 -4 359 98L199 998.0593872070312C236 1293 340 1341 189 1178zM206.69952392578125 1523.2164916992188C73 1508 28 1462 132 1528C-15 1442 -15 1463 3 1437C-15 1479 -11 1491 -16 1470C28 1592 65 1631 3 1545C124 1672 161 1673 92 1658C217 1674 248 1670 188 1675C333 1665 416 1666 277 1667C549 1670 566 1673 499 1667C595 1677 602 1674 582 1677C609 1664 602 1651 609 1671C504 1539 450 1524 554 1581C332 1514 206 1523 413 1514z" />
      <glyph unicode="&#x623;" horiz-adv-x="496" d="M320 1341.8453979492188L339 1349.945068359375L339 181.7926025390625C303 36 233 -4 339 98L179 998.0593872070312C216 1293 320 1341 169 1178zM87.97979736328125 1594.236328125C-28 1847 57 1928 -39 1674C152 1988 215 1988 100 1968C386 1942 386 1851 329 1988C367 1836 328 1849 386 1836C259 1867 232 1864 291 1862C115 1822 110 1767 155 1855C142 1669 224 1645 104 1710C311 1645 412 1668 249 1637L408.09906005859375 1540.1764526367188L-9.53997802734375 1446.8966674804688L-9.53997802734375 1570.9163818359375z" />
      <glyph unicode="&#x624;" horiz-adv-x="925" d="M331.77923583984375 1001.6976928710938C214 1255 301 1335 204 1082C396 1396 458 1396 344 1375C630 1350 630 1259 573 1396C611 1243 572 1257 630 1244C503 1274 475 1271 535 1269C358 1230 354 1174 399 1262C386 1077 468 1052 348 1117C555 1052 656 1075 493 1044L651.8984985351562 947.6378173828125L234.25946044921875 854.3580322265625L234.25946044921875 978.3777465820312zM598 -381C463 -459 406 -459 527 -433C217 -445 104 -419 318 -459C44 -393 40 -371 66 -409C62 -340 120 -330 36 -353C579 -197 657 -76 400 -282C684 -25 693 1 672 -51C584 -15 526 -15 640 -9C300 20 251 90 392 -14C200 212 212 296 213 144C280 545 358 617 231 438C461 683 523 683 406 661C690 627 744 517 616 682C826 284 826 156 799 405C821 40 814 -2 825 92C712 -296 598 -381 784 -170zM495 508C371 436 345 310 421 502C384 162 523 166 325 210C599 171 695 180 541 166C666 356 637 416 685 277C556 513 495 508 603 482z" />
      <glyph unicode="&#x625;" horiz-adv-x="492" d="M115.53973388671875 -509.85882568359375C-1 -256 84 -175 -11 -429C180 -115 242 -115 127 -135C414 -161 414 -252 357 -115C395 -267 356 -254 414 -267C287 -236 259 -239 319 -241C142 -281 137 -337 183 -248C170 -434 252 -458 132 -393C339 -458 439 -435 277 -466L435.65899658203125 -563.918701171875L18.01995849609375 -657.198486328125L18.01995849609375 -533.1787719726562zM288 1495L307 1504L307 206C271 45 201 -1 307 114L147 1113C184 1441 288 1495 137 1313z" />
      <glyph unicode="&#x626;" horiz-adv-x="1520" d="M434.5989990234375 856.47802734375C317 1109 403 1190 307 937C499 1250 561 1250 446 1230C733 1205 733 1114 676 1250C714 1098 675 1111 733 1099C606 1129 578 1126 638 1124C461 1085 456 1029 502 1117C489 932 571 907 451 972C658 907 758 930 596 899L754.71826171875 802.4181518554688L337.0792236328125 709.1383666992188L337.0792236328125 833.1580810546875zM712 -453C155 -339 106 -97 357 -457C88 71 103 165 89 -16C140 321 180 399 115 243C268 538 298 532 229 493C325 507 311 474 321 526C270 377 258 339 287 422C229 224 223 162 241 283C232 -50 286 -118 211 43C513 -270 729 -270 366 -220C1135 -209 1255 -92 959 -268C1321 -4 1301 22 1306 -42C1230 53 1138 54 1284 42C933 70 896 103 1014 54C818 276 880 434 824 166C1079 770 1223 783 964 654C1398 736 1408 612 1337 793L1410 587C1127 572 1053 486 1246 605C965 350 969 290 993 416C1032 226 1148 228 972 247C1313 217 1357 193 1244 228C1434 107 1430 26 1409 163C1354 -200 1222 -300 1424 -91C920 -449 712 -453 1090 -398z" />
      <glyph unicode="&#x627;" horiz-adv-x="448" d="M288 1495L307 1504L307 206C271 45 201 -1 307 114L147 1113C184 1441 288 1495 137 1313z" />
      <glyph unicode="&#x628;" horiz-adv-x="1764" d="M1040.0203857421875 -322.10009765625L1136.423583984375 -418.5032958984375C1151 -448 1137 -462 1151 -433L1036.617919921875 -563.6751708984375C1003 -579 987 -563 1019 -579L888.0435791015625 -463.8695068359375C873 -432 891 -415 872 -448L984.44677734375 -320.9659423828125C1021 -303 1040 -322 1002 -302zM789 -43C398 -6 281 68 567 -43C100 274 102 456 160 145C115 615 141 672 102 543C173 720 193 718 155 704C217 690 207 643 213 715C193 548 195 490 197 599C402 149 801 150 200 262C1210 171 1341 213 1030 150C1463 261 1503 293 1409 235C1575 384 1554 438 1558 335C1493 592 1487 612 1516 534C1479 794 1569 838 1451 719L1586 845C1659 577 1665 459 1632 706C1606 181 1466 98 1672 301C1081 -43 789 -43 1306 3z" />
      <glyph unicode="&#x629;" horiz-adv-x="859" d="M232 349C247 215 336 187 212 269C466 165 532 187 400 165C657 285 617 384 628 219C520 534 411 627 589 453C248 418 232 349 308 511zM334 720L326 728C330 793 376 892 314 738L380 901C691 570 736 439 572 724C770 167 683 83 788 286C545 4 429 3 629 31C267 18 209 53 340 1C115 140 102 210 151 87C155 504 334 720 78 334zM307.3560791015625 1469.865234375L402.6251220703125 1374.59619140625C415 1349 403 1337 415 1361L302.8194580078125 1237.3634033203125C275 1222 261 1236 289 1222L161.050048828125 1337.1690673828125C150 1362 164 1376 149 1349L259.7215576171875 1470.9993896484375C290 1486 307 1469 274 1486zM596.565673828125 1469.865234375L692.9688720703125 1374.59619140625C706 1349 694 1337 705 1361L593.1632080078125 1237.3634033203125C565 1222 552 1236 579 1222L452.5279541015625 1337.1690673828125C440 1362 455 1377 439 1349L550.0653076171875 1470.9993896484375C580 1486 596 1469 565 1486z" />
      <glyph unicode="&#x62A;" horiz-adv-x="1764" d="M789 -43C398 -6 281 68 567 -43C100 274 102 456 160 145C115 615 141 672 102 543C173 720 193 718 155 704C217 690 207 643 213 715C193 548 195 490 197 599C402 149 801 150 200 262C1210 171 1341 213 1030 150C1463 261 1503 293 1409 235C1575 384 1554 438 1558 335C1493 592 1487 612 1516 534C1479 794 1569 838 1451 719L1586 845C1659 577 1665 459 1632 706C1606 181 1466 98 1672 301C1081 -43 789 -43 1306 3zM813.1893310546875 1121.6795654296875L908.4583740234375 1026.4105224609375C921 1001 909 988 921 1013L808.6527099609375 889.177734375C781 874 767 888 795 874L666.88330078125 988.9833984375C656 1014 670 1028 655 1001L765.5548095703125 1122.813720703125C796 1138 813 1121 780 1138zM1102.39892578125 1121.6795654296875L1198.8021240234375 1026.4105224609375C1212 1001 1199 988 1211 1013L1098.9964599609375 889.177734375C1071 874 1058 888 1085 874L958.3612060546875 988.9833984375C946 1014 961 1029 945 1001L1055.8985595703125 1122.813720703125C1086 1138 1102 1121 1071 1138z" />
      <glyph unicode="&#x62B;" horiz-adv-x="1764" d="M789 -43C398 -6 281 68 567 -43C100 274 102 456 160 145C115 615 141 672 102 543C173 720 193 718 155 704C217 690 207 643 213 715C193 548 195 490 197 599C402 149 801 150 200 262C1210 171 1341 213 1030 150C1463 261 1503 293 1409 235C1575 384 1554 438 1558 335C1493 592 1487 612 1516 534C1479 794 1569 838 1451 719L1586 845C1659 577 1665 459 1632 706C1606 181 1466 98 1672 301C1081 -43 789 -43 1306 3zM949.2879638671875 1302.01025390625L1046.8253173828125 1205.6070556640625C1056 1186 1046 1177 1056 1195L947.0196533203125 1076.3133544921875C924 1064 914 1075 935 1064L813.1893310546875 1176.1190185546875C804 1196 817 1209 803 1185L910.7266845703125 1303.1444091796875C936 1314 949 1302 923 1315zM1097.8623046875 1066.10595703125L1194.2655029296875 969.7027587890625C1204 950 1194 941 1204 959L1094.4598388671875 840.4090576171875C1072 829 1061 840 1083 829L960.6295166015625 940.2147216796875C953 961 965 973 951 950L1058.1668701171875 1067.2401123046875C1084 1079 1097 1066 1071 1080zM802.98193359375 1066.10595703125L899.3851318359375 969.7027587890625C909 950 899 941 909 959L799.5794677734375 840.4090576171875C777 829 766 840 788 829L665.7491455078125 941.348876953125C657 961 669 973 656 950L763.2864990234375 1067.2401123046875C789 1079 802 1066 776 1080z" />
      <glyph unicode="&#x62C;" horiz-adv-x="1216" d="M101 -166C336 446 808 560 101 204C665 608 632 621 724 588C438 674 362 661 528 661C214 607 161 543 281 647C119 502 109 507 137 514C93 532 104 566 95 513C258 834 402 842 159 742C632 806 821 719 492 847C951 666 1008 655 889 687C1091 642 1123 646 1052 645L1076 446C203 147 206 -159 493 349C375 -461 707 -461 208 -360C966 -449 1065 -425 847 -461C1095 -430 1081 -458 1090 -419C876 -647 670 -647 1013 -584C101 -486 101 -166 290 -647zM812.05517578125 54.439453125L908.4583740234375 -41.9637451171875C923 -71 909 -86 923 -57L808.6527099609375 -187.1356201171875C775 -203 759 -187 792 -203L660.078369140625 -87.3299560546875C645 -55 663 -38 644 -72L756.4815673828125 55.5736083984375C793 73 812 54 774 73z" />
      <glyph unicode="&#x62D;" horiz-adv-x="1216" d="M101 -166C336 446 808 560 101 204C665 608 632 621 724 588C438 674 362 661 528 661C214 607 161 543 281 647C119 502 109 507 137 514C93 532 104 566 95 513C258 834 402 842 159 742C632 806 821 719 492 847C951 666 1008 655 889 687C1091 642 1123 646 1052 645L1076 446C203 147 206 -159 493 349C375 -461 707 -461 208 -360C966 -449 1065 -425 847 -461C1095 -430 1081 -458 1090 -419C876 -647 670 -647 1013 -584C101 -486 101 -166 290 -647z" />
      <glyph unicode="&#x62E;" horiz-adv-x="1216" d="M101 -166C336 446 808 560 101 204C665 608 632 621 724 588C438 674 362 661 528 661C214 607 161 543 281 647C119 502 109 507 137 514C93 532 104 566 95 513C258 834 402 842 159 742C632 806 821 719 492 847C951 666 1008 655 889 687C1091 642 1123 646 1052 645L1076 446C203 147 206 -159 493 349C375 -461 707 -461 208 -360C966 -449 1065 -425 847 -461C1095 -430 1081 -458 1090 -419C876 -647 670 -647 1013 -584C101 -486 101 -166 290 -647zM660.078369140625 1478.9384765625L756.4815673828125 1382.5352783203125C771 1352 757 1338 771 1367L656.6759033203125 1237.3634033203125C623 1221 607 1237 640 1221L508.1015625 1337.1690673828125C493 1368 511 1385 492 1352L604.5047607421875 1480.0726318359375C641 1497 660 1478 622 1498z" />
      <glyph unicode="&#x62F;" horiz-adv-x="1024" d="M879 155C620 -31 412 -31 776 31C365 -30 342 -29 388 -31C99 54 99 193 180 -19L99 223C284 167 394 165 185 186C632 183 724 228 522 162C794 281 788 315 772 252C782 336 779 342 785 327L622 588C506 875 606 928 512 762L628 940L895 414C931 217 879 155 947 308z" />
      <glyph unicode="&#x630;" horiz-adv-x="1024" d="M879 155C620 -31 412 -31 776 31C365 -30 342 -29 388 -31C99 54 99 193 180 -19L99 223C284 167 394 165 185 186C632 183 724 228 522 162C794 281 788 315 772 252C782 336 779 342 785 327L622 588C506 875 606 928 512 762L628 940L895 414C931 217 879 155 947 308zM618.1146240234375 1548.1219482421875L714.517822265625 1451.71875C730 1421 715 1407 729 1436L614.712158203125 1306.546875C581 1290 565 1306 598 1290L466.1378173828125 1406.3525390625C451 1437 469 1455 450 1421L562.541015625 1549.256103515625C599 1567 618 1548 580 1567z" />
      <glyph unicode="&#x631;" horiz-adv-x="893" d="M72 -419C12 -393 8 -371 34 -409C30 -340 88 -330 4 -353C688 -109 670 132 494 -263C650 226 618 304 667 168C579 549 669 618 562 444L710 649C796 347 798 215 767 491C724 -264 566 -381 802 -65C431 -459 374 -459 495 -433C185 -445 72 -419 286 -459z" />
      <glyph unicode="&#x632;" horiz-adv-x="893" d="M72 -419C12 -393 8 -371 34 -409C30 -340 88 -330 4 -353C688 -109 670 132 494 -263C650 226 618 304 667 168C579 549 669 618 562 444L710 649C796 347 798 215 767 491C724 -264 566 -381 802 -65C431 -459 374 -459 495 -433C185 -445 72 -419 286 -459zM731.5301513671875 1244.1683349609375L827.933349609375 1147.76513671875C843 1117 829 1103 843 1132L728.127685546875 1002.59326171875C695 986 679 1002 711 986L579.5533447265625 1102.39892578125C564 1133 582 1151 563 1117L675.95654296875 1245.302490234375C712 1263 731 1244 694 1263z" />
      <glyph unicode="&#x633;" horiz-adv-x="2313" d="M1905 0C1825 5 1801 17 1860 0C1684 105 1657 183 1732 50C1539 -1 1431 -1 1614 60C1299 22 1270 68 1353 -1C1265 -66 1252 -120 1271 -4C986 -543 664 -546 1182 -401C289 -481 187 -347 448 -547C75 -78 114 114 99 -232C153 257 191 337 128 182C231 395 255 388 209 378C283 354 266 308 279 381C198 11 236 -109 208 150C430 -363 665 -363 287 -279C1134 -245 1155 -15 971 -361C1140 142 1093 258 1161 51C1042 525 1146 553 1024 427L1181 562C1225 358 1248 292 1203 448C1336 181 1437 183 1273 217C1573 233 1595 328 1520 185L1611 393C1671 526 1731 526 1631 481L1744 526L1737 451C1783 184 1923 184 1721 273C2057 216 2077 280 2005 184C2087 351 2074 387 2088 316C2037 495 2023 544 2054 443C2029 722 2129 770 1994 647L2146 778C2206 544 2214 416 2184 664C2073 1 1905 0 2230 164z" />
      <glyph unicode="&#x634;" horiz-adv-x="2313" d="M1905 0C1825 5 1801 17 1860 0C1684 105 1657 183 1732 50C1539 -1 1431 -1 1614 60C1299 22 1270 68 1353 -1C1265 -66 1252 -120 1271 -4C986 -543 664 -546 1182 -401C289 -481 187 -347 448 -547C75 -78 114 114 99 -232C153 257 191 337 128 182C231 395 255 388 209 378C283 354 266 308 279 381C198 11 236 -109 208 150C430 -363 665 -363 287 -279C1134 -245 1155 -15 971 -361C1140 142 1093 258 1161 51C1042 525 1146 553 1024 427L1181 562C1225 358 1248 292 1203 448C1336 181 1437 183 1273 217C1573 233 1595 328 1520 185L1611 393C1671 526 1731 526 1631 481L1744 526L1737 451C1783 184 1923 184 1721 273C2057 216 2077 280 2005 184C2087 351 2074 387 2088 316C2037 495 2023 544 2054 443C2029 722 2129 770 1994 647L2146 778C2206 544 2214 416 2184 664C2073 1 1905 0 2230 164zM1829.3924560546875 1355.3155517578125L1926.9298095703125 1258.912353515625C1936 1239 1926 1230 1936 1249L1827.1241455078125 1129.61865234375C1804 1117 1794 1128 1815 1118L1693.2938232421875 1229.42431640625C1684 1250 1697 1262 1683 1239L1790.8311767578125 1356.44970703125C1816 1368 1829 1355 1803 1368zM1977.966796875 1119.4112548828125L2074.3699951171875 1023.008056640625C2084 1003 2074 994 2084 1013L1974.5643310546875 893.71435546875C1952 882 1941 893 1963 882L1840.7340087890625 993.52001953125C1833 1014 1845 1026 1831 1003L1938.2713623046875 1120.54541015625C1964 1133 1977 1119 1951 1133zM1683.08642578125 1119.4112548828125L1779.4896240234375 1023.008056640625C1789 1003 1779 994 1789 1013L1679.6839599609375 893.71435546875C1657 882 1646 893 1668 882L1545.8536376953125 994.6541748046875C1537 1014 1549 1026 1536 1003L1643.3909912109375 1120.54541015625C1669 1133 1683 1119 1656 1133z" />
      <glyph unicode="&#x635;" horiz-adv-x="2498" d="M1732 183C2065 204 2175 247 1918 183C2290 309 2288 344 2252 277C2238 444 2149 506 2284 390C2049 560 2004 560 2097 542C1765 482 1643 329 1885 559L1528 183zM1995 748C2182 707 2269 627 2091 747C2389 471 2392 385 2348 552C2329 154 2195 90 2395 253C1912 -1 1728 -1 2067 28L1502 0C1301 23 1270 68 1378 0C1265 -66 1252 -120 1271 -4C988 -542 670 -546 1182 -400C289 -481 187 -347 450 -548C75 -79 114 114 99 -233C153 257 191 337 128 182C231 395 255 388 209 378C283 354 266 308 279 381C198 13 236 -109 208 152C430 -363 665 -363 287 -279C1134 -245 1155 -15 971 -361C1140 142 1093 258 1161 51C1041 525 1146 553 1023 427L1181 562C1221 381 1250 292 1198 471C1322 186 1401 186 1272 222L1506 349C1841 749 1995 748 1678 616z" />
      <glyph unicode="&#x636;" horiz-adv-x="2498" d="M2224.0784912109375 1381.401123046875L2320.481689453125 1284.9979248046875C2335 1255 2321 1240 2335 1269L2220.676025390625 1139.8260498046875C2187 1123 2171 1139 2204 1123L2072.1016845703125 1239.6317138671875C2057 1271 2075 1288 2056 1254L2168.5048828125 1382.5352783203125C2205 1400 2224 1381 2186 1400zM1732 183C2065 204 2175 247 1918 183C2290 309 2288 344 2252 277C2238 444 2149 506 2284 390C2049 560 2004 560 2097 542C1765 482 1643 329 1885 559L1528 183zM1995 748C2182 707 2269 627 2091 747C2389 471 2392 385 2348 552C2329 154 2195 90 2395 253C1912 -1 1728 -1 2067 28L1502 0C1301 23 1270 68 1378 0C1265 -66 1252 -120 1271 -4C988 -542 670 -546 1182 -400C289 -481 187 -347 450 -548C75 -79 114 114 99 -233C153 257 191 337 128 182C231 395 255 388 209 378C283 354 266 308 279 381C198 13 236 -109 208 152C430 -363 665 -363 287 -279C1134 -245 1155 -15 971 -361C1140 142 1093 258 1161 51C1041 525 1146 553 1023 427L1181 562C1221 381 1250 292 1198 471C1322 186 1401 186 1272 222L1506 349C1841 749 1995 748 1678 616z" />
      <glyph unicode="&#x637;" horiz-adv-x="1431" d="M450 183L655 183C953 211 1097 267 806 183C1212 329 1210 364 1174 297C1162 442 1072 506 1208 395C972 560 927 560 1020 542C688 482 566 329 808 559zM319 188L259 1138C298 1431 410 1493 247 1313L432 1505L432 352C770 749 918 748 608 617C1105 707 1191 627 1014 747C1312 471 1315 385 1271 552C1252 158 1118 90 1318 256C827 -1 611 -1 996 28L425 0L375 0C91 63 91 188 185 0z" />
      <glyph unicode="&#x638;" horiz-adv-x="1431" d="M1028.6788330078125 1384.8035888671875L1125.08203125 1288.400390625C1140 1258 1126 1244 1140 1273L1025.2763671875 1143.228515625C992 1127 976 1143 1008 1127L876.7020263671875 1243.0341796875C861 1274 880 1291 860 1258L973.105224609375 1385.937744140625C1009 1403 1028 1384 991 1404zM450 183L655 183C953 211 1097 267 806 183C1212 329 1210 364 1174 297C1162 442 1072 506 1208 395C972 560 927 560 1020 542C688 482 566 329 808 559zM319 188L259 1138C298 1431 410 1493 247 1313L432 1505L432 352C770 749 918 748 608 617C1105 707 1191 627 1014 747C1312 471 1315 385 1271 552C1252 158 1118 90 1318 256C827 -1 611 -1 996 28L425 0L375 0C91 63 91 188 185 0z" />
      <glyph unicode="&#x639;" horiz-adv-x="1197" d="M420 360C274 526 270 623 324 438C299 808 367 892 266 718C533 1026 650 1027 439 981C838 987 898 907 755 1027C925 865 933 841 913 887C941 810 940 801 939 823C925 780 903 796 937 782C782 848 694 848 851 830C540 823 484 773 610 848C409 675 414 616 432 727C449 508 503 466 419 558C566 435 605 444 532 442C717 468 721 469 679 460C877 493 989 501 788 483C1058 491 1049 462 1038 504L1002 314C679 277 555 228 828 306C204 6 206 -159 321 135C375 -461 707 -461 208 -360C966 -449 1065 -425 847 -461C1095 -430 1081 -458 1090 -419C876 -647 670 -647 1013 -584C101 -486 101 -166 290 -647C208 244 420 360 101 68z" />
      <glyph unicode="&#x63A;" horiz-adv-x="1197" d="M420 360C274 526 270 623 324 438C299 808 367 892 266 718C533 1026 650 1027 439 981C838 987 898 907 755 1027C925 865 933 841 913 887C941 810 940 801 939 823C925 780 903 796 937 782C782 848 694 848 851 830C540 823 484 773 610 848C409 675 414 616 432 727C449 508 503 466 419 558C566 435 605 444 532 442C717 468 721 469 679 460C877 493 989 501 788 483C1058 491 1049 462 1038 504L1002 314C679 277 555 228 828 306C204 6 206 -159 321 135C375 -461 707 -461 208 -360C966 -449 1065 -425 847 -461C1095 -430 1081 -458 1090 -419C876 -647 670 -647 1013 -584C101 -486 101 -166 290 -647C208 244 420 360 101 68zM742.8717041015625 1681.9522705078125L839.27490234375 1585.549072265625C854 1555 840 1541 854 1570L739.46923828125 1440.377197265625C706 1424 690 1440 722 1424L590.8948974609375 1540.182861328125C576 1571 594 1588 575 1555L687.298095703125 1683.08642578125C723 1700 742 1681 705 1701z" />
      <glyph unicode="&#x640;" horiz-adv-x="253" d="M-5 0C-80 30 -80 92 -55 0L-80 98C-55 183 -5 183 -80 154L258 183C333 154 333 98 308 183L333 92C308 0 258 0 333 30z" />
      <glyph unicode="&#x641;" horiz-adv-x="1738" d="M789 -43C398 -6 281 68 567 -43C100 274 102 456 160 145C115 615 141 672 102 543C173 720 193 718 155 704C217 690 207 643 213 715C193 548 195 490 197 599C402 149 801 150 200 262C1281 180 1379 237 1089 151C1491 329 1515 397 1446 276C1373 366 1314 366 1440 376C1113 400 1066 467 1196 366C1010 626 1050 739 1016 535C1205 1018 1324 1020 1114 924C1519 957 1570 827 1437 1022C1638 573 1628 444 1618 701C1596 261 1560 199 1619 342C1207 -43 789 -43 1464 37zM1153 654C1197 544 1332 548 1137 580C1449 558 1517 574 1388 549C1494 682 1467 734 1511 628C1385 835 1328 836 1431 801C1178 775 1153 654 1236 836zM1511.8289794921875 1633.18359375L1608.232177734375 1536.7803955078125C1623 1506 1609 1492 1623 1521L1508.426513671875 1391.6085205078125C1475 1375 1459 1391 1491 1375L1359.8521728515625 1491.4141845703125C1345 1522 1363 1540 1343 1506L1456.25537109375 1634.3177490234375C1492 1652 1511 1633 1474 1652z" />
      <glyph unicode="&#x642;" horiz-adv-x="1462" d="M1006 770C1200 707 1253 577 1118 772C1317 354 1317 233 1296 469C1308 23 1291 -38 1317 113C1004 -456 659 -464 1215 -314C291 -401 186 -265 449 -468C74 3 113 197 98 -151C152 339 190 419 127 265C230 477 254 470 208 460C282 436 265 390 278 463C197 93 235 -27 207 232C429 -281 664 -281 286 -197C1176 -163 1194 67 999 -279C1196 100 1197 117 1195 83C1055 86 996 86 1122 96C795 120 748 187 878 86C688 363 732 489 693 262C887 768 1006 770 796 674zM834 404C874 264 1014 268 814 310C1131 278 1199 294 1070 269C1171 434 1144 488 1189 370C1066 585 1010 586 1111 552C859 525 834 404 918 586zM971.9710693359375 1360.986328125L1067.2401123046875 1265.71728515625C1080 1240 1068 1228 1080 1252L967.4344482421875 1128.4844970703125C940 1113 926 1127 953 1114L825.6650390625 1228.2901611328125C815 1253 829 1267 814 1240L924.3365478515625 1362.1204833984375C955 1377 971 1360 939 1377zM1261.1806640625 1360.986328125L1357.5838623046875 1265.71728515625C1370 1240 1358 1228 1370 1252L1257.7781982421875 1128.4844970703125C1230 1113 1216 1127 1244 1114L1117.1429443359375 1228.2901611328125C1105 1253 1120 1269 1104 1240L1214.6802978515625 1362.1204833984375C1245 1377 1261 1360 1229 1377z" />
      <glyph unicode="&#x643;" horiz-adv-x="1789" d="M1101 1284L1101 1175L1078 1173C896 1138 871 1095 965 1164C863 1052 883 1026 859 1075C914 1004 952 999 891 1013C1112 941 1112 865 1070 983C1073 718 997 676 1112 781C870 626 798 627 937 642C706 630 665 637 750 627L644 641L644 757L672 754C931 749 981 801 828 734C1009 855 981 879 1009 829C939 899 897 905 967 890C821 929 793 957 855 911C752 1025 753 1076 765 985C903 1272 1075 1283 755 1210zM801 150C200 262 195 490 402 149C197 599 207 643 193 548C213 715 193 718 217 690C155 704 141 672 173 720C102 543 102 456 115 615C160 146 281 68 100 275C567 -43 789 -43 398 -6C1328 4 1485 102 1096 -43C1648 291 1648 465 1593 170L1648 1509L1631 1500C1470 1336 1480 1170 1521 1446L1523 424C1466 246 1334 209 1529 318C1022 151 801 150 1200 171z" />
      <glyph unicode="&#x644;" horiz-adv-x="1348" d="M1204 14C1005 -522 636 -523 1194 -343C262 -461 168 -337 418 -523C92 -188 90 -87 118 -271C97 40 113 114 89 -26C151 261 174 315 131 194C228 413 255 408 201 382C279 380 264 337 276 404C189 -20 247 -133 195 136C447 -337 641 -337 315 -269C1096 -224 1106 3 941 -337C1106 112 1101 190 1108 50L1040 1077C1070 1433 1178 1489 1024 1295L1207 1504L1207 431C1206 119 1204 14 1207 258z" />
      <glyph unicode="&#x645;" horiz-adv-x="1167" d="M907 192C928 245 938 271 918 218C901 420 745 488 966 347C593 513 547 452 659 525C502 326 512 206 513 408C759 201 907 192 627 206zM456 27C193 -75 226 -288 270 29L261 -516C239 -755 131 -817 282 -655L101 -834L101 -235C120 -24 159 50 101 -119C262 159 362 176 195 117L367 177L367 182C391 512 467 594 357 374C703 714 858 612 573 708C1120 383 1095 287 1041 491C1052 159 1022 104 1077 220C992 58 974 42 1008 79C887 16 778 22 952 22C640 25 456 27 748 23z" />
      <glyph unicode="&#x646;" horiz-adv-x="1425" d="M1277 392C1294 129 1268 19 1297 254C1004 -402 681 -407 1200 -260C306 -343 203 -208 465 -409C91 59 130 253 115 -94C169 396 207 476 144 321C247 534 271 527 225 517C299 493 282 447 295 520C214 150 252 30 224 289C446 -224 681 -224 303 -140C1150 -106 1171 124 987 -222C1159 277 1119 377 1177 192C1058 665 1162 692 1044 560L1197 701C1266 460 1277 392 1239 563zM764.420654296875 949.2879638671875L860.8238525390625 852.884765625C876 823 861 808 875 837L761.0181884765625 707.712890625C728 691 712 707 744 691L612.44384765625 807.5185546875C597 838 615 856 596 822L708.8470458984375 950.422119140625C745 968 764 949 726 968z" />
      <glyph unicode="&#x647;" horiz-adv-x="859" d="M232 349C247 215 336 187 212 269C466 165 532 187 400 165C657 285 617 384 628 219C520 534 411 627 589 453C248 418 232 349 308 511zM334 720L326 728C330 793 376 892 314 738L380 901C691 570 736 439 572 724C770 167 683 83 788 286C545 4 429 3 629 31C267 18 209 53 340 1C115 140 102 210 151 87C155 504 334 720 78 334z" />
      <glyph unicode="&#x648;" horiz-adv-x="925" d="M598 -381C463 -459 406 -459 527 -433C217 -445 104 -419 318 -459C44 -393 40 -371 66 -409C62 -340 120 -330 36 -353C579 -197 657 -76 400 -282C684 -25 693 1 672 -51C584 -15 526 -15 640 -9C300 20 251 90 392 -14C200 212 212 296 213 144C280 545 358 617 231 438C461 683 523 683 406 661C690 627 744 517 616 682C826 284 826 156 799 405C821 40 814 -2 825 92C712 -296 598 -381 784 -170zM495 508C371 436 345 310 421 502C384 162 523 166 325 210C599 171 695 180 541 166C666 356 637 416 685 277C556 513 495 508 603 482z" />
      <glyph unicode="&#x649;" horiz-adv-x="1520" d="M712 -453C155 -339 106 -97 357 -457C88 71 103 165 89 -16C140 321 180 399 115 243C268 538 298 532 229 493C325 507 311 474 321 526C270 377 258 339 287 422C229 224 223 162 241 283C232 -50 286 -118 211 43C513 -270 729 -270 366 -220C1135 -209 1255 -92 959 -268C1321 -4 1301 22 1306 -42C1230 53 1138 54 1284 42C933 70 896 103 1014 54C818 276 880 434 824 166C1079 770 1223 783 964 654C1398 736 1408 612 1337 793L1410 587C1127 572 1053 486 1246 605C965 350 969 290 993 416C1032 226 1148 228 972 247C1313 217 1357 193 1244 228C1434 107 1430 26 1409 163C1354 -200 1222 -300 1424 -91C920 -449 712 -453 1090 -398z" />
      <glyph unicode="&#x64A;" horiz-adv-x="1520" d="M712 -453C155 -339 106 -97 357 -457C88 71 103 165 89 -16C140 321 180 399 115 243C268 538 298 532 229 493C325 507 311 474 321 526C270 377 258 339 287 422C229 224 223 162 241 283C232 -50 286 -118 211 43C513 -270 729 -270 366 -220C1135 -209 1255 -92 959 -268C1321 -4 1301 22 1306 -42C1230 53 1138 54 1284 42C933 70 896 103 1014 54C818 276 880 434 824 166C1079 770 1223 783 964 654C1398 736 1408 612 1337 793L1410 587C1127 572 1053 486 1246 605C965 350 969 290 993 416C1032 226 1148 228 972 247C1313 217 1357 193 1244 228C1434 107 1430 26 1409 163C1354 -200 1222 -300 1424 -91C920 -449 712 -453 1090 -398zM709.981201171875 -712.24951171875L805.250244140625 -807.5185546875C818 -832 806 -844 818 -820L705.444580078125 -944.7513427734375C678 -959 664 -945 691 -959L563.6751708984375 -844.9456787109375C553 -819 567 -805 552 -832L662.3466796875 -711.1153564453125C693 -695 709 -712 677 -695zM999.1907958984375 -712.24951171875L1095.593994140625 -807.5185546875C1108 -832 1096 -844 1108 -820L995.788330078125 -944.7513427734375C968 -959 954 -945 982 -959L855.153076171875 -844.9456787109375C843 -819 858 -804 842 -832L952.6904296875 -711.1153564453125C983 -695 999 -712 967 -695z" />
      <glyph unicode="&#x64B;" horiz-adv-x="0" d="M261 914L261 1013L696 1191L696 1092zM261 1150L261 1250L696 1428L696 1328z" />
      <glyph unicode="&#x64C;" horiz-adv-x="0" d="M564 1497C492 1475 492 1433 516 1497C510 1379 546 1365 492 1402C579 1353 605 1345 559 1359L616 1371C626 1406 626 1428 622 1387C618 1467 604 1479 626 1450C576 1497 564 1497 590 1491zM291 1198C425 1095 512 1179 343 1088C557 1230 572 1259 537 1203L581 1277L561 1281C466 1318 438 1358 507 1292C412 1440 415 1455 404 1403C430 1509 450 1535 418 1482C504 1574 550 1574 470 1561C633 1560 661 1533 596 1574C703 1468 703 1421 689 1505C699 1374 692 1351 703 1397L686 1332L706 1331C737 1329 760 1329 719 1330L760 1252C722 1252 712 1254 738 1252L650 1260C602 1174 566 1136 630 1215C497 1072 470 1059 529 1098C414 1039 386 1039 442 1045C269 1086 235 1180 319 1039C221 1245 221 1309 226 1202L278 1309C283 1215 291 1198 278 1252zM738 1330L738 1330C738 1330 738 1330 738 1330z" />
      <glyph unicode="&#x64D;" horiz-adv-x="0" d="M266 -445L266 -346L701 -168L701 -267zM266 -209L266 -110L701 68L701 -31z" />
      <glyph unicode="&#x64E;" horiz-adv-x="0" d="M234 1150L234 1249L670 1427L670 1327z" />
      <glyph unicode="&#x64F;" horiz-adv-x="0" d="M711 1265C640 1268 597 1273 678 1265C529 1195 487 1169 566 1230C345 1103 269 1101 418 1126L269 1177C404 1200 450 1238 344 1179C484 1266 492 1276 470 1254L511 1296L484 1302C467 1308 445 1320 480 1302C404 1348 388 1371 423 1331C364 1417 364 1444 372 1393C384 1538 425 1569 364 1496C468 1587 509 1587 440 1581C583 1573 611 1546 549 1587C653 1481 653 1434 639 1518C648 1391 640 1364 653 1414L634 1345L654 1344C695 1342 711 1342 676 1342zM555 1358L566 1384C576 1419 576 1441 572 1400C568 1480 554 1492 576 1463C524 1510 507 1510 540 1504C474 1505 461 1495 489 1510C442 1466 442 1439 448 1485C460 1392 496 1378 442 1412C529 1366 555 1358 509 1372z" />
      <glyph unicode="&#x650;" horiz-adv-x="0" d="M275 -305L275 -206L710 -28L710 -127z" />
      <glyph unicode="&#x651;" horiz-adv-x="0" d="M499 1324C431 1181 348 1181 481 1228C222 1234 222 1342 264 1181C226 1403 236 1463 222 1363L301 1463C289 1378 289 1362 293 1411C312 1264 359 1264 289 1296C455 1305 458 1389 422 1264C460 1436 460 1464 459 1411C460 1506 460 1512 460 1490L524 1512C525 1467 526 1439 524 1491C560 1318 631 1318 525 1358L632 1318C696 1352 696 1421 674 1318C692 1530 686 1566 696 1481L755 1566C765 1470 765 1416 761 1520C740 1273 692 1253 765 1328C654 1240 636 1240 673 1245C564 1245 543 1261 595 1238C502 1300 499 1324 517 1279z" />
      <glyph unicode="&#x652;" horiz-adv-x="0" d="M764 1574C707 1700 637 1700 764 1643C510 1644 510 1574 565 1700C565 1447 637 1447 510 1502C764 1502 764 1574 707 1447zM842 1660C751 1369 637 1369 842 1430C600 1371 583 1375 618 1369C549 1386 534 1395 565 1379C505 1414 492 1428 519 1403C433 1516 433 1574 453 1468C452 1679 492 1719 433 1631C580 1778 637 1778 532 1758C762 1738 842 1660 694 1778z" />
      <glyph unicode="&#x653;" horiz-adv-x="0" d="M350 1480C224 1465 182 1423 280 1484C140 1404 140 1424 158 1399C140 1438 144 1450 139 1430C182 1545 217 1582 158 1501C272 1620 307 1622 242 1607C360 1622 389 1619 333 1623C470 1614 548 1615 417 1615C673 1618 689 1622 626 1616C716 1625 723 1623 705 1625C730 1613 723 1601 730 1620C630 1495 580 1481 678 1535C468 1471 350 1480 545 1471z" />
      <glyph unicode="&#x654;" horiz-adv-x="0" d="M478 1537C367 1776 449 1852 358 1613C539 1909 598 1909 489 1890C760 1866 760 1780 706 1909C741 1765 705 1778 760 1766C640 1794 614 1792 670 1790C503 1752 499 1700 542 1783C529 1608 607 1585 493 1646C689 1585 784 1607 630 1577L780 1486L386 1398L386 1515z" />
      <glyph unicode="&#x655;" horiz-adv-x="0" d="M478 -445C367 -206 449 -130 358 -369C539 -73 598 -73 489 -92C760 -116 760 -202 706 -73C741 -216 705 -204 760 -216C640 -187 614 -190 670 -192C503 -229 499 -282 542 -198C529 -373 607 -397 493 -335C689 -397 784 -375 630 -404L780 -496L386 -584L386 -467z" />
      <glyph unicode="&#x657;" horiz-adv-x="0" d="M769 1872C703 1669 573 1671 769 1736C472 1689 434 1726 518 1671C378 1813 378 1877 396 1762C383 1934 395 1972 378 1903L403 1997L377 1999C323 2001 300 2002 349 2000L300 2105C395 2101 454 2095 344 2104C545 2199 603 2235 495 2153C848 2366 916 2370 743 2321L916 2266C755 2222 653 2142 843 2264C613 2108 595 2090 632 2126L570 2064L606 2056C630 2046 659 2031 612 2054C714 1992 736 1962 688 2015C769 1902 769 1872 758 1932zM560 1774C663 1803 663 1861 628 1774C638 1933 590 1953 663 1903C545 1968 510 1980 572 1959L495 1944C482 1897 482 1867 486 1923C491 1814 511 1798 482 1837C546 1774 560 1774 530 1782z" />
      <glyph unicode="&#x65A;" horiz-adv-x="1316" d="M578 1675L346 2063L482 2063L664 1789L847 2063L982 2063L750 1675z" />
      <glyph unicode="&#x660;" horiz-adv-x="864" d="M303 653C316 586 341 562 303 617C395 525 431 525 365 537C496 537 521 562 466 525C558 617 559 653 545 586C545 719 521 744 558 689C466 781 431 781 496 768C365 768 341 744 395 781C303 689 303 653 316 719zM163 537C189 787 242 840 163 686C358 920 432 920 294 893C569 893 622 840 506 920C701 723 701 649 674 787C674 510 622 457 701 574C506 378 432 378 569 404C268 431 163 537 358 378z" />
      <glyph unicode="&#x661;" horiz-adv-x="729" d="M207 1453C431 885 460 557 347 1183C451 76 357 19 485 255C273 864 128 1224 349 462C104 1411 192 1447 82 1337z" />
      <glyph unicode="&#x662;" horiz-adv-x="1082" d="M206 1451C275 1291 287 1271 248 1351C452 1081 563 1081 360 1145C776 1158 799 1316 697 1080C864 1441 951 1421 813 1406L974 1415C966 1332 954 1272 972 1380C776 917 562 918 906 1035C455 926 405 942 507 918C469 537 470 427 447 708C434 66 356 19 472 202C274 894 129 1222 350 493C102 1402 190 1444 81 1328z" />
      <glyph unicode="&#x663;" horiz-adv-x="1248" d="M207 1453C259 1340 281 1290 234 1395C418 1081 511 1083 341 1150C656 1129 658 1387 587 1084L770 1408C777 1220 784 1190 772 1292C843 1082 914 1083 800 1118C1016 1157 1010 1303 984 1084C1031 1408 1079 1430 1008 1365C1113 1436 1144 1431 1091 1436C1130 1080 1077 1010 1152 1221C820 885 719 1040 989 895C602 918 512 919 671 958C424 929 396 948 462 919C471 521 472 421 446 697C435 56 360 18 472 190C274 888 128 1220 351 487C105 1408 207 1453 79 1330z" />
      <glyph unicode="&#x664;" horiz-adv-x="972" d="M411 721C145 871 107 925 247 803C313 1330 613 1452 144 1155C643 1361 647 1270 632 1422C256 1043 229 974 395 1142C513 866 718 832 350 914C710 741 707 698 714 786C260 410 222 335 422 531C580 241 846 272 372 262L879 55C277 90 93 235 539 30C212 559 411 721 106 397z" />
      <glyph unicode="&#x665;" horiz-adv-x="1288" d="M395 790C266 473 321 387 291 608C456 266 579 253 370 311C800 260 889 314 697 240C976 388 996 444 940 344C1009 569 975 654 1016 499C810 912 626 1068 926 774L596 1094C463 908 395 790 530 1010zM529 1195L494 1226C518 1320 562 1420 495 1255C1027 916 1095 716 849 1150C1148 301 1017 174 1174 482C808 56 629 54 937 96C172 155 132 362 353 50C219 820 505 1165 95 552z" />
      <glyph unicode="&#x666;" horiz-adv-x="1319" d="M967 1447C984 932 1013 710 969 1177C1076 360 1159 14 1027 592C891 248 848 717 995 14C813 1146 812 1226 825 976L811 1267L772 1255C612 1225 502 1225 702 1235C337 1231 258 1243 418 1225C163 1267 137 1294 203 1250C98 1355 98 1402 111 1319L98 1446C363 1394 489 1394 233 1411C808 1411 967 1447 649 1394z" />
      <glyph unicode="&#x667;" horiz-adv-x="1085" d="M542 342C695 907 866 1361 587 567C934 1454 968 1370 900 1451L1014 1252C642 318 574 12 788 731L511 12C295 740 75 1249 441 328L117 1370C182 1457 219 1361 148 1460C498 575 542 342 390 915z" />
      <glyph unicode="&#x668;" horiz-adv-x="1085" d="M547 1099C393 535 223 81 501 874C154 -12 121 72 188 -9L75 190C447 1124 515 1430 300 710L578 1430C793 701 1014 193 648 1114L972 72C906 -15 870 81 940 -18C591 866 547 1099 698 527z" />
      <glyph unicode="&#x669;" horiz-adv-x="1245" d="M780 675C276 694 183 803 475 651C98 939 98 1014 126 869C135 1245 210 1327 98 1141C377 1450 490 1450 284 1409C696 1412 775 1337 601 1450C894 1159 904 1024 851 1263C934 694 952 586 918 840C1027 203 1085 12 982 394L1076 12C900 98 858 270 973 12C809 497 780 675 835 362zM760 851L752 950C721 1127 687 1177 743 1051C579 1277 502 1278 641 1243C381 1257 331 1216 438 1278C252 1115 249 1044 279 1172C275 931 335 894 246 981C558 829 760 851 416 843z" />
      </font>
</defs>
</svg>
